<svg width="66" height="30" viewBox="0 0 66 30" fill="none" xmlns="http://www.w3.org/2000/svg">
<path d="M7.19922 23.7656V23.8828H18.5664V29H0.128906V24.1953L8.15625 16.5195C9.77083 14.9701 10.9036 13.6745 11.5547 12.6328C12.2188 11.5781 12.5508 10.4714 12.5508 9.3125C12.5508 6.73438 11.1641 5.44531 8.39062 5.44531C5.98177 5.44531 3.67708 6.40234 1.47656 8.31641V2.88672C3.91146 1.3112 6.65885 0.523438 9.71875 0.523438C12.5833 0.523438 14.8164 1.24609 16.418 2.69141C18.0326 4.1237 18.8398 6.0638 18.8398 8.51172C18.8398 11.7799 16.8802 15.1589 12.9609 18.6484L7.19922 23.7656ZM23.8789 28.082V22.7109C25.7539 24.0781 27.9414 24.7617 30.4414 24.7617C32.0169 24.7617 33.2409 24.4232 34.1133 23.7461C34.9987 23.069 35.4414 22.125 35.4414 20.9141C35.4414 19.6641 34.8945 18.7005 33.8008 18.0234C32.7201 17.3464 31.2292 17.0078 29.3281 17.0078H26.8086V12.2812H29.1328C32.7786 12.2812 34.6016 11.0703 34.6016 8.64844C34.6016 6.36979 33.2018 5.23047 30.4023 5.23047C28.5273 5.23047 26.7044 5.83594 24.9336 7.04688V2.00781C26.8997 1.01823 29.1914 0.523438 31.8086 0.523438C34.6732 0.523438 36.8997 1.16797 38.4883 2.45703C40.0898 3.74609 40.8906 5.41927 40.8906 7.47656C40.8906 11.1354 39.0352 13.4271 35.3242 14.3516V14.4492C37.3034 14.6966 38.8659 15.4193 40.0117 16.6172C41.1576 17.8021 41.7305 19.2604 41.7305 20.9922C41.7305 23.6094 40.7734 25.6797 38.8594 27.2031C36.9453 28.7266 34.3021 29.4883 30.9297 29.4883C28.0391 29.4883 25.6888 29.0195 23.8789 28.082ZM55.3828 29.4883C48.7161 29.4883 45.3828 24.8073 45.3828 15.4453C45.3828 10.5885 46.2812 6.89062 48.0781 4.35156C49.888 1.79948 52.5052 0.523438 55.9297 0.523438C62.4401 0.523438 65.6953 5.28255 65.6953 14.8008C65.6953 19.5404 64.8034 23.1732 63.0195 25.6992C61.2487 28.2253 58.7031 29.4883 55.3828 29.4883ZM55.6562 5.23047C52.987 5.23047 51.6523 8.58333 51.6523 15.2891C51.6523 21.6042 52.9609 24.7617 55.5781 24.7617C58.1302 24.7617 59.4062 21.5065 59.4062 14.9961C59.4062 8.48568 58.1562 5.23047 55.6562 5.23047Z" fill="white"/>
</svg>
