<svg width="40" height="40" viewBox="0 0 40 40" fill="none" xmlns="http://www.w3.org/2000/svg">
<path d="M20 1.42969C12.125 1.42969 5.71094 7.83594 5.71094 15.7187C5.71094 23.6016 12.125 30 20 30C27.875 30 34.2891 23.5937 34.2891 15.7109C34.2891 7.82812 27.875 1.42969 20 1.42969ZM20 4.28906C26.3047 4.28906 31.4297 9.41406 31.4297 15.7187C31.4297 22.0234 26.3047 27.1406 20 27.1406C13.6953 27.1406 8.57031 22.0156 8.57031 15.7109C8.57031 9.40625 13.6953 4.28906 20 4.28906ZM18.5703 7.14062V8.84375C18.3594 8.92187 18.1641 9.00781 17.9688 9.11719C17.7812 9.21875 17.5938 9.33594 17.4219 9.46875C17.25 9.60156 17.0859 9.74219 16.9375 9.89844C16.6328 10.2031 16.375 10.5547 16.1797 10.9453C16.0781 11.1406 15.9922 11.3437 15.9219 11.5469C15.7812 11.9609 15.7109 12.4062 15.7109 12.8672C15.7109 13.1641 15.7422 13.4453 15.7969 13.7266C15.9141 14.2812 16.1406 14.7969 16.4453 15.2578C16.6016 15.4844 16.7734 15.7031 16.9688 15.8906C17.3594 16.2812 17.8203 16.5937 18.3359 16.8125C18.8438 17.0312 19.4062 17.1562 19.9922 17.1562C20.1953 17.1562 20.3828 17.1953 20.5625 17.2656C20.7344 17.3359 20.8906 17.4375 21.0156 17.5703C21.1406 17.6953 21.25 17.8516 21.3203 18.0234C21.3906 18.1953 21.4297 18.3828 21.4297 18.5937C21.4297 19.2031 21.0859 19.7031 20.5703 19.9141C20.3984 19.9844 20.2109 20.0234 20 20.0234C19.7891 20.0234 19.6094 19.9844 19.4297 19.9141C19.2578 19.8437 19.1016 19.7422 18.9766 19.6094C18.7188 19.3516 18.5625 19 18.5625 18.5937H15.7031C15.7031 18.8203 15.7266 19.0547 15.7578 19.2734C15.7969 19.4922 15.8438 19.7109 15.9141 19.9141C15.9844 20.125 16.0703 20.3281 16.1719 20.5156C16.2734 20.7109 16.3828 20.8906 16.5156 21.0625C16.6484 21.2344 16.7812 21.4062 16.9375 21.5547C17.0859 21.7109 17.25 21.8516 17.4219 21.9844C17.5938 22.1172 17.7812 22.2344 17.9688 22.3359C18.1562 22.4375 18.3594 22.5312 18.5703 22.6094V24.3125H21.4297V22.6094C22.8828 22.0859 23.9766 20.8125 24.2344 19.2734C24.2734 19.0547 24.2891 18.8281 24.2891 18.5937C24.2891 18.2969 24.2578 18.0156 24.2031 17.7344C24.1484 17.4531 24.0625 17.1875 23.9531 16.9297C23.8438 16.6719 23.7109 16.4297 23.5547 16.2031C23.3984 15.9766 23.2266 15.7578 23.0312 15.5703C22.8359 15.375 22.625 15.2031 22.3984 15.0469C22.1719 14.8906 21.9297 14.7578 21.6719 14.6484C21.4141 14.5391 21.1484 14.4531 20.8672 14.3984C20.5859 14.3437 20.3047 14.3125 20.0078 14.3125C19.8047 14.3125 19.6172 14.2734 19.4375 14.2031C19.2656 14.1328 19.1094 14.0312 18.9844 13.8984C18.8594 13.7734 18.75 13.6172 18.6797 13.4453C18.6094 13.2734 18.5703 13.0859 18.5703 12.875C18.5703 12.6641 18.6094 12.4844 18.6797 12.3047C18.75 12.1328 18.8516 11.9766 18.9844 11.8516C19.1094 11.7266 19.2656 11.6172 19.4375 11.5469C19.6094 11.4766 19.7969 11.4375 20.0078 11.4375C20.8203 11.4375 21.4375 12.0547 21.4375 12.8672H24.2969C24.2969 12.6406 24.2734 12.4062 24.2422 12.1875C24.2109 11.9687 24.1562 11.75 24.0859 11.5469C23.6719 10.2969 22.6875 9.30469 21.4375 8.85156V7.14062H18.5703ZM0 27.1406V38.5703H2.85938V30H10.5469C9.32812 29.1953 8.23438 28.2266 7.25781 27.1406H0ZM32.7422 27.1406C31.7656 28.2266 30.6719 29.1875 29.4531 30H37.1406V38.5703H40V27.1406H32.7422ZM5.71094 32.8594V35.7188H34.2812V32.8594H5.71094Z" fill="white"/>
</svg>
