<svg width="39" height="39" viewBox="0 0 39 39" fill="none" xmlns="http://www.w3.org/2000/svg">
<g clip-path="url(#clip0_529_157)">
<path d="M22.4082 2.44647V7.95301H27.9147L22.4082 2.44647Z" fill="white"/>
<path d="M17.8257 35.653L21.0452 25.0384L30.3609 15.7227V9.96915H21.3878C20.83 9.96915 20.3678 9.50695 20.3678 8.94912V0H0.4375V39H30.4007V30.4892L27.2769 33.613L17.8257 35.653ZM4.9798 5.76154H17.4831C18.0409 5.76154 18.5031 6.22374 18.5031 6.78157C18.5031 7.3394 18.0409 7.80159 17.4831 7.80159H4.9798C4.42197 7.80159 3.95977 7.3394 3.95977 6.78157C3.95977 6.22374 4.42994 5.76154 4.9798 5.76154ZM4.9798 11.9136H17.4831C18.0409 11.9136 18.5031 12.3758 18.5031 12.9336C18.5031 13.4914 18.0409 13.9536 17.4831 13.9536H4.9798C4.42197 13.9536 3.95977 13.4914 3.95977 12.9336C3.95977 12.3519 4.42994 11.9136 4.9798 11.9136ZM4.9798 20.0578C4.42197 20.0578 3.95977 19.5956 3.95977 19.0378C3.95977 18.48 4.42197 18.0178 4.9798 18.0178H17.4831C18.0409 18.0178 18.5031 18.48 18.5031 19.0378C18.5031 19.5956 18.0409 20.0578 17.4831 20.0578H4.9798Z" fill="white"/>
<path d="M34.0737 14.886L23.5547 25.413L28.0731 29.9313L38.5602 19.4044L34.0737 14.886Z" fill="white"/>
<path d="M26.2483 30.9514L22.5029 27.206L20.8613 32.6249L26.2483 30.9514Z" fill="white"/>
</g>
<defs>
<clipPath id="clip0_529_157">
<rect width="39" height="39" fill="white"/>
</clipPath>
</defs>
</svg>
