<svg width="624" height="127" viewBox="0 0 624 127" fill="none" xmlns="http://www.w3.org/2000/svg">
<path d="M6.2075 47L0.1955 0.991996H12.5075L15.2435 33.284L15.4955 36.776H16.0355L16.3955 33.284L19.8875 1.784H33.3875L36.8435 33.284L37.2035 36.776H37.7435L38.0315 33.32L40.8755 0.991996H53.0435L47.1395 47H30.3635L27.3035 16.832L26.9075 11.936H26.4035L25.9715 16.832L22.9835 47H6.2075ZM57.2353 47V0.991996H69.1513V47H57.2353ZM62.9233 47V36.524H84.8473V47H62.9233ZM64.7593 28.676V18.668H84.1993V28.676H64.7593ZM62.9233 11.324V0.991996H84.6673V11.324H62.9233ZM111.475 47V37.208H119.467C121.075 37.208 122.203 36.884 122.851 36.236C123.499 35.564 123.823 34.532 123.823 33.14V32.204C123.823 30.812 123.499 29.792 122.851 29.144C122.203 28.472 121.075 28.136 119.467 28.136H111.115V19.208H119.215C120.727 19.208 121.795 18.884 122.419 18.236C123.043 17.564 123.355 16.532 123.355 15.14V14.6C123.355 13.208 123.043 12.188 122.419 11.54C121.795 10.892 120.727 10.568 119.215 10.568H111.115V0.991996H120.115C125.419 0.991996 129.259 1.916 131.635 3.764C134.035 5.612 135.235 8.336 135.235 11.936V12.692C135.235 15.38 134.539 17.468 133.147 18.956C131.779 20.444 129.559 21.284 126.487 21.476V21.836C129.943 22.268 132.367 23.396 133.759 25.22C135.175 27.02 135.883 29.516 135.883 32.708V33.86C135.883 38.324 134.683 41.636 132.283 43.796C129.907 45.932 126.091 47 120.835 47H111.475ZM102.727 47V0.991996H114.355V47H102.727ZM157.405 47.972C151.573 47.972 147.253 46.496 144.445 43.544C141.637 40.592 140.233 36.26 140.233 30.548V0.991996H152.509V31.16C152.509 33.368 152.893 35 153.661 36.056C154.429 37.112 155.677 37.64 157.405 37.64C159.157 37.64 160.405 37.112 161.149 36.056C161.893 35 162.265 33.368 162.265 31.16V0.991996H174.577V30.548C174.577 36.26 173.173 40.592 170.365 43.544C167.557 46.496 163.237 47.972 157.405 47.972ZM193.016 47H180.704V0.991996H193.016V47ZM211.719 47H199.407V0.991996H211.719V47ZM206.931 36.38H225.327V47H206.931V36.38ZM238.415 47V36.632H245.939C247.859 36.632 249.275 36.116 250.187 35.084C251.099 34.052 251.555 32.504 251.555 30.44V17.444C251.555 15.356 251.099 13.808 250.187 12.8C249.275 11.768 247.859 11.252 245.939 11.252H238.415V0.991996H246.479C252.359 0.991996 256.703 2.408 259.511 5.24C262.319 8.048 263.723 12.116 263.723 17.444V30.476C263.723 35.828 262.331 39.92 259.547 42.752C256.763 45.584 252.407 47 246.479 47H238.415ZM230.063 47V0.991996H242.087V47H230.063ZM298.2 47.972C292.272 47.972 287.844 46.46 284.916 43.436C282.012 40.388 280.56 35.9 280.56 29.972V18.272C280.56 12.368 282.024 7.856 284.952 4.736C287.88 1.616 292.296 0.0559993 298.2 0.0559993C304.08 0.0559993 308.484 1.616 311.412 4.736C314.364 7.856 315.84 12.368 315.84 18.272V29.972C315.84 35.9 314.376 40.388 311.448 43.436C308.52 46.46 304.104 47.972 298.2 47.972ZM298.2 37.82C300.024 37.82 301.344 37.244 302.16 36.092C302.976 34.916 303.384 33.176 303.384 30.872V17.372C303.384 14.972 302.976 13.184 302.16 12.008C301.344 10.808 300.024 10.208 298.2 10.208C296.352 10.208 295.02 10.808 294.204 12.008C293.388 13.184 292.98 14.972 292.98 17.372V30.872C292.98 33.176 293.388 34.916 294.204 36.092C295.02 37.244 296.352 37.82 298.2 37.82ZM338.108 47.972C332.276 47.972 327.956 46.496 325.148 43.544C322.34 40.592 320.936 36.26 320.936 30.548V0.991996H333.212V31.16C333.212 33.368 333.596 35 334.364 36.056C335.132 37.112 336.38 37.64 338.108 37.64C339.86 37.64 341.108 37.112 341.852 36.056C342.596 35 342.968 33.368 342.968 31.16V0.991996H355.28V30.548C355.28 36.26 353.876 40.592 351.068 43.544C348.26 46.496 343.94 47.972 338.108 47.972ZM382.359 47L381.747 37.316C381.675 36.116 381.471 35.144 381.135 34.4C380.799 33.656 380.295 33.116 379.623 32.78C378.951 32.42 378.075 32.24 376.995 32.24H369.975V22.664H377.283C378.915 22.664 380.091 22.268 380.811 21.476C381.531 20.66 381.891 19.352 381.891 17.552V16.076C381.891 14.252 381.543 12.944 380.847 12.152C380.175 11.36 378.987 10.964 377.283 10.964H369.903V0.991996H378.615C383.943 0.991996 387.831 2.072 390.279 4.232C392.751 6.392 393.987 9.536 393.987 13.664V14.744C393.987 17.864 393.207 20.24 391.647 21.872C390.087 23.48 387.771 24.332 384.699 24.428V26.192L382.539 24.608C385.395 24.776 387.567 25.328 389.055 26.264C390.543 27.2 391.611 28.52 392.259 30.224C392.907 31.904 393.351 33.968 393.591 36.416L394.635 47H382.359ZM361.407 47V0.991996H373.251V25.832L373.323 30.62V47H361.407ZM411.751 47V0.991996H423.919V47H411.751ZM419.275 31.592V20.936H437.599V31.592H419.275ZM417.439 11.648V0.991996H438.103V11.648H417.439ZM460.101 47.972C454.269 47.972 449.949 46.496 447.141 43.544C444.333 40.592 442.929 36.26 442.929 30.548V0.991996H455.205V31.16C455.205 33.368 455.589 35 456.357 36.056C457.125 37.112 458.373 37.64 460.101 37.64C461.853 37.64 463.101 37.112 463.845 36.056C464.589 35 464.961 33.368 464.961 31.16V0.991996H477.273V30.548C477.273 36.26 475.869 40.592 473.061 43.544C470.253 46.496 465.933 47.972 460.101 47.972ZM491.247 47V2.252H503.523V47H491.247ZM481.599 11.54V0.991996H513.171V11.54H481.599ZM534.632 47.972C528.8 47.972 524.48 46.496 521.672 43.544C518.864 40.592 517.46 36.26 517.46 30.548V0.991996H529.736V31.16C529.736 33.368 530.12 35 530.888 36.056C531.656 37.112 532.904 37.64 534.632 37.64C536.384 37.64 537.632 37.112 538.376 36.056C539.12 35 539.492 33.368 539.492 31.16V0.991996H551.804V30.548C551.804 36.26 550.4 40.592 547.592 43.544C544.784 46.496 540.464 47.972 534.632 47.972ZM578.883 47L578.271 37.316C578.199 36.116 577.995 35.144 577.659 34.4C577.323 33.656 576.819 33.116 576.147 32.78C575.475 32.42 574.599 32.24 573.519 32.24H566.499V22.664H573.807C575.439 22.664 576.615 22.268 577.335 21.476C578.055 20.66 578.415 19.352 578.415 17.552V16.076C578.415 14.252 578.067 12.944 577.371 12.152C576.699 11.36 575.511 10.964 573.807 10.964H566.427V0.991996H575.139C580.467 0.991996 584.355 2.072 586.803 4.232C589.275 6.392 590.511 9.536 590.511 13.664V14.744C590.511 17.864 589.731 20.24 588.171 21.872C586.611 23.48 584.295 24.332 581.223 24.428V26.192L579.063 24.608C581.919 24.776 584.091 25.328 585.579 26.264C587.067 27.2 588.135 28.52 588.783 30.224C589.431 31.904 589.875 33.968 590.115 36.416L591.159 47H578.883ZM557.931 47V0.991996H569.775V25.832L569.847 30.62V47H557.931ZM595.899 47V0.991996H607.815V47H595.899ZM601.587 47V36.524H623.511V47H601.587ZM603.423 28.676V18.668H622.863V28.676H603.423ZM601.587 11.324V0.991996H623.331V11.324H601.587ZM111.229 126V116.208H119.221C120.829 116.208 121.957 115.884 122.605 115.236C123.253 114.564 123.577 113.532 123.577 112.14V111.204C123.577 109.812 123.253 108.792 122.605 108.144C121.957 107.472 120.829 107.136 119.221 107.136H110.869V98.208H118.969C120.481 98.208 121.549 97.884 122.173 97.236C122.797 96.564 123.109 95.532 123.109 94.14V93.6C123.109 92.208 122.797 91.188 122.173 90.54C121.549 89.892 120.481 89.568 118.969 89.568H110.869V79.992H119.869C125.173 79.992 129.013 80.916 131.389 82.764C133.789 84.612 134.989 87.336 134.989 90.936V91.692C134.989 94.38 134.293 96.468 132.901 97.956C131.533 99.444 129.313 100.284 126.241 100.476V100.836C129.697 101.268 132.121 102.396 133.513 104.22C134.929 106.02 135.637 108.516 135.637 111.708V112.86C135.637 117.324 134.437 120.636 132.037 122.796C129.661 124.932 125.845 126 120.589 126H111.229ZM102.481 126V79.992H114.109V126H102.481ZM161.402 126L160.79 116.316C160.718 115.116 160.514 114.144 160.178 113.4C159.842 112.656 159.338 112.116 158.666 111.78C157.994 111.42 157.118 111.24 156.038 111.24H149.018V101.664H156.326C157.958 101.664 159.134 101.268 159.854 100.476C160.574 99.66 160.934 98.352 160.934 96.552V95.076C160.934 93.252 160.586 91.944 159.89 91.152C159.218 90.36 158.03 89.964 156.326 89.964H148.946V79.992H157.658C162.986 79.992 166.874 81.072 169.322 83.232C171.794 85.392 173.03 88.536 173.03 92.664V93.744C173.03 96.864 172.25 99.24 170.69 100.872C169.13 102.48 166.814 103.332 163.742 103.428V105.192L161.582 103.608C164.438 103.776 166.61 104.328 168.098 105.264C169.586 106.2 170.654 107.52 171.302 109.224C171.95 110.904 172.394 112.968 172.634 115.416L173.678 126H161.402ZM140.45 126V79.992H152.294V104.832L152.366 109.62V126H140.45ZM190.731 126H178.419V79.992H190.731V126ZM212.746 126.9C207.058 126.9 202.87 125.34 200.182 122.22C197.494 119.076 196.15 114.504 196.15 108.504V97.2C196.15 91.296 197.518 86.796 200.254 83.7C203.014 80.604 207.142 79.056 212.638 79.056C214.078 79.056 215.386 79.164 216.562 79.38C217.762 79.596 218.842 79.884 219.802 80.244C220.762 80.604 221.59 81.012 222.286 81.468L223.078 91.98C222.07 91.452 220.978 90.996 219.802 90.612C218.626 90.204 217.27 90 215.734 90C213.19 90 211.366 90.708 210.262 92.124C209.158 93.516 208.606 95.46 208.606 97.956V107.892C208.606 110.364 209.17 112.296 210.298 113.688C211.45 115.08 213.394 115.776 216.13 115.776C217.666 115.776 219.01 115.572 220.162 115.164C221.338 114.756 222.418 114.276 223.402 113.724L222.574 124.416C221.878 124.848 221.038 125.256 220.054 125.64C219.07 126.024 217.966 126.324 216.742 126.54C215.518 126.78 214.186 126.9 212.746 126.9ZM250.088 126L240.872 105.876H239.396V99.036H240.872L249.836 79.992H263.048L251.348 102.888V100.188L263.516 126H250.088ZM228.2 126V79.992H240.296V126H228.2ZM287.643 126V116.208H295.635C297.243 116.208 298.371 115.884 299.019 115.236C299.667 114.564 299.991 113.532 299.991 112.14V111.204C299.991 109.812 299.667 108.792 299.019 108.144C298.371 107.472 297.243 107.136 295.635 107.136H287.283V98.208H295.383C296.895 98.208 297.963 97.884 298.587 97.236C299.211 96.564 299.523 95.532 299.523 94.14V93.6C299.523 92.208 299.211 91.188 298.587 90.54C297.963 89.892 296.895 89.568 295.383 89.568H287.283V79.992H296.283C301.587 79.992 305.427 80.916 307.803 82.764C310.203 84.612 311.403 87.336 311.403 90.936V91.692C311.403 94.38 310.707 96.468 309.315 97.956C307.947 99.444 305.727 100.284 302.655 100.476V100.836C306.111 101.268 308.535 102.396 309.927 104.22C311.343 106.02 312.051 108.516 312.051 111.708V112.86C312.051 117.324 310.851 120.636 308.451 122.796C306.075 124.932 302.259 126 297.003 126H287.643ZM278.895 126V79.992H290.523V126H278.895ZM325.524 114.66L312.816 79.992H325.308L328.836 92.556L330.78 100.404H331.392L333.336 92.556L336.792 79.992H349.284L336.684 114.66H325.524ZM325.128 126V103.464H337.044V126H325.128ZM373.636 126V116.208H381.628C383.236 116.208 384.364 115.884 385.012 115.236C385.66 114.564 385.984 113.532 385.984 112.14V111.204C385.984 109.812 385.66 108.792 385.012 108.144C384.364 107.472 383.236 107.136 381.628 107.136H373.276V98.208H381.376C382.888 98.208 383.956 97.884 384.58 97.236C385.204 96.564 385.516 95.532 385.516 94.14V93.6C385.516 92.208 385.204 91.188 384.58 90.54C383.956 89.892 382.888 89.568 381.376 89.568H373.276V79.992H382.276C387.58 79.992 391.42 80.916 393.796 82.764C396.196 84.612 397.396 87.336 397.396 90.936V91.692C397.396 94.38 396.7 96.468 395.308 97.956C393.94 99.444 391.72 100.284 388.648 100.476V100.836C392.104 101.268 394.528 102.396 395.92 104.22C397.336 106.02 398.044 108.516 398.044 111.708V112.86C398.044 117.324 396.844 120.636 394.444 122.796C392.068 124.932 388.252 126 382.996 126H373.636ZM364.888 126V79.992H376.516V126H364.888ZM423.808 126L423.196 116.316C423.124 115.116 422.92 114.144 422.584 113.4C422.248 112.656 421.744 112.116 421.072 111.78C420.4 111.42 419.524 111.24 418.444 111.24H411.424V101.664H418.732C420.364 101.664 421.54 101.268 422.26 100.476C422.98 99.66 423.34 98.352 423.34 96.552V95.076C423.34 93.252 422.992 91.944 422.296 91.152C421.624 90.36 420.436 89.964 418.732 89.964H411.352V79.992H420.064C425.392 79.992 429.28 81.072 431.728 83.232C434.2 85.392 435.436 88.536 435.436 92.664V93.744C435.436 96.864 434.656 99.24 433.096 100.872C431.536 102.48 429.22 103.332 426.148 103.428V105.192L423.988 103.608C426.844 103.776 429.016 104.328 430.504 105.264C431.992 106.2 433.06 107.52 433.708 109.224C434.356 110.904 434.8 112.968 435.04 115.416L436.084 126H423.808ZM402.856 126V79.992H414.7V104.832L414.772 109.62V126H402.856ZM453.137 126H440.825V79.992H453.137V126ZM475.152 126.9C469.464 126.9 465.276 125.34 462.588 122.22C459.9 119.076 458.556 114.504 458.556 108.504V97.2C458.556 91.296 459.924 86.796 462.66 83.7C465.42 80.604 469.548 79.056 475.044 79.056C476.484 79.056 477.792 79.164 478.968 79.38C480.168 79.596 481.248 79.884 482.208 80.244C483.168 80.604 483.996 81.012 484.692 81.468L485.484 91.98C484.476 91.452 483.384 90.996 482.208 90.612C481.032 90.204 479.676 90 478.14 90C475.596 90 473.772 90.708 472.668 92.124C471.564 93.516 471.012 95.46 471.012 97.956V107.892C471.012 110.364 471.576 112.296 472.704 113.688C473.856 115.08 475.8 115.776 478.536 115.776C480.072 115.776 481.416 115.572 482.568 115.164C483.744 114.756 484.824 114.276 485.808 113.724L484.98 124.416C484.284 124.848 483.444 125.256 482.46 125.64C481.476 126.024 480.372 126.324 479.148 126.54C477.924 126.78 476.592 126.9 475.152 126.9ZM512.494 126L503.278 105.876H501.802V99.036H503.278L512.242 79.992H525.454L513.754 102.888V100.188L525.922 126H512.494ZM490.606 126V79.992H502.702V126H490.606Z" fill="#FFD100"/>
</svg>
