<svg version="1.2" xmlns="http://www.w3.org/2000/svg" viewBox="0 0 353 51" width="353" height="51">
	<title>image</title>
	<defs>
		<clipPath clipPathUnits="userSpaceOnUse" id="cp1">
			<path d="m0 0h353v51h-353z"/>
		</clipPath>
	</defs>
	<style>
		.s0 { fill: #ffd100 } 
	</style>
	<g id="Clip-Path" clip-path="url(#cp1)">
		<g>
			<path class="s0" d="m134.4 21.6c0.3-1.3 0.4-1.3 1.6-1.3h29.2l5-20.3h-33.4c-5.2 0-9.7 1.4-13.3 3.9l1-3.9h-20.5l-1.4 5.7q0-0.1-0.1-0.2c-2.9-3.6-7.5-5.5-13.9-5.5h-30.3l-1.4 5.7q0-0.1-0.1-0.2c-2.8-3.6-7.5-5.5-13.9-5.5h-30.3l-3.8 15.4-3.8 15.3-5 20.3h33.4c11 0 18.5-5.5 21.3-15.4h11.4l14.1 15.4h31.7l1.5-6.1q0.2 0.3 0.4 0.5c2.8 3.7 7.4 5.6 13.5 5.6h30.3l5-20.3h-30.5l2.3-9.1zm-51.5 23.1l-14.1-15.4h-11.3l1.9-7.7h24.1q6.4 0 7.3-3.8 1-3.8-5.4-3.8h-24.1l1.9-7.7h25.4q12.7 0 9.8 11.5-2.8 11.5-15.5 11.5h-2.4l14.1 15.4h-11.7zm-34-11.5q-2.8 11.5-15.5 11.5h-25.4l1.9-7.7h24.1q6.4 0 7.3-3.8 1-3.9-4.1-3.9h-25.4l1.9-7.6h25.4q5.1 0 6-3.9 1-3.8-5.4-3.8h-24.1l1.9-7.7h25.4q12.7 0 9.8 11.5-1.6 6.4-5.7 7.7 3.5 1.3 1.9 7.7zm46.2 2.8l-2.1-2.3c1.1-0.4 2.1-1 3.1-1.7zm11.9 8.7h-7.6l9.5-38.4h7.6zm47.6-7.6l-1.9 7.6h-25.4q-12.7 0-9.5-12.8l3.1-12.8q3.2-12.8 15.9-12.8h25.4l-1.9 7.7h-24.4q-6.1 0-7.6 6.1l-2.6 10.8q-1.6 6.1 4.6 6.1h24.3z"/>
			<path class="s0" d="m283.4 14h-11.4q-5.1 0-6.6 6.4l-2.6 10.2q-1.6 6.4 4.8 6.4h10.1q6.4 0 8-6.4l2.5-10.2q1.6-6.4-4.8-6.4zm-3.8 15.1c-0.4 1.6-0.7 1.6-1.8 1.6h-8.6l2.2-8.8c0.3-1 0.5-1.4 0.6-1.7h9.8l-2.2 8.9z"/>
			<path class="s0" d="m302 0l-1.4 6.1c-0.2-0.2-0.3-0.4-0.4-0.6-2.8-3.6-7.4-5.5-13.6-5.5h-12.7c-7.6 0-13.6 2.8-17.6 8.1q-0.6-1.4-1.5-2.6c-2.8-3.6-7.5-5.5-13.9-5.5h-46.4l-33 24.4 22.7 26.6h47.2c8 0 14.1-2.9 17.9-8.2q0.6 1.4 1.6 2.6 2.6 3.5 7.3 4.8v0.8h18.9c11.3-0.1 19.1-6.3 21.9-17.6l3.2-12.8q0-0.2 0.1-0.3h10l-7.6 30.7h20.5l7.6-30.7h15.2l5-20.3h-51zm-115 44.7l-16.4-19.2 25.9-19.2h11.4l-25.9 19.2 16.4 19.2zm16-14l-1.9 7.6-10-11.8 15.8-11.7-0.1 0.6-3.8 15.3zm47.7-12.9q-1.6 6.4-5.7 7.7 3.5 1.3 1.9 7.7-2.8 11.5-15.5 11.5h-25.4l1.9-7.7h24.1q6.4 0 7.3-3.8 1-3.9-4.1-3.9h-25.4l1.9-7.6h25.4q5 0 6-3.9 1-3.8-5.4-3.8h-24.1l1.9-7.7h25.4q12.7 0 9.8 11.5zm45.4 1.3l-3.1 12.8q-3.2 12.8-15.9 12.8h-12.7q-12.7 0-9.5-12.8l3.1-12.8q3.2-12.8 15.9-12.8h12.7q12.7 0 9.5 12.8zm47-5.1h-15.3l-7.5 30.7h-7.7l7.6-30.7h-15.2l1.9-7.7h38.1l-1.9 7.7z"/>
			<path class="s0" d="m97.4 31.2h-5.2v5.3h5.2z"/>
		</g>
	</g>
</svg>