<?xml version="1.0" encoding="UTF-8"?>
<svg id="Layer_2" data-name="Layer 2" xmlns="http://www.w3.org/2000/svg" viewBox="0 0 40.5 40.5">
  <defs>
    <style>
      .cls-1 {
        fill: #ffd100;
        stroke-width: 0px;
      }
    </style>
  </defs>
  <g id="Layer_1-2" data-name="Layer 1">
    <g>
      <g>
        <path class="cls-1" d="M25.93,34.36c.48-.18,1.91-.88,1.97-.96.03-.03-.52-.99-1.78-3.1-1-1.69-2.19-3.71-2.67-4.52-.47-.79-.87-1.45-.87-1.45-.01,0-.12.05-.23.1-.3.16-.88.34-1.26.4-.42.06-1.27.08-1.67,0-.39-.06-.82-.21-1.19-.38-.17-.08-.31-.13-.32-.12s-1.22,2.04-2.67,4.52c-1.74,2.93-2.65,4.51-2.62,4.53.06.08,1.45.75,1.99.96,1.35.53,2.79.88,4.09,1,.22.03.47.04.56.05h0c.35.04,2.34-.01,2.77-.06,1.4-.16,2.64-.47,3.93-.97Z"/>
        <path class="cls-1" d="M17.79,16.2s-5.15-9-5.21-9.06c-.08-.08-1.31.74-2.14,1.44-3.22,2.69-5.19,6.67-5.41,10.88l-.03.49h10.54v-.1c0-.4.26-1.29.52-1.79.32-.61.93-1.3,1.48-1.66.14-.09.25-.18.25-.19Z"/>
        <path class="cls-1" d="M21.01,17.04c-.18-.04-.39-.06-.78-.06-.61,0-.9.06-1.39.3-.38.18-.58.31-.88.61-1.64,1.56-1.23,4.25.79,5.27.3.16.66.27.97.32h0c.32.05,1.03.01,1.35-.06,1.52-.39,2.58-1.84,2.47-3.39-.1-1.45-1.12-2.64-2.53-2.99Z"/>
        <path class="cls-1" d="M30.23,19.95h5.27l-.03-.49c-.19-3.75-1.78-7.31-4.44-9.98-.86-.87-2-1.75-2.92-2.3l-.17-.09-.05.08c-.14.23-5.17,8.96-5.18,9s.06.1.21.19c.12.08.38.29.56.45.6.57.99,1.18,1.23,1.91.12.36.23.9.23,1.1v.1h5.28v.03h0Z"/>
      </g>
      <path class="cls-1" d="M20.25,2.5c9.79,0,17.75,7.96,17.75,17.75s-7.96,17.75-17.75,17.75S2.5,30.04,2.5,20.25,10.46,2.5,20.25,2.5M20.25,0C9.07,0,0,9.07,0,20.25s9.07,20.25,20.25,20.25,20.25-9.07,20.25-20.25S31.43,0,20.25,0h0Z"/>
    </g>
  </g>
</svg>