<?xml version="1.0" encoding="UTF-8"?>
<svg id="Layer_2" data-name="Layer 2" xmlns="http://www.w3.org/2000/svg" viewBox="0 0 353.23 59.32">
  <defs>
    <style>
      .cls-1 {
        fill: #fff;
        stroke-width: 0px;
      }
    </style>
  </defs>
  <g id="Layer_1-2" data-name="Layer 1">
    <g>
      <path class="cls-1" d="M3.17,35.55c.42,1.86.99,3.33,1.71,4.41.72,1.08,1.65,1.88,2.79,2.4s2.61.78,4.41.78c2.48,0,4.38-.65,5.7-1.94,1.32-1.29,1.98-3.17,1.98-5.65,0-1.59-.28-2.92-.83-4-.55-1.08-1.45-2.1-2.7-3.05-1.25-.95-3.15-2.06-5.71-3.33-2.48-1.23-4.43-2.43-5.87-3.6-1.44-1.17-2.51-2.45-3.22-3.82-.71-1.38-1.06-2.88-1.06-4.51,0-2.37.56-4.43,1.67-6.17,1.11-1.75,2.74-3.09,4.89-4.05s4.61-1.43,7.38-1.43c1.61,0,3.18.08,4.71.25,1.53.17,3.45.55,5.76,1.14v8.57h-3.14c-.49-1.86-1.1-3.31-1.84-4.35-.74-1.04-1.61-1.76-2.6-2.17-1-.41-2.29-.62-3.87-.62-1.38,0-2.61.25-3.7.76-1.09.51-1.95,1.28-2.59,2.3-.63,1.03-.95,2.25-.95,3.67,0,1.5.27,2.77.81,3.81.54,1.04,1.38,2,2.52,2.89s2.84,1.88,5.08,2.98c2.71,1.35,4.81,2.61,6.3,3.78,1.49,1.16,2.66,2.49,3.49,3.98.83,1.49,1.25,3.23,1.25,5.22,0,2.22-.35,4.1-1.05,5.63s-1.67,2.78-2.9,3.75c-1.24.96-2.72,1.66-4.44,2.09s-3.61.65-5.67.65c-3.32,0-7.15-.56-11.49-1.68v-8.7h3.17Z"/>
      <path class="cls-1" d="M29.7,43.86c.83-.25,1.41-.48,1.76-.67.35-.19.65-.46.89-.79.24-.34.43-.86.57-1.55s.21-1.79.21-3.27v-13.84c0-1.35-.02-2.44-.06-3.27-.04-.83-.19-1.49-.45-1.98s-.64-.87-1.16-1.11c-.52-.24-1.25-.45-2.21-.62v-1.68l7.39-.29h1.94v22.69c0,1.82.08,3.08.25,3.79.17.71.49,1.25.97,1.62.48.37,1.25.69,2.33.97v1.55h-12.44v-1.55ZM38.78,2.63v6.16h-5.84V2.63h5.84Z"/>
      <path class="cls-1" d="M55.75,19.96l.44.13c1.27-1.27,2.31-2.23,3.13-2.87.81-.65,1.6-1.16,2.36-1.56.76-.39,1.48-.67,2.14-.84.67-.17,1.35-.25,2.05-.25,2.12,0,3.84.49,5.17,1.46,1.33.97,2.25,2.46,2.76,4.48,1.59-1.61,2.87-2.79,3.86-3.55.98-.76,1.99-1.35,3.01-1.76,1.03-.41,2.13-.62,3.32-.62,1.42,0,2.64.21,3.67.62,1.03.41,1.89,1.05,2.6,1.9.71.86,1.23,1.93,1.56,3.22.33,1.29.49,3.03.49,5.21v11.97c0,1.61.05,2.72.16,3.33.11.61.26,1.09.46,1.43.2.34.5.63.91.87.4.24,1.08.49,2.03.75v1.55h-12.47v-1.55c.83-.25,1.42-.48,1.78-.67.36-.19.66-.46.9-.79.24-.34.43-.86.57-1.57s.21-1.78.21-3.22v-8.32c0-1.8-.05-3.29-.14-4.46-.09-1.17-.24-2.11-.44-2.81-.2-.7-.44-1.25-.73-1.65-.29-.4-.61-.75-.97-1.05-.36-.3-.78-.53-1.27-.7-.49-.17-1.13-.25-1.94-.25-.85,0-1.63.17-2.36.51-.73.34-1.52.91-2.38,1.71-.86.8-1.48,1.61-1.86,2.43-.38.82-.57,1.77-.57,2.87v11.58c0,1.61.05,2.72.16,3.33.11.61.26,1.09.46,1.43.2.34.5.63.9.87.4.24,1.08.49,2.03.75v1.55h-12.47v-1.55c.82-.25,1.42-.48,1.78-.67.36-.19.66-.46.9-.79.24-.34.43-.86.57-1.57.14-.71.21-1.78.21-3.22v-8.32c0-1.88-.05-3.42-.16-4.6-.11-1.19-.27-2.14-.49-2.86-.22-.72-.51-1.3-.86-1.75-.35-.44-.7-.78-1.06-1.02-.36-.23-.78-.41-1.27-.52-.49-.12-1.04-.17-1.65-.17-.87,0-1.68.2-2.44.59-.76.39-1.54.96-2.33,1.7-.79.74-1.39,1.51-1.79,2.32-.4.8-.6,1.67-.6,2.6v11.9c0,1.21.03,2.13.1,2.76s.16,1.13.3,1.49c.14.36.31.65.52.87.21.22.51.43.9.63s.98.41,1.76.62v1.55h-12.44v-1.55c.8-.25,1.38-.48,1.73-.67.35-.19.65-.46.9-.79.25-.34.45-.86.57-1.55s.19-1.79.19-3.27v-13.84c0-1.35-.02-2.44-.06-3.27-.04-.83-.19-1.49-.45-1.98s-.64-.87-1.16-1.11c-.52-.24-1.25-.45-2.21-.62v-1.68l7.43-.29h1.94l-.35,5.17Z"/>
      <path class="cls-1" d="M107.73,44.47v6.7c0,1.38.05,2.4.14,3.08.1.68.26,1.21.51,1.6s.59.71,1.05.97c.45.25,1.19.49,2.21.7v1.56h-12.95v-1.56c.76-.21,1.38-.43,1.86-.65.48-.22.84-.55,1.09-.98.25-.43.42-1.02.51-1.76.08-.74.13-1.72.13-2.95v-27.23c0-1.52-.02-2.61-.06-3.25-.04-.64-.13-1.18-.25-1.6-.13-.42-.31-.77-.56-1.05-.24-.27-.57-.51-.98-.7-.41-.19-1.09-.38-2.05-.57v-1.68l7.46-.29h1.94l-.41,5.17.48.13c1.31-1.33,2.35-2.3,3.11-2.9.76-.6,1.55-1.11,2.37-1.51.81-.4,1.6-.69,2.35-.86.75-.17,1.55-.25,2.4-.25,3.49,0,6.17,1.31,8.05,3.92,1.87,2.61,2.81,6.44,2.81,11.47,0,3.49-.53,6.43-1.59,8.81-1.06,2.38-2.6,4.17-4.62,5.36-2.02,1.2-4.43,1.79-7.22,1.79-1.57,0-2.98-.13-4.25-.4-1.27-.26-2.43-.62-3.49-1.06ZM107.73,33.99c0,2.03.13,3.6.38,4.7.25,1.1.7,1.99,1.35,2.68.65.69,1.41,1.2,2.29,1.54.88.34,2.04.51,3.48.51,2.56,0,4.49-1.06,5.78-3.19,1.29-2.13,1.94-5.26,1.94-9.41,0-8.29-2.42-12.44-7.27-12.44-1.19,0-2.21.19-3.06.56-.86.37-1.71.97-2.56,1.79-.85.83-1.44,1.62-1.79,2.4-.35.77-.52,1.6-.52,2.49v8.38Z"/>
      <path class="cls-1" d="M141.87,37.48c0,1.82.08,3.08.25,3.79.17.71.49,1.25.97,1.62.48.37,1.25.69,2.33.97v1.55h-12.6v-1.55c1.06-.28,1.79-.56,2.21-.86.41-.3.71-.65.89-1.06.18-.41.31-.97.38-1.68s.11-1.63.11-2.78V10.92c0-2.03-.02-3.45-.05-4.25-.03-.8-.12-1.49-.25-2.05-.14-.56-.33-1-.57-1.32-.24-.32-.57-.57-.98-.76-.41-.19-1.16-.38-2.24-.57V.32l7.65-.32h1.9v37.48Z"/>
      <path class="cls-1" d="M150.48,43.86c.83-.25,1.41-.48,1.76-.67.35-.19.65-.46.89-.79.24-.34.43-.86.57-1.55s.21-1.79.21-3.27v-13.84c0-1.35-.02-2.44-.06-3.27-.04-.83-.19-1.49-.45-1.98s-.64-.87-1.16-1.11c-.52-.24-1.25-.45-2.21-.62v-1.68l7.39-.29h1.94v22.69c0,1.82.08,3.08.25,3.79.17.71.49,1.25.97,1.62.48.37,1.25.69,2.33.97v1.55h-12.44v-1.55ZM159.56,2.63v6.16h-5.84V2.63h5.84Z"/>
      <path class="cls-1" d="M190.16,15.81v6.63h-4.03c-.36-1.38-.8-2.46-1.33-3.25-.53-.79-1.14-1.35-1.84-1.67-.7-.32-1.57-.48-2.6-.48-1.48,0-2.79.48-3.94,1.43-1.14.95-2.05,2.4-2.71,4.35-.67,1.95-1,4.33-1,7.14,0,1.8.13,3.44.38,4.94.25,1.49.69,2.77,1.3,3.82.61,1.06,1.43,1.88,2.44,2.48,1.02.59,2.27.89,3.78.89s2.82-.29,4.08-.86c1.26-.57,2.57-1.58,3.92-3.02l1.81,2.1c-1.08,1.18-2.03,2.1-2.86,2.75s-1.71,1.18-2.65,1.62c-.94.43-1.87.75-2.79.95-.92.2-1.92.3-3,.3-4,0-7.06-1.33-9.17-3.98-2.12-2.66-3.17-6.49-3.17-11.5,0-3.13.59-5.91,1.78-8.33,1.19-2.42,2.85-4.29,4.98-5.6,2.14-1.31,4.6-1.97,7.4-1.97,1.73,0,3.34.1,4.81.3,1.47.2,2.95.52,4.43.97Z"/>
      <path class="cls-1" d="M195.18,43.86c.83-.25,1.41-.48,1.76-.67.35-.19.65-.46.89-.79.24-.34.43-.86.57-1.55s.21-1.79.21-3.27v-13.84c0-1.35-.02-2.44-.06-3.27-.04-.83-.19-1.49-.45-1.98s-.64-.87-1.16-1.11c-.52-.24-1.25-.45-2.21-.62v-1.68l7.39-.29h1.94v22.69c0,1.82.08,3.08.25,3.79.17.71.49,1.25.97,1.62.48.37,1.25.69,2.33.97v1.55h-12.44v-1.55ZM204.26,2.63v6.16h-5.84V2.63h5.84Z"/>
      <path class="cls-1" d="M209.87,16.66c1.06-.17,1.92-.46,2.57-.89.66-.42,1.17-.97,1.54-1.63.37-.67.66-1.5.87-2.51.21-1,.43-2.47.67-4.4h4.51v7.84h10.25v3.21h-10.25v14.12c0,2.05.08,3.69.25,4.9.17,1.22.49,2.17.95,2.86.46.69.99,1.18,1.59,1.48.59.3,1.35.45,2.29.45.85,0,1.64-.17,2.38-.52.74-.35,1.47-.85,2.19-1.51l1.43,1.71c-1.5,1.46-2.93,2.52-4.27,3.17-1.34.66-2.74.98-4.17.98-2.73,0-4.76-.81-6.09-2.43-1.33-1.62-2-4.15-2-7.6v-17.62h-4.7v-1.62Z"/>
      <path class="cls-1" d="M249.14,48.02c-1.16,2.62-2.3,4.75-3.4,6.38-1.1,1.63-2.31,2.86-3.63,3.68-1.32.82-2.89,1.24-4.71,1.24-1.16,0-2.48-.14-3.94-.41v-6.28h2.83c.25.87.57,1.47.95,1.81.38.34.93.51,1.65.51.63,0,1.2-.12,1.7-.37s1.02-.66,1.56-1.25c.54-.59,1.17-1.5,1.9-2.73.73-1.23,1.55-2.78,2.46-4.67l-8.89-23.9c-.57-1.54-1.03-2.62-1.38-3.24-.35-.61-.73-1.08-1.13-1.4-.4-.32-1.02-.57-1.84-.76v-1.55h12.92v1.55c-1,.23-1.69.46-2.1.68-.4.22-.7.51-.89.86-.19.35-.29.8-.29,1.35s.07,1.16.21,1.78c.14.61.35,1.33.65,2.16l5.65,15.9,6.35-15.23c.36-.85.64-1.62.84-2.33.2-.71.3-1.37.3-1.98,0-.91-.25-1.6-.75-2.06-.5-.46-1.36-.84-2.59-1.11v-1.55h11.87v1.55c-.83.17-1.46.43-1.9.78-.44.35-.89.9-1.33,1.65s-.97,1.8-1.59,3.16l-11.49,25.8Z"/>
      <path class="cls-1" d="M277.61,19.32h15v7.74h-15v18.36h-7.74V.96h22.74v7.8h-15v10.56Z"/>
      <path class="cls-1" d="M313.77,8.76v36.66h-7.8V8.76h-9.42V.96h26.64v7.8h-9.42Z"/>
      <path class="cls-1" d="M345.43,14.1c-.06-3.06-2.58-5.64-5.58-5.64-3,.06-5.52,2.64-5.52,5.64v18.3c.06,3.54,2.58,5.52,5.52,5.52,3.06-.06,5.58-2.58,5.58-5.52v-4.5h7.8v4.5c0,7.26-6,13.26-13.38,13.26s-13.26-6-13.26-13.26V14.1c0-7.44,6-13.44,13.26-13.44s13.38,6,13.38,13.44v4.38h-7.8v-4.38Z"/>
    </g>
  </g>
</svg>