<svg width="33" height="33" viewBox="0 0 33 33" fill="none" xmlns="http://www.w3.org/2000/svg">
<g clip-path="url(#clip0_464_86)" filter="url(#filter0_d_464_86)">
<path d="M29 7.0382L21.9618 -3.07649e-07L4 -1.09278e-06L4 17.9618L11.0382 25L29 25L29 7.0382ZM11.6146 23.6111L5.38889 17.3854L5.38889 1.38889L21.3854 1.38889L27.6111 7.61458L27.6111 23.6111L11.6146 23.6111Z" fill="white"/>
<path d="M20.6667 3.125L7.125 3.125L7.125 16.6667C9.15972 18.7014 10.2986 19.8403 12.3333 21.875L25.875 21.875L25.875 8.33333C23.8403 6.29861 22.7014 5.15972 20.6667 3.125Z" fill="white"/>
</g>
<defs>
<filter id="filter0_d_464_86" x="0" y="0" width="33" height="33" filterUnits="userSpaceOnUse" color-interpolation-filters="sRGB">
<feFlood flood-opacity="0" result="BackgroundImageFix"/>
<feColorMatrix in="SourceAlpha" type="matrix" values="0 0 0 0 0 0 0 0 0 0 0 0 0 0 0 0 0 0 127 0" result="hardAlpha"/>
<feOffset dy="4"/>
<feGaussianBlur stdDeviation="2"/>
<feComposite in2="hardAlpha" operator="out"/>
<feColorMatrix type="matrix" values="0 0 0 0 0 0 0 0 0 0 0 0 0 0 0 0 0 0 0.25 0"/>
<feBlend mode="normal" in2="BackgroundImageFix" result="effect1_dropShadow_464_86"/>
<feBlend mode="normal" in="SourceGraphic" in2="effect1_dropShadow_464_86" result="shape"/>
</filter>
<clipPath id="clip0_464_86">
<rect width="25" height="25" fill="white" transform="translate(29) rotate(90)"/>
</clipPath>
</defs>
</svg>
