<?xml version="1.0" encoding="UTF-8"?>
<svg id="Layer_2" data-name="Layer 2" xmlns="http://www.w3.org/2000/svg" viewBox="0 0 255 67.88">
  <defs>
    <style>
      .cls-1 {
        fill: #fff;
        stroke-width: 0px;
      }
    </style>
  </defs>
  <g id="Layer_1-2" data-name="Layer 1">
    <g>
      <path class="cls-1" d="M235.58,0H0v48.46l19.42,19.42h235.58V19.42L235.58,0ZM251.08,63.97H21.04L3.92,46.84V3.92h230.04l17.13,17.13v42.92Z"/>
      <polygon class="cls-1" points="145.61 26.29 143.12 34.25 148.49 34.25 146.05 26.29 145.61 26.29"/>
      <path class="cls-1" d="M7.83,7.83v37.39c5.79,5.79,9.04,9.04,14.83,14.83h224.5V22.67c-5.79-5.79-9.04-9.04-14.83-14.83H7.83ZM54.52,27.43h-7.09v16.46h-6.54v-16.46h-7.11v-5.27h20.74v5.27ZM79.34,43.89h-6.54v-8.42h-8.77v8.42h-6.54v-21.73h6.54v7.94h8.77v-7.94h6.54v21.73ZM101.9,43.89h-18.51v-21.73h18.29v5.17h-11.92v3.11h11.59v4.91h-11.59v3.33h12.14v5.2ZM118.68,43.89l-7.14-21.73h6.8l4.9,16.81h.44l4.9-16.81h6.82l-7.14,21.73h-9.57ZM151.45,43.89l-1.44-4.67h-8.44l-1.46,4.67h-6.68l7.6-21.73h9.59l7.51,21.73h-6.68ZM180.93,34.47c0,3.33-.9,5.85-2.69,7.55-1.8,1.7-4.54,2.55-8.22,2.55s-6.41-.85-8.21-2.55-2.7-4.22-2.7-7.55v-12.31h6.54v12.34c0,1.52.36,2.67,1.09,3.45.73.78,1.82,1.17,3.28,1.17s2.57-.39,3.3-1.17c.73-.78,1.09-1.93,1.09-3.45v-12.34h6.53v12.31ZM202.04,43.89h-17.24v-21.73h6.54v16.39h10.69v5.34ZM221.22,27.43h-7.09v16.46h-6.54v-16.46h-7.11v-5.27h20.74v5.27Z"/>
    </g>
  </g>
</svg>