<?xml version="1.0" encoding="UTF-8"?>
<svg id="Layer_2" data-name="Layer 2" xmlns="http://www.w3.org/2000/svg" viewBox="0 0 407.28 53.77">
  <defs>
    <style>
      .cls-1 {
        fill: #ffd100;
        stroke-width: 0px;
      }
    </style>
  </defs>
  <g id="Layer_1-2" data-name="Layer 1">
    <g>
      <g>
        <path class="cls-1" d="M95.17,21.05c.22.27.47.78.53,1.05l.04.21h1.69l-.03-.16c-.08-.52-.29-1.13-.52-1.55-.55-.96-1.47-1.71-2.48-2.04-.27-.09-.71-.18-.86-.18h-.1v1.66l.26.06c.53.13,1.1.51,1.47.93Z"/>
        <path class="cls-1" d="M76.76,30.69c2.01.01,4.91.03,6.44.01l2.77-.03v-7.76h-12.98l-.06-.32c-.1-.52-.34-1.45-.51-2.03-1.16-3.74-3.13-6.96-5.91-9.61l-.56-.53-.36-.61c-.58-.99-.88-1.49-1.23-2.1-.21-.36-.36-.6-.43-.64-.18-.1-.29-.08-.96.29-.35.18-.66.34-.69.32-.03-.01-.97-.91-2.1-2-1.67-1.61-2.08-1.99-2.17-2-.09-.01-.31.04-.8.18-.38.1-.71.19-.75.19-.06,0-.79-.55-4.23-3.17-.58-.44-1.09-.82-1.13-.84-.22-.12-.48,0-.55.25-.04.13-.04.16.12.47.48.97,2.27,4.65,2.62,5.39l.42.86.03,1.47c.01.91.04,1.48.06,1.49.01.01.23.05.49.1,2.91.51,5.73,1.82,8.01,3.74,3.67,3.08,5.92,7.66,6.09,12.4.03.83,0,1.95-.08,2.61-.22,1.95-.75,3.78-1.6,5.52-.38.78-.65,1.26-1.08,1.92-2.51,3.83-6.43,6.49-10.93,7.41-.35.06-.64.13-.66.14-.01.01-.03.65-.03,1.42v1.4l-.87,1.84c-2.03,4.31-2.27,4.83-2.27,4.89,0,.1.09.27.18.34h0c.12.08.27.06.43-.03.08-.04.64-.48,1.26-.97,1.53-1.21,3.74-2.93,3.88-3.04l.12-.08.65.18c.83.23.9.23,1,.18.05-.03.99-.93,2.09-2.03s2.03-1.99,2.05-2c.03-.01.14.03.27.09.95.49,1.1.57,1.23.55.14-.03.29-.13.35-.27.03-.05.42-.74.86-1.53l.82-1.43.51-.48c1.78-1.67,3.3-3.74,4.44-6.01.86-1.71,1.56-3.7,1.88-5.4.03-.17.08-.4.1-.51.03-.12.05-.23.08-.26.03,0,.78,0,3.7.01Z"/>
        <path class="cls-1" d="M55.65,40.44c.48-.18,1.91-.88,1.97-.96.03-.03-.52-.99-1.78-3.1-1-1.69-2.19-3.71-2.67-4.52-.47-.79-.87-1.45-.87-1.45-.01,0-.12.05-.23.1-.3.16-.88.34-1.26.4-.42.06-1.27.08-1.67,0-.39-.06-.82-.21-1.19-.38-.17-.08-.31-.13-.32-.12s-1.22,2.04-2.67,4.52c-1.74,2.93-2.65,4.51-2.62,4.53.06.08,1.45.75,1.99.96,1.35.53,2.79.88,4.09,1,.22.03.47.04.56.05h0c.35.04,2.34-.01,2.77-.06,1.4-.16,2.64-.47,3.93-.97Z"/>
        <path class="cls-1" d="M24.2,42.55c-1.12-1.29-2.18-2.52-2.38-2.74-.23-.27-.36-.44-.38-.53-.01-.08-.06-.23-.09-.36s-.14-.53-.25-.9l-.19-.66v-6.05H6.98v3.48s.03,3.48.03,3.48h.31c.29.03.32.04.43.14.06.06.17.16.22.21.06.06.87.86,1.8,1.79,1.12,1.1,1.73,1.69,1.79,1.7.19.05.31-.01.73-.4.22-.21.48-.44.56-.52l.16-.13,2.53,1.4c1.97,1.1,2.56,1.4,2.66,1.4.09,0,.29-.09.78-.39.36-.22.68-.39.7-.39s.25.09.51.19c2.27.93,3.66,1.51,4.6,1.91h0c.61.26,1.16.47,1.22.47.34.01.52-.35.32-.64-.06-.06-1.01-1.17-2.13-2.47Z"/>
        <path class="cls-1" d="M76.99,12.86c1.21,1.39,1.43,1.65,1.47,1.73.03.05.16.51.3,1l.26.91v2.91h0v2.91h14.02v-3.19c.03-3.51.03-3.35-.18-3.52-.08-.05-.17-.08-.42-.09h-.31s-1.79-1.78-1.79-1.78c-.99-.97-1.83-1.78-1.87-1.8-.1-.05-.25-.05-.34,0-.04.03-.31.26-.6.53l-.52.49-.12-.06c-.14-.06-2.7-1.48-3.09-1.7-.14-.08-.38-.21-.52-.29s-.51-.27-.8-.45c-.39-.22-.6-.31-.68-.31-.09,0-.3.1-.78.39-.36.22-.69.39-.71.39-.04,0-1-.39-2.14-.86s-2.34-.96-2.65-1.09-.75-.31-.97-.4-.45-.18-.52-.19c-.3-.06-.55.32-.38.6.03.08,1.58,1.88,3.34,3.89Z"/>
        <path class="cls-1" d="M4.22,31.18l-.03-.1h-.83c-.96,0-.87-.05-.78.42.36,1.73,1.74,3.1,3.45,3.45h0c.13.03.29.05.34.05h.1v-1.66l-.23-.06c-1-.25-1.79-1.08-2.03-2.09Z"/>
        <path class="cls-1" d="M13.5,26.8v-3.88h-6.54c-6.37.03-6.54.03-6.69.09-.08.04-.17.12-.21.18-.06.1-.06.25-.06,3.8h0v3.7h13.5v-3.89Z"/>
        <path class="cls-1" d="M99.85,23.19c-.04-.06-.13-.14-.21-.18-.13-.06-.31-.06-6.69-.08h-6.54s0,3.87,0,3.87h0v3.88h13.5v-3.7c0-3.54,0-3.69-.06-3.79Z"/>
        <path class="cls-1" d="M96.56,31.08h-.83l-.03.1c-.22,1.01-1.03,1.84-2.03,2.09l-.23.06v.83c0,.96-.05.87.42.78,1.74-.34,3.13-1.71,3.48-3.45.1-.45.19-.42-.78-.42Z"/>
        <path class="cls-1" d="M79.02,31.3v6.05l-.19.66c-.1.36-.22.77-.25.9s-.08.3-.09.36c-.03.09-.16.27-.38.53-.19.22-1.26,1.45-2.38,2.74s-2.06,2.39-2.12,2.45c-.13.18-.08.48.09.58h0c.05.03.14.05.19.05.06,0,1.04-.39,2.22-.87,1.17-.48,2.49-1.03,2.93-1.22s.88-.36.97-.4.18-.06.21-.06.34.18.7.39c.49.3.69.39.78.39s.68-.31,2.66-1.4l2.53-1.4.16.13c.09.08.34.31.56.52.42.39.53.45.73.4.06-.01.68-.6,1.79-1.7.93-.92,1.74-1.73,1.8-1.79s.17-.16.22-.21c.1-.1.14-.1.43-.13h.31s.01-3.49.01-3.49v-3.48s-6.95,0-6.95,0h-6.96Z"/>
        <path class="cls-1" d="M45.93,46.67v-1.4c0-.77-.01-1.42-.03-1.42-.01-.01-.31-.08-.66-.14-3.34-.68-6.32-2.29-8.74-4.7-1.38-1.38-2.41-2.84-3.28-4.64-.53-1.1-.92-2.16-1.21-3.34-.39-1.58-.53-3.06-.48-4.8.17-4.75,2.41-9.32,6.09-12.4,2.3-1.92,5.1-3.23,8.01-3.74.25-.04.47-.09.49-.1.03-.01.04-.58.06-1.49l.03-1.47.42-.86c.36-.74,2.14-4.41,2.62-5.39.16-.31.16-.34.12-.47-.08-.25-.34-.36-.55-.25-.04.03-.55.4-1.13.84-3.44,2.64-4.17,3.17-4.23,3.17-.04,0-.38-.09-.75-.19-.49-.14-.71-.19-.8-.18s-.51.39-2.17,2c-1.13,1.09-2.08,1.99-2.1,2s-.34-.14-.69-.32c-.68-.36-.78-.39-.96-.29-.06.04-.22.26-.43.64-.35.61-.66,1.12-1.23,2.1l-.36.61-.56.53c-2.78,2.65-4.75,5.87-5.91,9.61-.17.57-.42,1.51-.51,2.03l-.06.32h-12.98v7.74l2.77.03c1.52.01,4.41.01,6.44-.01,2.92-.03,3.67-.03,3.7.01.03.03.05.14.08.26.03.12.06.35.1.51.03.17.12.56.19.87.99,3.96,3.18,7.75,6.13,10.53l.51.48.82,1.43c.45.79.84,1.48.86,1.53.06.14.21.25.35.27.13.03.29-.05,1.23-.55.13-.06.25-.1.27-.09s.95.92,2.05,2,2.04,2,2.09,2.03c.1.06.17.05,1-.18l.65-.18.12.08c.14.1,2.34,1.83,3.88,3.04.62.49,1.19.92,1.26.97h0c.16.09.31.1.43.03.09-.06.18-.23.18-.34,0-.06-.23-.58-2.27-4.89l-.84-1.82Z"/>
        <path class="cls-1" d="M47.51,22.27s-5.15-9-5.21-9.06c-.08-.08-1.31.74-2.14,1.44-3.22,2.69-5.19,6.67-5.41,10.88l-.03.49h10.54v-.1c0-.4.26-1.29.52-1.79.32-.61.93-1.3,1.48-1.66.14-.09.25-.18.25-.19Z"/>
        <path class="cls-1" d="M50.73,23.12c-.18-.04-.39-.06-.78-.06-.61,0-.9.06-1.39.3-.38.18-.58.31-.88.61-1.64,1.56-1.23,4.25.79,5.27.3.16.66.27.97.32h0c.32.05,1.03.01,1.35-.06,1.52-.39,2.58-1.84,2.47-3.39-.1-1.45-1.12-2.64-2.53-2.99Z"/>
        <path class="cls-1" d="M6.88,22.32h14.02v-5.82l.26-.91c.14-.51.27-.95.3-1,.04-.08.26-.34,1.47-1.73,1.77-2.03,3.31-3.82,3.36-3.89.17-.26-.08-.66-.38-.6-.06.01-.3.1-.52.19s-.66.27-.97.4-1.51.62-2.65,1.09c-1.14.47-2.1.86-2.14.86s-.35-.18-.71-.39c-.48-.29-.69-.39-.78-.39-.08,0-.29.09-.68.31-.31.17-.68.38-.8.45-.14.08-.36.21-.52.29-.39.22-2.95,1.64-3.09,1.7l-.12.06-.52-.49c-.29-.27-.56-.51-.6-.53-.1-.05-.25-.05-.34,0-.04.03-.88.83-1.87,1.8l-1.79,1.77h-.31c-.25.03-.34.05-.42.1-.22.16-.21.01-.19,3.52v3.19Z"/>
        <path class="cls-1" d="M59.94,26.03h5.27l-.03-.49c-.19-3.75-1.78-7.31-4.44-9.98-.86-.87-2-1.75-2.92-2.3l-.17-.09-.05.08c-.14.23-5.17,8.96-5.18,9s.06.1.21.19c.12.08.38.29.56.45.6.57.99,1.18,1.23,1.91.12.36.23.9.23,1.1v.1h5.28v.03h0Z"/>
        <path class="cls-1" d="M4.19,22.32l.04-.21c.05-.27.31-.78.53-1.05.35-.44.93-.8,1.47-.93l.26-.06v-1.66h-.1c-.29,0-.93.18-1.38.39-1.34.64-2.26,1.9-2.49,3.38l-.03.16h1.7Z"/>
      </g>
      <g>
        <path class="cls-1" d="M120.61,24.44h22.46c3,0,4.78-1.12,5.35-3.37.55-2.25-1.04-3.37-4.78-3.37h-21.34l1.68-6.74h22.46c7.49,0,10.39,3.37,8.71,10.11-.94,3.74-2.63,5.99-5.05,6.74,2.07.75,2.63,3,1.68,6.74-1.68,6.74-6.26,10.11-13.75,10.11h-22.46l1.68-6.74h21.34c3.74,0,5.89-1.12,6.45-3.37.57-2.25-.64-3.37-3.64-3.37h-22.46l1.66-6.74Z"/>
        <path class="cls-1" d="M168.47,31.18h-10.02l1.68-6.74h21.34c3.74,0,5.89-1.12,6.45-3.37.57-2.25-1.02-3.37-4.76-3.37h-21.34l1.66-6.74h22.46c7.49,0,10.39,3.37,8.71,10.11s-6.26,10.11-13.75,10.11h-2.09l12.44,13.48h-10.35l-12.44-13.48Z"/>
        <path class="cls-1" d="M201.33,44.66h-6.74l8.4-33.69h6.74l-8.4,33.69Z"/>
        <path class="cls-1" d="M242.53,37.92l-1.68,6.74h-22.46c-7.49,0-10.29-3.74-8.42-11.23l2.79-11.23c1.87-7.49,6.55-11.23,14.04-11.23h22.46l-1.68,6.74h-21.54c-3.61,0-5.86,1.8-6.76,5.39l-2.34,9.41c-.9,3.61.46,5.41,4.09,5.41h21.52Z"/>
        <path class="cls-1" d="M255.78,27.81l22.91-16.85h10.06l-22.91,16.85,14.51,16.85h-10.06l-14.51-16.85Z"/>
        <path class="cls-1" d="M291.2,24.44h22.46c3,0,4.78-1.12,5.35-3.37.55-2.25-1.04-3.37-4.78-3.37h-21.34l1.68-6.74h22.46c7.49,0,10.39,3.37,8.71,10.11-.94,3.74-2.63,5.99-5.05,6.74,2.07.75,2.63,3,1.68,6.74-1.68,6.74-6.26,10.11-13.75,10.11h-22.46l1.68-6.74h21.34c3.74,0,5.89-1.12,6.45-3.37.57-2.25-.64-3.37-3.64-3.37h-22.46l1.66-6.74Z"/>
        <path class="cls-1" d="M348.14,44.66l-11.23.02v-.02c-7.49,0-10.29-3.74-8.42-11.23l2.79-11.23c1.87-7.49,6.55-11.23,14.04-11.23h11.23c7.49,0,10.29,3.74,8.42,11.23l-2.79,11.23c-1.87,7.47-6.55,11.22-14.04,11.23ZM348.7,37.92c3.74,0,6.08-1.87,7.01-5.62l2.25-8.98c.93-3.74-.48-5.62-4.22-5.62h-10.11c-3,0-4.96,1.87-5.88,5.62l-2.25,8.98c-.93,3.74.48,5.62,4.22,5.62h8.98Z"/>
        <path class="cls-1" d="M385.38,17.7h-13.45l1.66-6.74h33.69l-1.68,6.74h-13.48l-6.72,26.95h-6.74l6.72-26.95Z"/>
      </g>
    </g>
  </g>
</svg>