<svg version="1.2" xmlns="http://www.w3.org/2000/svg" viewBox="0 0 293 54" width="293" height="54">
	<title>brick-mobile-logo</title>
	<style>
		.s0 { fill: #ffd100 } 
	</style>
	<g id="Layer_1-2">
		<g>
			<g>
				<path class="s0" d="m-19.8 21.1c0.2 0.2 0.4 0.7 0.5 1v0.2h1.7v-0.1c-0.1-0.6-0.3-1.2-0.5-1.6-0.6-1-1.5-1.7-2.5-2-0.3-0.1-0.7-0.2-0.9-0.2h-0.1v1.6l0.3 0.1c0.5 0.1 1.1 0.5 1.5 0.9z"/>
				<path class="s0" d="m-38.2 30.7c2 0 4.9 0 6.4 0h2.8v-7.8h-13l-0.1-0.3c-0.1-0.5-0.3-1.5-0.5-2q-1.7-5.7-5.9-9.6l-0.6-0.6-0.3-0.6c-0.6-1-0.9-1.5-1.2-2.1-0.3-0.3-0.4-0.6-0.5-0.6-0.2-0.1-0.3-0.1-0.9 0.3-0.4 0.1-0.7 0.3-0.7 0.3-0.1 0-1-0.9-2.1-2-1.7-1.6-2.1-2-2.2-2-0.1 0-0.3 0-0.8 0.2-0.4 0.1-0.7 0.2-0.7 0.2-0.1 0-0.8-0.6-4.3-3.2-0.6-0.5-1.1-0.8-1.1-0.9-0.2-0.1-0.5 0-0.6 0.3 0 0.1 0 0.2 0.2 0.5 0.4 0.9 2.2 4.6 2.6 5.4l0.4 0.8v1.5c0 0.9 0.1 1.5 0.1 1.5 0 0 0.2 0 0.5 0.1 2.9 0.5 5.7 1.8 8 3.7 3.7 3.1 5.9 7.7 6.1 12.4 0 0.8 0 2-0.1 2.6q-0.3 2.9-1.6 5.5c-0.4 0.8-0.6 1.3-1.1 2-2.5 3.8-6.4 6.5-10.9 7.4-0.4 0-0.6 0.1-0.7 0.1 0 0 0 0.7 0 1.4v1.4l-0.9 1.9c-2 4.3-2.2 4.8-2.2 4.9 0 0.1 0.1 0.2 0.2 0.3q0.1 0.1 0.4 0c0.1-0.1 0.6-0.5 1.2-1 1.6-1.2 3.8-2.9 3.9-3l0.1-0.1 0.7 0.2c0.8 0.2 0.9 0.2 1 0.1 0 0 1-0.9 2.1-2 1.1-1.1 2-2 2-2 0.1 0 0.2 0 0.3 0.1 0.9 0.5 1.1 0.6 1.2 0.6 0.2-0.1 0.3-0.2 0.4-0.3 0-0.1 0.4-0.8 0.8-1.5l0.9-1.5 0.5-0.5c1.7-1.6 3.3-3.7 4.4-6 0.9-1.7 1.6-3.7 1.9-5.4 0-0.1 0.1-0.4 0.1-0.5 0-0.1 0-0.2 0.1-0.2 0 0 0.7 0 3.7 0z"/>
				<path class="s0" d="m-59.4 40.4c0.5-0.1 2-0.8 2-0.9 0-0.1-0.5-1-1.8-3.1-1-1.7-2.2-3.7-2.6-4.5-0.5-0.8-0.9-1.5-0.9-1.5 0 0-0.1 0.1-0.2 0.1-0.3 0.2-0.9 0.3-1.3 0.4-0.4 0.1-1.3 0.1-1.7 0-0.4-0.1-0.8-0.2-1.1-0.4-0.2 0-0.4-0.1-0.4-0.1 0 0-1.2 2-2.6 4.5-1.8 3-2.7 4.5-2.7 4.6 0.1 0 1.5 0.7 2 0.9 1.4 0.5 2.8 0.9 4.1 1 0.2 0 0.5 0.1 0.6 0.1 0.3 0 2.3 0 2.8-0.1 1.4-0.2 2.6-0.5 3.9-1z"/>
				<path class="s0" d="m-90.8 42.5c-1.1-1.2-2.2-2.5-2.4-2.7q-0.3-0.4-0.4-0.5c0-0.1 0-0.3-0.1-0.4 0-0.1-0.1-0.5-0.2-0.9l-0.2-0.6v-6.1h-13.9v3.5 3.5h0.3c0.3 0 0.3 0 0.4 0.1 0.1 0.1 0.2 0.2 0.3 0.2 0 0.1 0.8 0.9 1.8 1.8 1.1 1.1 1.7 1.7 1.8 1.7 0.1 0.1 0.3 0 0.7-0.4 0.2-0.2 0.5-0.4 0.5-0.5l0.2-0.1 2.5 1.4c2 1.1 2.6 1.4 2.7 1.4 0.1 0 0.3-0.1 0.8-0.4 0.3-0.3 0.7-0.4 0.7-0.4 0 0 0.2 0.1 0.5 0.2 2.3 0.9 3.6 1.5 4.6 1.9 0.6 0.2 1.2 0.4 1.2 0.4 0.3 0.1 0.5-0.3 0.3-0.6 0-0.1-1-1.2-2.1-2.5z"/>
				<path class="s0" d="m-38 12.9c1.2 1.3 1.4 1.6 1.5 1.7 0 0 0.1 0.5 0.3 1l0.2 0.9v2.9 2.9h14v-3.2c0.1-3.5 0.1-3.3-0.1-3.5-0.1 0-0.2-0.1-0.5-0.1h-0.3l-1.8-1.8c-1-0.9-1.8-1.7-1.8-1.8-0.1 0-0.3 0-0.4 0 0 0.1-0.3 0.3-0.6 0.6l-0.5 0.5-0.1-0.1c-0.2-0.1-2.7-1.5-3.1-1.7-0.1-0.1-0.4-0.2-0.5-0.3-0.2-0.1-0.5-0.3-0.8-0.4-0.4-0.3-0.6-0.3-0.7-0.3-0.1 0-0.3 0.1-0.8 0.3-0.3 0.3-0.7 0.4-0.7 0.4 0 0-1-0.4-2.1-0.8-1.2-0.5-2.4-1-2.7-1.1-0.3-0.1-0.7-0.3-1-0.4-0.2-0.1-0.4-0.2-0.5-0.2-0.3-0.1-0.5 0.3-0.4 0.6 0.1 0.1 1.6 1.9 3.4 3.9z"/>
				<path class="s0" d="m-110.8 31.2v-0.1h-0.8c-1 0-0.9-0.1-0.8 0.4 0.3 1.7 1.7 3.1 3.4 3.5 0.2 0 0.3 0 0.4 0h0.1v-1.7h-0.3c-1-0.3-1.7-1.1-2-2.1z"/>
				<path class="s0" d="m-101.5 26.8v-3.9h-6.5c-6.4 0.1-6.6 0.1-6.7 0.1-0.1 0-0.2 0.1-0.2 0.2-0.1 0.1-0.1 0.2-0.1 3.8v3.7h13.5z"/>
				<path class="s0" d="m-15.2 23.2c0-0.1-0.1-0.1-0.2-0.2-0.1 0-0.3 0-6.6-0.1h-6.6v3.9 3.9h13.5v-3.7c0-3.6 0-3.7-0.1-3.8z"/>
				<path class="s0" d="m-18.4 31.1h-0.9v0.1c-0.2 1-1 1.8-2 2.1h-0.3v0.9c0 0.9 0 0.8 0.5 0.7 1.7-0.3 3.1-1.7 3.4-3.4 0.1-0.5 0.2-0.4-0.7-0.4z"/>
				<path class="s0" d="m-36 31.3v6.1l-0.2 0.6c-0.1 0.4-0.2 0.8-0.2 0.9-0.1 0.1-0.1 0.3-0.1 0.4q-0.1 0.1-0.4 0.5c-0.2 0.2-1.3 1.4-2.4 2.7-1.1 1.3-2 2.4-2.1 2.5-0.1 0.2-0.1 0.5 0.1 0.6 0.1 0 0.1 0 0.2 0 0.1 0 1-0.4 2.2-0.9 1.2-0.4 2.5-1 2.9-1.2 0.5-0.2 0.9-0.3 1-0.4q0.2 0 0.2 0c0 0 0.4 0.1 0.7 0.4 0.5 0.3 0.7 0.4 0.8 0.4 0.1 0 0.7-0.4 2.7-1.4l2.5-1.4 0.1 0.1c0.1 0.1 0.4 0.3 0.6 0.5 0.4 0.4 0.5 0.5 0.7 0.4 0.1 0 0.7-0.6 1.8-1.7 1-0.9 1.8-1.7 1.8-1.8 0.1 0 0.2-0.1 0.3-0.2 0-0.1 0.1-0.1 0.4-0.1h0.3v-3.5-3.5h-6.9-7z"/>
				<path class="s0" d="m-69.1 46.7v-1.4c0-0.8 0-1.5 0-1.5 0 0-0.3 0-0.7-0.1-3.3-0.7-6.3-2.3-8.7-4.7-1.4-1.4-2.4-2.8-3.3-4.6-0.5-1.1-0.9-2.2-1.2-3.4-0.4-1.6-0.5-3-0.5-4.8 0.2-4.7 2.4-9.3 6.1-12.4 2.3-1.9 5.1-3.2 8-3.7 0.3-0.1 0.5-0.1 0.5-0.1 0 0 0.1-0.6 0.1-1.5v-1.5l0.4-0.8c0.4-0.8 2.2-4.4 2.6-5.4 0.2-0.3 0.2-0.4 0.2-0.5-0.1-0.2-0.4-0.4-0.6-0.2 0 0-0.5 0.4-1.1 0.8-3.5 2.6-4.2 3.2-4.2 3.2-0.1 0-0.4-0.1-0.8-0.2-0.5-0.2-0.7-0.2-0.8-0.2-0.1 0-0.5 0.4-2.2 2-1.1 1.1-2 2-2.1 2 0 0-0.3-0.1-0.7-0.3-0.6-0.4-0.7-0.4-0.9-0.3q-0.1 0.1-0.4 0.6c-0.4 0.6-0.7 1.1-1.3 2.1l-0.3 0.6-0.6 0.6q-4.2 4-5.9 9.6c-0.2 0.5-0.4 1.5-0.5 2l-0.1 0.3h-13v7.8h2.8c1.5 0 4.4 0 6.5 0 2.9 0 3.6 0 3.7 0 0 0 0 0.1 0 0.3 0.1 0.1 0.1 0.3 0.1 0.5 0.1 0.1 0.2 0.5 0.2 0.8 1 4 3.2 7.8 6.2 10.6l0.5 0.4 0.8 1.5c0.4 0.8 0.8 1.5 0.8 1.5 0.1 0.1 0.3 0.3 0.4 0.3 0.1 0 0.3-0.1 1.2-0.6 0.2 0 0.3-0.1 0.3-0.1 0 0 0.9 1 2 2 1.1 1.1 2.1 2 2.1 2.1 0.1 0 0.2 0 1-0.2l0.7-0.2 0.1 0.1c0.1 0.1 2.3 1.8 3.9 3 0.6 0.5 1.2 0.9 1.2 1q0.3 0.1 0.5 0c0.1 0 0.2-0.2 0.2-0.3 0-0.1-0.3-0.6-2.3-4.9l-0.9-1.8z"/>
				<path class="s0" d="m-67.5 22.3c0 0-5.1-9-5.2-9.1-0.1-0.1-1.3 0.7-2.1 1.4-3.3 2.7-5.2 6.7-5.4 10.9l-0.1 0.5h10.6v-0.1c0-0.4 0.2-1.3 0.5-1.8 0.3-0.6 0.9-1.3 1.5-1.6 0.1-0.1 0.2-0.2 0.2-0.2z"/>
				<path class="s0" d="m-64.3 23.1c-0.2 0-0.4 0-0.8 0-0.6 0-0.9 0-1.3 0.3-0.4 0.1-0.6 0.3-0.9 0.6-1.7 1.5-1.3 4.2 0.8 5.2 0.3 0.2 0.6 0.3 0.9 0.4 0.4 0 1.1 0 1.4-0.1 1.5-0.4 2.6-1.8 2.5-3.4-0.1-1.4-1.2-2.6-2.6-3z"/>
				<path class="s0" d="m-108.1 22.3h14v-5.8l0.3-0.9c0.1-0.5 0.2-1 0.3-1 0-0.1 0.2-0.4 1.4-1.7 1.8-2.1 3.3-3.9 3.4-3.9 0.2-0.3-0.1-0.7-0.4-0.6-0.1 0-0.3 0.1-0.5 0.2-0.2 0-0.7 0.2-1 0.4-0.3 0.1-1.5 0.6-2.6 1-1.2 0.5-2.1 0.9-2.2 0.9 0 0-0.3-0.2-0.7-0.4-0.5-0.3-0.7-0.4-0.8-0.4 0 0-0.3 0.1-0.6 0.3-0.3 0.2-0.7 0.4-0.8 0.5-0.2 0.1-0.4 0.2-0.6 0.3-0.4 0.2-2.9 1.6-3.1 1.7h-0.1l-0.5-0.5c-0.3-0.2-0.6-0.5-0.6-0.5-0.1 0-0.2 0-0.3 0-0.1 0-0.9 0.8-1.9 1.8l-1.8 1.8h-0.3c-0.3 0-0.3 0-0.4 0.1-0.2 0.1-0.2 0-0.2 3.5v3.2z"/>
				<path class="s0" d="m-55.1 26h5.3v-0.5c-0.2-3.7-1.8-7.3-4.5-9.9-0.8-0.9-2-1.8-2.9-2.3l-0.2-0.1v0.1c-0.1 0.2-5.2 8.9-5.2 8.9q0 0.1 0.2 0.2c0.1 0.1 0.4 0.3 0.6 0.5 0.6 0.6 1 1.2 1.2 1.9 0.1 0.4 0.2 0.9 0.2 1.1v0.1h5.3z"/>
				<path class="s0" d="m-110.8 22.3v-0.2c0.1-0.3 0.3-0.8 0.6-1 0.3-0.5 0.9-0.8 1.4-1h0.3v-1.7h-0.1c-0.3 0-0.9 0.2-1.4 0.4-1.3 0.6-2.3 1.9-2.5 3.4v0.1h1.7z"/>
			</g>
			<g>
				<path class="s0" d="m5.6 24.4h22.5q4.5 0 5.3-3.3 0.8-3.4-4.8-3.4h-21.3l1.7-6.7h22.4q11.3 0 8.8 10.1-1.5 5.6-5.1 6.7 3.1 1.1 1.7 6.8-2.5 10.1-13.8 10.1h-22.4l1.7-6.8h21.3q5.6 0 6.4-3.3 0.9-3.4-3.6-3.4h-22.5l1.7-6.8z"/>
				<path class="s0" d="m53.5 31.2h-10.1l1.7-6.8h21.4q5.6 0 6.4-3.3 0.9-3.4-4.7-3.4h-21.4l1.7-6.7h22.4q11.3 0 8.8 10.1-2.6 10.1-13.8 10.1h-2.1l12.5 13.5h-10.4c0 0-12.4-13.5-12.4-13.5z"/>
				<path class="s0" d="m86.3 44.7h-6.7l8.4-33.7h6.7z"/>
				<path class="s0" d="m127.5 37.9l-1.7 6.8h-22.4q-11.2 0-8.4-11.3l2.8-11.2q2.8-11.2 14-11.2h22.5l-1.7 6.7h-21.6q-5.4 0-6.7 5.4l-2.4 9.4q-1.3 5.4 4.1 5.4h21.6z"/>
				<path class="s0" d="m140.8 27.8l22.9-16.8h10l-22.9 16.8 14.5 16.9h-10z"/>
				<path class="s0" d="m176.2 24.4h22.5q4.5 0 5.3-3.3 0.8-3.4-4.8-3.4h-21.3l1.7-6.7h22.4q11.3 0 8.7 10.1-1.4 5.6-5 6.7 3.1 1.1 1.7 6.8-2.5 10.1-13.8 10.1h-22.4l1.6-6.8h21.4q5.6 0 6.4-3.3 0.9-3.4-3.6-3.4h-22.5c0 0 1.7-6.8 1.7-6.8z"/>
				<path class="s0" d="m233.1 44.7h-11.2q-11.2 0-8.4-11.3l2.8-11.2q2.8-11.2 14-11.2h11.3q11.2 0 8.4 11.2l-2.8 11.2q-2.8 11.2-14.1 11.3zm0.6-6.8q5.6 0 7-5.6l2.3-9q1.4-5.6-4.3-5.6h-10.1q-4.5 0-5.9 5.6l-2.2 9q-1.4 5.6 4.2 5.6z"/>
				<path class="s0" d="m270.4 17.7h-13.5l1.7-6.7h33.7l-1.7 6.7h-13.5l-6.7 26.9-6.7 0.1z"/>
			</g>
		</g>
	</g>
</svg>