<svg width="492" height="38" viewBox="0 0 492 38" fill="none" xmlns="http://www.w3.org/2000/svg">
<path d="M20.7016 37.9075C14.01 37.9075 8.94081 36.3125 5.49414 33.1225C2.04747 29.9142 0.324141 25.4133 0.324141 19.62V19.0975C0.324141 13.3775 2.01997 8.9225 5.41164 5.7325C8.82164 2.5425 13.8083 0.947497 20.3716 0.947497C22.48 0.947497 24.3958 1.1125 26.1191 1.4425C27.8608 1.7725 29.41 2.20333 30.7666 2.735C32.1416 3.24833 33.315 3.78917 34.2866 4.3575L34.8366 9.8575C33.1316 8.83083 31.1241 7.9325 28.8141 7.1625C26.5225 6.3925 23.8275 6.0075 20.7291 6.0075C16.1458 6.0075 12.6625 7.15333 10.2791 9.445C7.89581 11.7367 6.70414 14.945 6.70414 19.07V19.5925C6.70414 23.7542 7.90497 26.9992 10.3066 29.3275C12.7266 31.6375 16.3658 32.7925 21.2241 32.7925C24.1391 32.7925 26.7608 32.4167 29.0891 31.665C31.4358 30.895 33.4708 29.9967 35.1941 28.97L34.6716 34.47C33.7 35.0383 32.5266 35.5883 31.1516 36.12C29.7766 36.6333 28.2183 37.055 26.4766 37.385C24.735 37.7333 22.81 37.9075 20.7016 37.9075ZM66.2124 37.9075C59.7041 37.9075 54.7083 36.3217 51.2249 33.15C47.7416 29.96 45.9999 25.4592 45.9999 19.6475V19.18C45.9999 13.3683 47.7416 8.87667 51.2249 5.705C54.7083 2.53333 59.7041 0.947497 66.2124 0.947497C72.7391 0.947497 77.7349 2.53333 81.1999 5.705C84.6833 8.87667 86.4249 13.3683 86.4249 19.18V19.6475C86.4249 25.4592 84.6833 29.96 81.1999 33.15C77.7349 36.3217 72.7391 37.9075 66.2124 37.9075ZM66.2124 32.875C70.7774 32.875 74.2241 31.7108 76.5524 29.3825C78.8808 27.0358 80.0449 23.8 80.0449 19.675V19.1525C80.0449 15.0458 78.8808 11.8283 76.5524 9.5C74.2241 7.15333 70.7774 5.98 66.2124 5.98C61.6291 5.98 58.1733 7.15333 55.8449 9.5C53.5349 11.8283 52.3799 15.0458 52.3799 19.1525V19.675C52.3799 23.8 53.5349 27.0358 55.8449 29.3825C58.1733 31.7108 61.6291 32.875 66.2124 32.875ZM98.79 37L101.21 1.855H110.175L121.643 26.8525H122.083L133.605 1.855H142.543L144.963 37H138.885L137.95 21.765L137.18 8.015H136.493L125.08 32.6825H118.7L107.233 8.015H106.518L105.775 21.7375L104.868 37H98.79ZM165.849 37H159.717V1.855H165.849V37ZM190.535 1.855L211.462 31.005H211.957L211.737 17.0625V1.855H217.842V37H209.262L188.005 7.355H187.51L187.73 22.425V37H181.597V1.855H190.535ZM250.279 37.9075C246.374 37.9075 243.019 37.2017 240.214 35.79C237.409 34.36 235.254 32.2975 233.751 29.6025C232.248 26.9075 231.496 23.635 231.496 19.785V19.29C231.496 13.515 233.274 9.01416 236.831 5.7875C240.406 2.56083 245.659 0.947497 252.589 0.947497C254.954 0.947497 257.108 1.12166 259.051 1.47C261.013 1.81833 262.764 2.2675 264.304 2.8175C265.862 3.34916 267.219 3.92666 268.374 4.55L268.979 9.885C266.98 8.85833 264.689 7.96 262.104 7.19C259.537 6.42 256.558 6.035 253.166 6.035C248.088 6.035 244.265 7.18083 241.699 9.4725C239.15 11.7458 237.876 14.9908 237.876 19.2075V19.73C237.876 23.8733 239.086 27.1 241.506 29.41C243.926 31.7017 247.474 32.8475 252.149 32.8475C254.312 32.8475 256.2 32.5542 257.814 31.9675C259.427 31.3808 260.765 30.6108 261.829 29.6575C262.892 28.6858 263.671 27.6317 264.166 26.495V20.17L264.936 22.1775L252.259 22.2325V17.3375H270.024V30.235H264.029C263.625 31.5733 262.892 32.8292 261.829 34.0025C260.784 35.1758 259.317 36.12 257.429 36.835C255.559 37.55 253.175 37.9075 250.279 37.9075ZM264.304 29.1625H270.024V37H264.056L264.304 29.1625ZM320.774 37.7975C318.317 37.7975 316.053 37.605 313.981 37.22C311.928 36.8533 310.095 36.395 308.481 35.845C306.868 35.295 305.502 34.7633 304.384 34.25L303.724 28.3375C305.741 29.4008 308.225 30.3725 311.176 31.2525C314.146 32.1325 317.346 32.5725 320.774 32.5725C324.477 32.5725 327.191 32.1325 328.914 31.2525C330.637 30.3542 331.499 28.9792 331.499 27.1275V27.0725C331.499 25.8075 331.151 24.8083 330.454 24.075C329.776 23.3233 328.584 22.7458 326.879 22.3425C325.174 21.9392 322.809 21.6183 319.784 21.38C315.842 21.0683 312.698 20.5367 310.351 19.785C308.005 19.015 306.318 17.9333 305.291 16.54C304.265 15.1283 303.751 13.3133 303.751 11.095V10.985C303.751 7.75833 305.044 5.30166 307.629 3.615C310.232 1.92833 314.211 1.085 319.564 1.085C323.249 1.085 326.393 1.415 328.996 2.075C331.6 2.735 333.726 3.45 335.376 4.22L336.064 9.61C334.066 8.62 331.71 7.78583 328.996 7.1075C326.301 6.42917 323.331 6.09 320.086 6.09C317.593 6.09 315.613 6.29167 314.146 6.695C312.698 7.08 311.662 7.63916 311.039 8.3725C310.416 9.0875 310.104 9.95833 310.104 10.985V11.0125C310.104 12.0575 310.397 12.9375 310.984 13.6525C311.571 14.3492 312.689 14.9267 314.339 15.385C315.989 15.825 318.418 16.1917 321.626 16.485C325.476 16.815 328.593 17.3283 330.976 18.025C333.378 18.7033 335.129 19.7483 336.229 21.16C337.329 22.5533 337.879 24.4875 337.879 26.9625V27.1C337.879 30.7483 336.458 33.4433 333.616 35.185C330.775 36.9267 326.494 37.7975 320.774 37.7975ZM369.507 37.9075C362.999 37.9075 358.003 36.3217 354.52 33.15C351.037 29.96 349.295 25.4592 349.295 19.6475V19.18C349.295 13.3683 351.037 8.87667 354.52 5.705C358.003 2.53333 362.999 0.947497 369.507 0.947497C376.034 0.947497 381.03 2.53333 384.495 5.705C387.978 8.87667 389.72 13.3683 389.72 19.18V19.6475C389.72 25.4592 387.978 29.96 384.495 33.15C381.03 36.3217 376.034 37.9075 369.507 37.9075ZM369.507 32.875C374.072 32.875 377.519 31.7108 379.847 29.3825C382.176 27.0358 383.34 23.8 383.34 19.675V19.1525C383.34 15.0458 382.176 11.8283 379.847 9.5C377.519 7.15333 374.072 5.98 369.507 5.98C364.924 5.98 361.468 7.15333 359.14 9.5C356.83 11.8283 355.675 15.0458 355.675 19.1525V19.675C355.675 23.8 356.83 27.0358 359.14 29.3825C361.468 31.7108 364.924 32.875 369.507 32.875ZM421.575 37.9075C415.066 37.9075 410.071 36.3217 406.587 33.15C403.104 29.96 401.362 25.4592 401.362 19.6475V19.18C401.362 13.3683 403.104 8.87667 406.587 5.705C410.071 2.53333 415.066 0.947497 421.575 0.947497C428.101 0.947497 433.097 2.53333 436.562 5.705C440.046 8.87667 441.787 13.3683 441.787 19.18V19.6475C441.787 25.4592 440.046 29.96 436.562 33.15C433.097 36.3217 428.101 37.9075 421.575 37.9075ZM421.575 32.875C426.14 32.875 429.586 31.7108 431.915 29.3825C434.243 27.0358 435.407 23.8 435.407 19.675V19.1525C435.407 15.0458 434.243 11.8283 431.915 9.5C429.586 7.15333 426.14 5.98 421.575 5.98C416.991 5.98 413.536 7.15333 411.207 9.5C408.897 11.8283 407.742 15.0458 407.742 19.1525V19.675C407.742 23.8 408.897 27.0358 411.207 29.3825C413.536 31.7108 416.991 32.875 421.575 32.875ZM464.375 1.855L485.302 31.005H485.797L485.577 17.0625V1.855H491.682V37H483.102L461.845 7.355H461.35L461.57 22.425V37H455.437V1.855H464.375Z" fill="white"/>
</svg>
