<?xml version="1.0" encoding="UTF-8"?>
<svg id="Layer_2" data-name="Layer 2" xmlns="http://www.w3.org/2000/svg" viewBox="0 0 641.21 50.84">
  <defs>
    <style>
      .cls-1, .cls-2, .cls-3, .cls-4, .cls-5, .cls-6, .cls-7, .cls-8, .cls-9, .cls-10 {
        stroke-width: 0px;
      }

      .cls-1, .cls-7 {
        fill: #fefefe;
      }

      .cls-2 {
        fill: #e41d37;
      }

      .cls-3 {
        fill: #1d488c;
      }

      .cls-3, .cls-5, .cls-7, .cls-8 {
        fill-rule: evenodd;
      }

      .cls-4 {
        fill: #2b2a29;
      }

      .cls-5 {
        fill: #e31e24;
      }

      .cls-11 {
        fill: none;
        stroke: #fefefe;
        stroke-miterlimit: 2.61;
        stroke-width: .75px;
      }

      .cls-6 {
        fill: #fff;
      }

      .cls-8 {
        fill: #a09c9b;
      }

      .cls-9 {
        fill: #ebecec;
      }

      .cls-10 {
        fill: #1c1b17;
      }
    </style>
  </defs>
  <g id="Layer_1-2" data-name="Layer 1">
    <rect class="cls-6" x="526.69" y=".32" width="1.75" height="49.33"/>
    <path class="cls-7" d="M438.02,26.55c.16.16.28.47.28.69v7.73c0,.22-.18.4-.4.4h-3.18c-.22,0-.4-.18-.4-.4v-11.72c0-.22.13-.27.28-.12l3.41,3.41Z"/>
    <path class="cls-7" d="M448.96,25.85c-.16-.16-.28-.46-.28-.69v-8.18c0-.22.18-.4.4-.4h3.18c.22,0,.4.18.4.4v12.16c0,.22-.13.27-.28.12l-3.41-3.41Z"/>
    <path class="cls-7" d="M439.98,18.6h0c-3.33,1.05-4.06,4.06-4.06,4.06l-1.63-1.6s-.68-.93-.09-1.68c.45-.83,1.32-1.92,2.81-2.64.48-.23,1.26.17,1.26.17l1.71,1.68ZM452.63,34.64h0l-1.15-4.51-11.09-11.08c-3.33,1.05-4.06,4.06-4.06,4.06l11.08,11.08,4.51,1.15c.52.13.84-.18.71-.71ZM450.69,34.24l-3.14-.72s.56-2.44,3.25-3.25l.72,3.12s-.61.39-.83.85Z"/>
    <path class="cls-7" d="M471.6,33.85h0c.12.34.19.62.22.82.03.2,0,.35-.12.45-.11.1-.29.16-.56.19-.27.02-.64.04-1.11.04s-.87,0-1.14-.02c-.27-.01-.48-.04-.62-.09-.14-.04-.24-.1-.3-.18-.06-.08-.11-.18-.14-.3l-1.25-3.73h-6.98l-1.18,3.63c-.04.13-.09.25-.15.34-.06.09-.16.16-.3.22-.14.05-.33.09-.59.11-.25.02-.59.03-1,.03-.44,0-.79-.01-1.03-.04-.25-.03-.42-.1-.52-.21-.1-.11-.13-.27-.1-.47.03-.2.1-.47.22-.8l5.73-16.49c.06-.16.12-.29.2-.39.08-.1.2-.18.37-.23.17-.05.4-.08.7-.1.3-.01.69-.02,1.18-.02.57,0,1.02,0,1.35.02.34.02.6.05.78.1.19.05.32.13.4.24.08.11.15.25.21.43l5.74,16.48ZM463.07,20.22h-.01l-2.63,7.9h5.27l-2.63-7.9Z"/>
    <path class="cls-7" d="M485.26,18.22h0c0,.28-.01.51-.04.71-.02.2-.06.35-.11.47-.05.12-.11.21-.18.27-.07.06-.15.09-.24.09h-4.65v14.98c0,.1-.03.18-.09.26-.06.08-.17.14-.31.19-.14.05-.34.09-.58.12-.24.03-.55.04-.91.04s-.67-.01-.91-.04c-.24-.03-.44-.07-.58-.12-.14-.05-.25-.11-.31-.19-.06-.08-.09-.16-.09-.26v-14.98h-4.65c-.1,0-.18-.03-.24-.09-.07-.06-.12-.15-.17-.27-.05-.12-.08-.28-.11-.47-.02-.2-.04-.43-.04-.71s.01-.53.04-.73c.02-.2.06-.36.11-.48.05-.12.11-.21.17-.26.07-.05.15-.08.24-.08h13.1c.09,0,.17.03.24.08.07.05.13.14.18.26.05.12.08.28.11.48.02.2.04.44.04.73M476.34,37.02c.03-.11.08-.2.16-.28.08-.08.19-.15.34-.2.15-.05.34-.08.59-.1.24-.02.56-.03.94-.03s.68.02.9.06c.22.04.38.09.48.16.1.07.15.16.14.27,0,.11-.04.23-.11.36l-1.41,2.73c-.05.1-.11.18-.17.24-.07.06-.16.12-.28.16-.12.04-.28.07-.47.09-.2.01-.45.02-.75.02s-.55-.01-.72-.04c-.18-.02-.31-.07-.39-.13-.08-.06-.12-.14-.12-.24s.02-.21.06-.34l.82-2.73Z"/>
    <path class="cls-7" d="M492.72,34.74c0,.1-.03.18-.09.26-.06.08-.16.14-.31.19-.14.05-.34.09-.58.12-.24.03-.55.04-.92.04s-.67-.01-.91-.04c-.24-.03-.44-.07-.58-.12-.14-.05-.25-.11-.31-.19-.06-.08-.09-.16-.09-.26v-17.55c0-.1.03-.18.09-.26.06-.08.17-.14.32-.19.15-.05.34-.09.58-.11.24-.03.54-.04.9-.04s.68.01.92.04c.24.03.43.07.58.11.14.05.25.11.31.19.06.08.09.16.09.26v17.55Z"/>
    <path class="cls-7" d="M509.26,33.78c0,.28-.01.51-.04.7-.02.19-.06.34-.11.45-.05.12-.11.2-.18.25-.07.05-.15.08-.24.08h-9.34c-.32,0-.58-.09-.8-.28-.21-.19-.32-.49-.32-.91v-16.2c0-.42.11-.73.32-.91.22-.19.48-.28.8-.28h9.28c.09,0,.16.02.23.07.07.05.12.13.17.25.05.12.08.27.11.46.02.19.04.42.04.71,0,.27-.01.49-.04.68-.02.19-.06.34-.11.45-.05.12-.11.2-.17.25-.07.05-.14.08-.23.08h-6.64v4.54h5.62c.09,0,.16.03.24.08.07.05.13.13.18.24.05.11.08.26.11.45.02.19.04.41.04.68s-.01.51-.04.69c-.02.18-.06.33-.11.44-.05.11-.11.19-.18.24-.07.05-.15.07-.24.07h-5.62v5.24h6.69c.09,0,.17.03.24.08.07.05.13.14.18.25.05.12.08.27.11.45.02.19.04.42.04.7"/>
    <path class="cls-7" d="M438.11,44.23h0c0,.31-.05.59-.16.85-.1.26-.25.48-.45.66-.19.18-.43.33-.71.43-.28.1-.62.15-1.01.15h-.86v2.54s0,.04-.01.06c-.01.02-.03.03-.05.04-.02.01-.06.02-.09.02-.04,0-.09.01-.15.01s-.11,0-.15-.01c-.04,0-.07-.01-.1-.02-.02-.01-.04-.02-.05-.04-.01-.02-.01-.04-.01-.06v-6.21c0-.12.03-.21.1-.25.06-.05.13-.07.19-.07h1.34c.13,0,.26,0,.39.02.13.01.27.04.44.08.17.04.34.11.52.22.17.11.32.24.45.4.12.16.22.33.28.53.07.2.1.42.1.66M437.46,44.28c0-.29-.06-.53-.17-.73-.11-.2-.25-.35-.41-.45-.16-.1-.33-.16-.51-.18-.18-.03-.34-.04-.5-.04h-.94v2.88h.9c.29,0,.53-.04.72-.11.19-.07.36-.18.49-.31.13-.13.23-.29.3-.47.07-.18.1-.38.1-.6Z"/>
    <path class="cls-7" d="M444.8,48.85h0s0,.05-.01.06c0,.02-.03.03-.05.04-.02.01-.06.02-.1.03-.04,0-.1,0-.16,0-.06,0-.11,0-.14,0-.04,0-.07-.01-.1-.03-.03-.01-.05-.04-.07-.06-.02-.02-.03-.06-.05-.1l-.62-1.61c-.07-.18-.15-.35-.23-.51-.08-.16-.18-.3-.3-.42-.12-.12-.26-.21-.42-.28-.16-.07-.36-.1-.59-.1h-.68v2.99s0,.04-.02.06c-.01.02-.03.03-.05.04-.02.01-.05.02-.09.03-.04,0-.09,0-.15,0-.06,0-.11,0-.15,0-.04,0-.07-.01-.1-.03-.02,0-.04-.02-.05-.04-.01-.02-.02-.04-.02-.06v-6.21c0-.12.03-.21.1-.26.06-.05.13-.07.19-.07h1.24c.16,0,.3,0,.41.01.11,0,.21.02.29.03.25.05.47.12.66.22.19.1.34.22.47.37.12.15.21.31.27.49.06.18.09.38.09.59s-.03.42-.09.59c-.06.17-.15.32-.26.46-.11.13-.25.25-.4.34-.16.1-.33.18-.52.24.11.05.21.11.3.19.09.08.17.17.25.27.08.11.15.23.22.37.07.14.14.29.2.46l.62,1.55c.04.12.07.2.09.25.01.04.02.08.02.1M443.7,44.1c0-.28-.06-.52-.19-.72-.13-.2-.34-.34-.63-.42-.1-.03-.21-.05-.32-.06-.12-.01-.27-.02-.45-.02h-.82v2.44h.95c.25,0,.47-.03.66-.09.18-.06.34-.15.46-.26.12-.11.21-.24.27-.39.06-.15.08-.31.08-.48Z"/>
    <path class="cls-7" d="M447.9,48.86s0,.04-.01.06c-.01.02-.03.03-.05.04-.02.01-.06.02-.1.03-.04,0-.09,0-.15,0-.06,0-.11,0-.15,0-.04,0-.07-.01-.1-.03-.02,0-.04-.02-.05-.04,0-.02-.02-.04-.02-.06v-6.43s0-.04.02-.06c.01-.02.03-.03.06-.04.03,0,.06-.02.1-.03.04,0,.09-.01.14-.01.06,0,.11,0,.15.01.04,0,.07.02.1.03.02.01.04.03.05.04.01.02.01.04.01.06v6.43Z"/>
    <path class="cls-7" d="M455.62,48.66c0,.06,0,.11-.03.15-.02.04-.04.07-.07.1-.03.03-.06.04-.1.06-.04,0-.07.01-.1.01h-.13c-.07,0-.13,0-.19-.02-.06-.02-.11-.05-.16-.09-.05-.04-.11-.1-.16-.17-.05-.07-.11-.16-.18-.28l-2.33-4.15c-.12-.2-.23-.41-.35-.62-.12-.21-.23-.42-.34-.62h0c0,.25,0,.51,0,.77v5.07s0,.04-.01.06c0,.02-.03.03-.05.04-.02.01-.06.02-.1.02-.04,0-.09.01-.15.01-.06,0-.11,0-.15-.01-.04,0-.07-.01-.1-.02-.02-.01-.04-.02-.05-.04,0-.02-.02-.04-.02-.06v-6.21c0-.12.03-.21.1-.25.06-.05.13-.07.19-.07h.26c.08,0,.15,0,.2.02.05.01.1.04.15.07.04.03.09.08.13.14.04.06.09.14.14.23l1.78,3.17c.11.2.22.39.32.57.1.18.2.36.29.54.1.18.19.35.28.52.09.17.19.34.28.52h0c0-.29,0-.59,0-.9v-4.76s0-.04.01-.06c.01-.02.03-.03.05-.04.02-.01.06-.02.09-.03.04,0,.09,0,.15,0,.05,0,.1,0,.14,0,.04,0,.07.01.1.03.02.01.04.03.05.04.01.02.02.04.02.06v6.21Z"/>
    <path class="cls-7" d="M465.54,48.69s0,.08-.01.12c0,.03-.02.06-.03.09-.02.02-.03.04-.05.05-.02.01-.04.02-.07.02h-3.09c-.06,0-.12-.02-.19-.07-.07-.04-.1-.13-.1-.25v-5.99c0-.12.03-.21.1-.25.06-.05.13-.07.19-.07h3.05s.04,0,.07.02c.02.01.04.03.05.05.01.02.02.05.03.09,0,.04,0,.08,0,.13,0,.04,0,.08,0,.12,0,.03-.02.06-.03.08-.01.02-.03.04-.05.05-.02.01-.04.02-.07.02h-2.71v2.33h2.34s.05,0,.07.02c.02,0,.04.03.05.05.01.02.02.05.03.09,0,.04,0,.08,0,.12s0,.08,0,.12c0,.03-.02.06-.03.08-.01.02-.03.04-.05.05-.02.01-.04.02-.07.02h-2.34v2.65h2.76s.05,0,.07.02c.02.01.04.03.05.05.02.02.03.05.03.09,0,.04.01.08.01.13"/>
    <path class="cls-7" d="M473.01,45.55h0c0,.56-.07,1.05-.21,1.47-.14.43-.35.78-.62,1.07-.27.29-.61.5-1.01.65-.4.15-.88.22-1.43.22h-1.3c-.06,0-.12-.02-.19-.07-.06-.05-.1-.13-.1-.25v-5.99c0-.12.03-.21.1-.26.06-.05.13-.07.19-.07h1.39c.56,0,1.04.08,1.42.23.39.15.71.37.97.65.26.28.46.62.59,1.02.13.4.2.84.2,1.32M472.34,45.58c0-.39-.05-.75-.15-1.08-.1-.33-.25-.61-.45-.85-.2-.24-.46-.43-.77-.56-.31-.13-.7-.2-1.18-.2h-1.02v5.52h1.02c.45,0,.83-.06,1.14-.17.31-.11.57-.28.78-.51.21-.23.36-.53.47-.88.1-.35.16-.78.16-1.26Z"/>
    <path class="cls-7" d="M480.28,46.52c0,.4-.06.76-.17,1.08-.11.32-.28.58-.49.8-.21.22-.47.38-.77.49-.3.11-.63.17-1.01.17-.34,0-.65-.05-.93-.16-.28-.11-.53-.26-.73-.47-.21-.21-.37-.46-.48-.77-.11-.31-.17-.66-.17-1.06v-4.17s0-.04.02-.06c.01-.02.03-.03.05-.04.03-.01.06-.02.09-.03.04,0,.09,0,.15,0s.11,0,.15,0c.04,0,.07.02.1.03.02,0,.04.02.05.04,0,.02.02.04.02.06v4.06c0,.33.04.62.12.87.08.25.2.46.35.62.15.17.34.29.55.38.22.08.46.13.73.13s.52-.04.74-.12c.22-.08.4-.2.55-.37.15-.16.26-.37.34-.61.08-.24.12-.53.12-.86v-4.1s0-.04.02-.06c.01-.02.03-.03.05-.04.02-.01.06-.02.1-.03.04,0,.09,0,.15,0s.11,0,.15,0c.04,0,.07.02.1.03.02,0,.04.02.05.04.01.02.02.04.02.06v4.09Z"/>
    <path class="cls-7" d="M487.57,48.06s0,.07,0,.1c0,.03,0,.06-.01.08,0,.02-.02.05-.03.07-.01.02-.03.05-.07.08-.03.03-.1.09-.21.16-.11.07-.25.15-.41.22-.16.07-.36.13-.57.18-.21.05-.45.08-.71.08-.41,0-.79-.07-1.13-.22-.34-.14-.62-.36-.86-.64-.24-.28-.42-.63-.55-1.04-.13-.41-.19-.88-.19-1.41s.07-1.02.2-1.45c.14-.43.33-.79.57-1.09.25-.3.54-.53.89-.69.35-.16.73-.24,1.15-.24.2,0,.39.02.57.06.19.04.36.09.51.14.16.06.3.13.42.2.12.08.21.14.26.18.05.05.07.08.09.1.01.02.02.04.03.07,0,.03.01.06.02.09,0,.03,0,.07,0,.11,0,.05,0,.09,0,.12,0,.04-.01.07-.02.09-.01.03-.03.05-.04.06-.02.01-.04.02-.06.02-.05,0-.12-.04-.2-.11-.09-.07-.2-.15-.34-.23-.14-.09-.31-.16-.52-.23-.2-.07-.45-.11-.73-.11-.31,0-.59.06-.85.19-.26.12-.48.31-.67.55-.19.24-.33.54-.43.9-.1.36-.16.77-.16,1.23s.05.83.14,1.17c.1.34.23.63.41.86.18.23.4.41.67.54.27.12.57.19.9.19.28,0,.52-.04.72-.11.21-.07.38-.15.53-.23.15-.09.27-.16.36-.23.09-.07.17-.11.22-.11.02,0,.04,0,.05.01.01,0,.02.03.03.05,0,.02.01.05.02.09,0,.04,0,.08,0,.14"/>
    <path class="cls-7" d="M494.57,48.75h0c.02.05.03.09.03.13,0,.03-.01.06-.04.07-.02.02-.06.03-.1.03-.05,0-.11,0-.18,0s-.13,0-.17,0c-.04,0-.08-.01-.1-.02-.03-.01-.04-.02-.05-.04-.01-.02-.02-.04-.03-.06l-.63-1.77h-2.9l-.61,1.76s-.02.04-.03.06c-.01.02-.03.03-.06.04-.02.01-.06.02-.1.03-.04,0-.1,0-.16,0-.07,0-.13,0-.18,0-.05,0-.08-.02-.1-.04-.02-.02-.04-.04-.04-.07,0-.03,0-.07.03-.12l2.31-6.32s.03-.05.05-.07c.02-.02.05-.03.08-.04.03-.01.07-.02.12-.02.05,0,.1,0,.16,0,.06,0,.12,0,.16,0,.05,0,.08.01.12.02.03.01.06.03.08.04.02.02.03.04.04.07l2.31,6.32ZM491.83,43h0l-1.25,3.57h2.53l-1.28-3.57Z"/>
    <path class="cls-7" d="M500.01,42.61h0s0,.08-.01.12c0,.03-.02.06-.03.08-.01.02-.03.04-.05.05-.02.01-.04.02-.07.02h-1.97v5.98s0,.04-.02.06c0,.02-.03.03-.05.04-.02,0-.06.02-.1.02-.04,0-.09.01-.15.01s-.11,0-.15-.01c-.04,0-.07-.02-.1-.02-.02-.01-.04-.03-.05-.04-.01-.02-.02-.04-.02-.06v-5.98h-1.97s-.05,0-.07-.02c-.02-.01-.03-.03-.05-.05-.01-.02-.02-.05-.03-.08,0-.03,0-.07,0-.12,0-.05,0-.09,0-.13,0-.04.02-.07.03-.09.01-.03.03-.04.05-.05.02-.01.04-.02.07-.02h4.56s.05,0,.07.02c.02.01.04.03.05.05.01.02.02.05.03.09,0,.04.01.08.01.13M497.23,49.64c.02-.07.06-.12.11-.14.05-.02.14-.03.27-.03s.21.02.23.06c.02.04.02.09,0,.15l-.48,1.01c-.03.06-.07.11-.12.12-.05.02-.12.03-.22.03-.09,0-.15-.01-.16-.04-.01-.03,0-.08.01-.15l.36-1.01Z"/>
    <path class="cls-7" d="M502.73,48.86s0,.04-.02.06c-.01.02-.03.03-.05.04-.02.01-.06.02-.1.03-.04,0-.09,0-.15,0-.06,0-.11,0-.15,0-.04,0-.07-.01-.1-.03-.02,0-.04-.02-.05-.04,0-.02-.02-.04-.02-.06v-6.43s0-.04.02-.06c.01-.02.03-.03.06-.04.03,0,.06-.02.1-.03.04,0,.09-.01.14-.01.06,0,.11,0,.15.01.04,0,.07.02.1.03.02.01.04.03.05.04,0,.02.02.04.02.06v6.43Z"/>
    <path class="cls-7" d="M509.24,48.69s0,.08,0,.12c0,.03-.02.06-.03.09-.02.02-.03.04-.05.05-.02.01-.04.02-.07.02h-3.09c-.06,0-.12-.02-.19-.07-.06-.04-.1-.13-.1-.25v-5.99c0-.12.03-.21.1-.25.06-.05.13-.07.19-.07h3.05s.05,0,.07.02c.02.01.04.03.05.05.01.02.02.05.03.09,0,.04,0,.08,0,.13,0,.04,0,.08,0,.12,0,.03-.02.06-.03.08-.01.02-.03.04-.05.05-.02.01-.04.02-.07.02h-2.71v2.33h2.34s.05,0,.07.02c.02,0,.04.03.05.05.01.02.02.05.03.09,0,.04,0,.08,0,.12s0,.08,0,.12c0,.03-.02.06-.03.08-.01.02-.03.04-.05.05-.02.01-.04.02-.07.02h-2.34v2.65h2.76s.05,0,.07.02c.02.01.04.03.05.05.02.02.03.05.03.09,0,.04,0,.08,0,.13"/>
    <path class="cls-7" d="M474.13,38.86h-39.6c-.12,0-.22-.1-.22-.22s.1-.22.22-.22h39.6c.12,0,.22.1.22.22s-.1.22-.22.22"/>
    <path class="cls-7" d="M509.03,38.86h-27.92c-.12,0-.22-.1-.22-.22s.1-.22.22-.22h27.92c.12,0,.22.1.22.22s-.1.22-.22.22"/>
    <path class="cls-7" d="M436.01,2.45h0c.71,0,1.22.51,1.22,1.26s-.51,1.26-1.22,1.26-1.22-.51-1.22-1.26.51-1.26,1.22-1.26M436.01,1.72c-1.18,0-2.02.84-2.02,1.99s.83,1.99,2.02,1.99,2.02-.84,2.02-1.99-.84-1.99-2.02-1.99Z"/>
    <path class="cls-7" d="M443.82,2.49h0c.41,0,.63.15.63.47s-.22.48-.63.48h-.84v-.95h.84ZM442.21,1.78v3.84h.77v-1.53h.22l1.12,1.53h.93l-1.18-1.54c.74-.07,1.18-.5,1.18-1.14,0-.74-.49-1.17-1.41-1.17h-1.62Z"/>
    <path class="cls-7" d="M451.26,1.72c-1.18,0-2.03.83-2.03,1.99,0,1.24.94,1.99,2.01,1.99s1.88-.82,1.88-1.98c0-.07,0-.14-.01-.22h-1.77v.64h.98c-.1.54-.47.85-1.09.85-.66,0-1.2-.49-1.2-1.27s.51-1.26,1.21-1.26c.39,0,.71.15.93.4l.55-.54c-.34-.37-.85-.59-1.46-.59"/>
    <path class="cls-7" d="M458.69,2.54h0l.55,1.49h-1.11l.56-1.49ZM459.17,1.78h-.93l-1.49,3.85h.8l.34-.89h1.64l.33.89h.82l-1.5-3.85Z"/>
    <polygon class="cls-7" points="468.08 1.78 467.31 1.78 467.31 4.35 465.36 1.78 464.64 1.78 464.64 5.63 465.41 5.63 465.41 3.06 467.36 5.63 468.08 5.63 468.08 1.78"/>
    <rect class="cls-1" x="472.44" y="1.78" width=".77" height="3.85"/>
    <polygon class="cls-7" points="480.4 1.78 477.39 1.78 477.39 2.49 479.38 2.49 477.39 5.03 477.39 5.63 480.4 5.63 480.4 4.92 478.4 4.92 480.4 2.38 480.4 1.78"/>
    <path class="cls-7" d="M486.16,2.54h0l.55,1.49h-1.11l.56-1.49ZM486.63,1.78h-.93l-1.49,3.85h.8l.34-.89h1.64l.33.89h.82l-1.5-3.85Z"/>
    <polygon class="cls-7" points="494.57 1.78 491.42 1.78 491.42 2.5 492.61 2.5 492.61 5.63 493.38 5.63 493.38 2.5 494.57 2.5 494.57 1.78"/>
    <path class="cls-7" d="M500.3,2.45h0c.71,0,1.22.51,1.22,1.26s-.51,1.26-1.22,1.26-1.22-.51-1.22-1.26.51-1.26,1.22-1.26M500.3,1.72c-1.18,0-2.02.84-2.02,1.99s.83,1.99,2.02,1.99,2.02-.84,2.02-1.99-.84-1.99-2.02-1.99Z"/>
    <path class="cls-7" d="M508.1,2.49h0c.41,0,.63.15.63.47s-.22.48-.63.48h-.84v-.95h.84ZM506.49,1.78v3.84h.77v-1.53h.22l1.12,1.53h.93l-1.18-1.54c.74-.07,1.18-.5,1.18-1.14,0-.74-.49-1.17-1.41-1.17h-1.62Z"/>
    <path class="cls-1" d="M547.97,2.49c.42,0,.63.17.63.52s-.22.51-.63.51h-.79v-1.03h.79ZM547.99,4.22c.91,0,1.39-.48,1.39-1.21s-.49-1.22-1.4-1.22h-1.56v3.83h.76v-1.4h.8Z"/>
    <path class="cls-1" d="M553.2,2.54l.55,1.48h-1.11l.55-1.48ZM553.67,1.79h-.93l-1.49,3.83h.8l.33-.89h1.63l.33.89h.82l-1.49-3.83Z"/>
    <path class="cls-1" d="M559.19,2.49c.4,0,.63.15.63.46s-.22.48-.63.48h-.84v-.94h.84ZM557.58,1.79v3.83h.76v-1.52h.22l1.11,1.52h.92l-1.18-1.53c.74-.07,1.17-.5,1.17-1.13,0-.73-.49-1.17-1.4-1.17h-1.62Z"/>
    <polygon class="cls-1" points="566.01 1.79 562.88 1.79 562.88 2.5 564.06 2.5 564.06 5.62 564.83 5.62 564.83 2.5 566.01 2.5 566.01 1.79"/>
    <polygon class="cls-1" points="571.32 4.92 569.23 4.92 569.23 4.04 571.21 4.04 571.21 3.34 569.23 3.34 569.23 2.49 571.3 2.49 571.3 1.79 568.46 1.79 568.46 5.62 571.32 5.62 571.32 4.92"/>
    <polygon class="cls-1" points="577.46 1.79 576.7 1.79 576.7 4.35 574.75 1.79 574.03 1.79 574.03 5.62 574.8 5.62 574.8 3.06 576.75 5.62 577.46 5.62 577.46 1.79"/>
    <polygon class="cls-1" points="583.12 4.92 581.02 4.92 581.02 4.04 583 4.04 583 3.34 581.02 3.34 581.02 2.49 583.1 2.49 583.1 1.79 580.26 1.79 580.26 5.62 583.12 5.62 583.12 4.92"/>
    <path class="cls-1" d="M587.43,2.49c.4,0,.63.15.63.46s-.22.48-.63.48h-.84v-.94h.84ZM585.83,1.79v3.83h.76v-1.52h.22l1.11,1.52h.92l-1.18-1.53c.74-.07,1.17-.5,1.17-1.13,0-.73-.49-1.17-1.4-1.17h-1.62Z"/>
    <polygon class="cls-1" points="599.57 3.37 597.65 3.37 597.65 2.49 599.7 2.49 599.7 1.79 596.89 1.79 596.89 5.62 597.65 5.62 597.65 4.07 599.57 4.07 599.57 3.37"/>
    <path class="cls-1" d="M604.13,2.45c.71,0,1.21.51,1.21,1.25s-.51,1.25-1.21,1.25-1.21-.51-1.21-1.25.51-1.25,1.21-1.25M604.13,1.72c-1.18,0-2.01.84-2.01,1.99s.83,1.99,2.01,1.99,2.01-.84,2.01-1.99-.83-1.99-2.01-1.99Z"/>
    <polygon class="cls-1" points="612.18 1.79 611.42 1.79 611.42 4.35 609.47 1.79 608.75 1.79 608.75 5.62 609.52 5.62 609.52 3.06 611.46 5.62 612.18 5.62 612.18 1.79"/>
    <path class="cls-1" d="M616.55,2.5c.81,0,1.2.5,1.2,1.2s-.39,1.2-1.2,1.2h-.81v-2.4h.81ZM614.97,1.79v3.83h1.58c1.2,0,1.99-.76,1.99-1.92s-.79-1.92-1.99-1.92h-1.58Z"/>
    <path class="cls-1" d="M622.55,2.54l.55,1.48h-1.11l.55-1.48ZM623.03,1.79h-.93l-1.49,3.83h.8l.33-.89h1.63l.33.89h.82l-1.49-3.83Z"/>
    <polygon class="cls-1" points="629.39 1.79 626.25 1.79 626.25 2.5 627.44 2.5 627.44 5.62 628.2 5.62 628.2 2.5 629.39 2.5 629.39 1.79"/>
    <path class="cls-1" d="M633.56,2.45c.71,0,1.21.51,1.21,1.25s-.51,1.25-1.21,1.25-1.21-.51-1.21-1.25.51-1.25,1.21-1.25M633.56,1.72c-1.18,0-2.01.84-2.01,1.99s.83,1.99,2.01,1.99,2.01-.84,2.01-1.99-.83-1.99-2.01-1.99Z"/>
    <path class="cls-1" d="M639.78,2.49c.4,0,.63.15.63.46s-.22.48-.63.48h-.84v-.94h.84ZM638.18,1.79v3.83h.76v-1.52h.22l1.11,1.52h.92l-1.18-1.53c.74-.07,1.17-.5,1.17-1.13,0-.73-.49-1.17-1.4-1.17h-1.62Z"/>
    <path class="cls-1" d="M589.82,25.35c1.24.64,1.96,1.83,1.96,3.18,0,2.33-1.69,4.14-4.93,4.14h-9.35v-14.12h9.3c2.6,0,4.48,1.58,4.48,3.97,0,1.22-.53,2.11-1.45,2.82M586.94,24.37c1.19,0,1.73-.83,1.73-1.71,0-.98-.62-1.77-1.88-1.77h-6.7v3.48h6.85ZM589.06,28.53c0-1.19-.62-1.83-1.96-1.83h-7.02v3.63h6.7c1.56,0,2.28-.68,2.28-1.81Z"/>
    <path class="cls-1" d="M601.88,27.48h-4.22v5.19h-2.62v-14.12h9.07c3.01,0,4.88,1.84,4.88,4.5s-1.82,4.03-4.05,4.35l4.2,5.27h-3.28l-3.99-5.19ZM603.84,25.13c1.64,0,2.56-.85,2.56-2.07,0-1.34-.81-2.17-2.28-2.17h-6.46v4.24h6.17Z"/>
    <path class="cls-1" d="M619.16,18.56c4.44,0,7.34,2.81,7.34,7.04,0,3.91-3.09,7.08-6.95,7.08h-7.79v-14.12h7.4ZM619.16,30.3c3.07,0,4.63-2.01,4.63-4.71s-1.56-4.67-4.63-4.67h-4.78v9.37h4.78Z"/>
    <rect class="cls-1" x="546.29" y="13.54" width="24.36" height="24.36"/>
    <rect class="cls-2" x="546.87" y="14.12" width="23.2" height="11.83"/>
    <rect class="cls-4" x="546.87" y="25.72" width="23.2" height="11.6"/>
    <rect class="cls-1" x="550.92" y="25.01" width="15.09" height="1.41"/>
    <path class="cls-1" d="M551.15,47.28v.12c0,.65-.19,1.18-.57,1.59-.38.41-.89.61-1.53.61-.57,0-1.05-.18-1.44-.53-.45-.41-.68-.95-.68-1.61s.23-1.18.68-1.6c.39-.36.89-.54,1.48-.54.71,0,1.3.31,1.77.93l-.59.37c-.33-.39-.73-.59-1.22-.59-.43,0-.78.13-1.05.4-.28.27-.42.61-.42,1.02s.14.77.4,1.03c.27.27.62.4,1.07.4.66,0,1.1-.3,1.31-.9h-1.45v-.72h2.24Z"/>
    <path class="cls-1" d="M555.85,49.48h-.72l-.84-1.48h-1.6v1.48h-.63v-4.03h2.6c.34,0,.61.12.82.35.2.23.3.54.3.93,0,.67-.27,1.07-.8,1.22l.87,1.53ZM554.56,47.29c.38,0,.57-.18.57-.54,0-.39-.2-.58-.61-.58h-1.84v1.12h1.88Z"/>
    <path class="cls-1" d="M560.78,47.46c0,.66-.22,1.19-.67,1.61-.38.35-.87.53-1.44.53s-1.06-.18-1.45-.53c-.45-.41-.68-.95-.68-1.61s.23-1.19.68-1.6c.4-.36.88-.54,1.44-.54s1.04.18,1.44.54c.45.41.68.95.68,1.6M560.13,47.46c0-.41-.14-.76-.41-1.02-.27-.27-.62-.4-1.06-.4s-.79.13-1.06.4c-.27.27-.41.61-.41,1.02s.13.77.4,1.04c.27.26.63.4,1.07.4s.79-.13,1.06-.4c.27-.26.4-.61.4-1.04Z"/>
    <path class="cls-1" d="M565.39,48.16c0,.42-.17.77-.51,1.04-.34.27-.79.4-1.36.4s-1.03-.13-1.37-.4c-.34-.27-.51-.61-.51-1.04v-2.7h.63v2.55c0,.6.42.89,1.25.89s1.24-.3,1.24-.89v-2.55h.62v2.7Z"/>
    <path class="cls-1" d="M569.06,45.46c.34,0,.61.12.82.35.2.23.3.54.3.93,0,.41-.11.72-.32.94-.21.22-.51.33-.91.33h-1.87v1.48h-.63v-4.03h2.6ZM568.96,47.29c.38,0,.57-.18.57-.54,0-.39-.2-.58-.6-.58h-1.84v1.12h1.88Z"/>
    <polygon class="cls-1" points="574.3 49.48 570.84 49.48 570.84 45.46 574.18 45.46 574.18 46.17 571.46 46.17 571.46 47.03 573.36 47.03 573.36 47.75 571.46 47.75 571.46 48.77 574.3 48.77 574.3 49.48"/>
    <path class="cls-1" d="M579.61,46.45c-.42-.27-.88-.41-1.37-.41-.72,0-1.08.16-1.08.48,0,.19.13.31.4.37.37.04.74.08,1.1.12.53.07.91.18,1.13.35.25.19.37.47.37.85,0,.43-.15.77-.46,1-.31.23-.76.35-1.34.35-.83,0-1.49-.24-1.98-.71l.34-.56c.44.39.99.58,1.63.58.36,0,.64-.06.84-.17.2-.11.3-.27.3-.46,0-.21-.12-.36-.37-.45-.13-.05-.35-.08-.63-.1-.45-.03-.72-.05-.82-.06-.4-.05-.69-.16-.88-.32-.19-.16-.28-.41-.28-.72,0-.38.15-.69.45-.91.3-.22.73-.34,1.27-.34.73,0,1.32.2,1.77.59l-.39.51Z"/>
    <path class="cls-1" d="M584.99,47.46c0,.66-.22,1.19-.68,1.61-.38.35-.86.53-1.44.53s-1.06-.18-1.45-.53c-.45-.41-.68-.95-.68-1.61s.23-1.19.68-1.6c.4-.36.88-.54,1.44-.54s1.04.18,1.43.54c.45.41.68.95.68,1.6M584.34,47.46c0-.41-.14-.76-.41-1.02-.27-.27-.63-.4-1.06-.4s-.79.13-1.06.4c-.27.27-.41.61-.41,1.02s.13.77.4,1.04c.27.26.63.4,1.07.4s.8-.13,1.06-.4c.27-.26.4-.61.4-1.04Z"/>
    <path class="cls-1" d="M589.75,46.43l-.58.25c-.34-.43-.79-.64-1.31-.64-.46,0-.82.13-1.1.4-.27.26-.41.61-.41,1.03s.14.78.41,1.04c.27.26.64.39,1.1.39.54,0,.98-.22,1.32-.66l.54.36c-.48.67-1.1,1-1.87,1-.64,0-1.16-.2-1.56-.6-.4-.4-.6-.91-.6-1.53s.23-1.18.68-1.59c.39-.36.87-.54,1.44-.54.8,0,1.44.37,1.93,1.1"/>
    <rect class="cls-1" x="590.64" y="45.46" width=".63" height="4.03"/>
    <polygon class="cls-1" points="595.83 49.48 592.36 49.48 592.36 45.46 595.71 45.46 595.71 46.17 592.99 46.17 592.99 47.03 594.88 47.03 594.88 47.75 592.99 47.75 592.99 48.77 595.83 48.77 595.83 49.48"/>
    <polygon class="cls-1" points="599.93 46.17 598.39 46.17 598.39 49.48 597.76 49.48 597.76 46.17 596.22 46.17 596.22 45.46 599.93 45.46 599.93 46.17"/>
    <polygon class="cls-1" points="604.08 49.48 600.61 49.48 600.61 45.46 603.96 45.46 603.96 46.17 601.24 46.17 601.24 47.03 603.13 47.03 603.13 47.75 601.24 47.75 601.24 48.77 604.08 48.77 604.08 49.48"/>
    <path class="cls-1" d="M610.48,47.28v.12c0,.65-.19,1.18-.57,1.59-.38.41-.89.61-1.53.61-.57,0-1.05-.18-1.44-.53-.45-.41-.68-.95-.68-1.61s.22-1.18.68-1.6c.39-.36.89-.54,1.48-.54.71,0,1.3.31,1.77.93l-.59.37c-.33-.39-.73-.59-1.22-.59-.43,0-.78.13-1.06.4-.28.27-.41.61-.41,1.02s.13.77.4,1.03c.27.27.62.4,1.07.4.66,0,1.1-.3,1.32-.9h-1.45v-.72h2.24Z"/>
    <polygon class="cls-1" points="614.86 49.48 611.39 49.48 611.39 45.46 614.73 45.46 614.73 46.17 612.02 46.17 612.02 47.03 613.91 47.03 613.91 47.75 612.02 47.75 612.02 48.77 614.86 48.77 614.86 49.48"/>
    <polygon class="cls-1" points="619.42 49.48 618.49 49.48 616.3 46.12 616.3 49.48 615.67 49.48 615.67 45.46 616.61 45.46 618.79 48.81 618.79 45.46 619.42 45.46 619.42 49.48"/>
    <polygon class="cls-1" points="623.99 49.48 620.52 49.48 620.52 45.46 623.87 45.46 623.87 46.17 621.15 46.17 621.15 47.03 623.04 47.03 623.04 47.75 621.15 47.75 621.15 48.77 623.99 48.77 623.99 49.48"/>
    <path class="cls-1" d="M628.59,49.48h-.72l-.84-1.48h-1.6v1.48h-.63v-4.03h2.6c.34,0,.61.12.82.35.2.23.3.54.3.93,0,.67-.27,1.07-.8,1.22l.87,1.53ZM627.31,47.29c.38,0,.57-.18.57-.54,0-.39-.2-.58-.61-.58h-1.84v1.12h1.88Z"/>
    <path class="cls-1" d="M633.29,49.48h-.69l-.37-.86h-2.17l-.37.86h-.69l1.75-4.03h.78l1.75,4.03ZM631.91,47.9l-.76-1.78-.77,1.78h1.53Z"/>
    <polygon class="cls-1" points="637.02 49.48 633.91 49.48 633.91 45.46 634.54 45.46 634.54 48.77 637.02 48.77 637.02 49.48"/>
    <polygon class="cls-1" points="641.17 49.48 637.71 49.48 637.71 45.46 641.05 45.46 641.05 46.17 638.33 46.17 638.33 47.03 640.22 47.03 640.22 47.75 638.33 47.75 638.33 48.77 641.17 48.77 641.17 49.48"/>
    <path class="cls-7" d="M108.95,46.72h0c.65,0,1.21-.17,1.21-.93,0-.51-.28-.89-.93-.89h-1.72v1.82h1.45ZM106.81,44.31h2.46c.98,0,1.59.53,1.59,1.37,0,.63-.28,1.15-.91,1.32h0c.61.13.73.58.78,1.09.04.51.02,1.08.31,1.44h-.78c-.2-.21-.09-.77-.19-1.29-.07-.51-.2-.94-.87-.94h-1.7v2.23h-.69v-5.22Z"/>
    <path class="cls-7" d="M115.02,49.07h0c1.27,0,1.81-1.1,1.81-2.15s-.53-2.15-1.81-2.15-1.81,1.1-1.81,2.15.53,2.15,1.81,2.15M115.02,44.19c1.66,0,2.5,1.32,2.5,2.73s-.84,2.73-2.5,2.73-2.5-1.32-2.5-2.73.84-2.73,2.5-2.73Z"/>
    <polygon class="cls-7" points="119.37 44.31 120.32 44.31 121.97 48.7 123.62 44.31 124.57 44.31 124.57 49.53 123.91 49.53 123.91 45.19 123.9 45.19 122.27 49.53 121.67 49.53 120.04 45.19 120.03 45.19 120.03 49.53 119.37 49.53 119.37 44.31"/>
    <path class="cls-7" d="M127.62,47.38h1.77l-.87-2.43h-.01l-.88,2.43ZM128.14,44.31h.77l2.04,5.22h-.77l-.57-1.57h-2.21l-.58,1.57h-.72l2.04-5.22Z"/>
    <polygon class="cls-7" points="132.44 44.31 133.18 44.31 135.93 48.54 135.94 48.54 135.94 44.31 136.6 44.31 136.6 49.53 135.84 49.53 133.11 45.34 133.1 45.34 133.1 49.53 132.44 49.53 132.44 44.31"/>
    <rect class="cls-1" x="138.75" y="44.31" width=".69" height="5.22"/>
    <path class="cls-7" d="M142.54,47.38h1.77l-.87-2.43h-.01l-.88,2.43ZM143.06,44.31h.77l2.04,5.22h-.77l-.57-1.57h-2.21l-.58,1.57h-.72l2.04-5.22Z"/>
    <polygon class="cls-7" points="67.42 18.65 64.17 18.65 64.17 27.1 61.33 27.1 61.33 18.65 58.08 18.65 58.08 16.21 67.42 16.21 67.42 18.65"/>
    <polygon class="cls-7" points="67.75 16.21 76.44 16.21 76.44 18.48 70.59 18.48 70.59 20.39 75.93 20.39 75.93 22.58 70.59 22.58 70.59 24.66 76.59 24.66 76.59 27.1 67.75 27.1 67.75 16.21"/>
    <path class="cls-7" d="M84.52,20.1c-.15-1.1-1.01-1.68-2.2-1.68-1.83,0-2.53,1.62-2.53,3.24s.7,3.24,2.53,3.24c1.33,0,2.09-.76,2.2-2.01h2.84c-.15,2.81-2.21,4.46-4.97,4.46-3.3,0-5.43-2.52-5.43-5.68s2.14-5.68,5.43-5.68c2.35,0,4.9,1.5,4.97,4.12h-2.84Z"/>
    <polygon class="cls-7" points="87.92 16.21 90.76 16.21 90.76 20.17 94.5 20.17 94.5 16.21 97.34 16.21 97.34 27.1 94.5 27.1 94.5 22.62 90.76 22.62 90.76 27.1 87.92 27.1 87.92 16.21"/>
    <path class="cls-7" d="M65.65,33.72c-.15-1.1-1.01-1.68-2.2-1.68-1.83,0-2.53,1.62-2.53,3.24s.7,3.24,2.53,3.24c1.33,0,2.09-.76,2.2-2.01h2.84c-.15,2.81-2.21,4.46-4.97,4.46-3.29,0-5.43-2.52-5.43-5.68s2.14-5.68,5.43-5.68c2.35,0,4.9,1.49,4.97,4.12h-2.84Z"/>
    <polygon class="cls-7" points="69.05 29.83 71.89 29.83 71.89 33.8 75.63 33.8 75.63 29.83 78.46 29.83 78.46 40.73 75.63 40.73 75.63 36.24 71.89 36.24 71.89 40.73 69.05 40.73 69.05 29.83"/>
    <path class="cls-7" d="M82.62,36.67h2.47l-1.21-3.82h-.03l-1.24,3.82ZM82.43,29.83h2.88l4.07,10.9h-2.96l-.67-1.95h-3.8l-.69,1.95h-2.92l4.07-10.9Z"/>
    <polygon class="cls-7" points="89.3 29.83 92.14 29.83 92.14 38.28 97.22 38.28 97.22 40.73 89.3 40.73 89.3 29.83"/>
    <polygon class="cls-7" points="97.71 29.83 100.54 29.83 100.54 38.28 105.63 38.28 105.63 40.73 97.71 40.73 97.71 29.83"/>
    <polygon class="cls-7" points="106.11 29.83 114.8 29.83 114.8 32.1 108.95 32.1 108.95 34.01 114.29 34.01 114.29 36.21 108.95 36.21 108.95 38.28 114.95 38.28 114.95 40.73 106.11 40.73 106.11 29.83"/>
    <polygon class="cls-7" points="115.62 29.83 118.53 29.83 122.32 36.55 122.35 36.55 122.35 29.83 125.02 29.83 125.02 40.73 122.1 40.73 118.32 33.94 118.29 33.94 118.29 40.73 115.62 40.73 115.62 29.83"/>
    <path class="cls-7" d="M136.1,40.73h-1.83l-.17-1.19c-.75,1.05-2.03,1.42-3.04,1.42-3.29,0-5.43-2.52-5.43-5.68s2.14-5.68,5.43-5.68c2.26,0,4.67,1.21,4.93,3.94h-2.84c-.09-.93-1.01-1.5-2.15-1.5-1.83,0-2.53,1.62-2.53,3.24s.7,3.24,2.53,3.24c1.4,0,2.35-.66,2.5-1.65h-1.98v-2.1h4.58v5.96Z"/>
    <polygon class="cls-7" points="137 29.83 145.68 29.83 145.68 32.1 139.84 32.1 139.84 34.01 145.18 34.01 145.18 36.21 139.84 36.21 139.84 38.28 145.83 38.28 145.83 40.73 137 40.73 137 29.83"/>
    <path class="cls-8" d="M24.89,22.19c.91,0,1.8.08,2.64.24l2.01-2.09c-1.4-.49-2.98-.76-4.65-.76-2.83,0-5.41.79-7.31,2.08l1.75,1.66c1.62-.71,3.52-1.12,5.56-1.12"/>
    <path class="cls-7" d="M24.89,19.58c1.67,0,3.24.27,4.65.76l2.18-2.27c-2.04-.8-4.36-1.26-6.83-1.26-3.68,0-7.04,1.01-9.6,2.68l2.29,2.17c1.91-1.29,4.48-2.08,7.31-2.08"/>
    <path class="cls-8" d="M14.4,28.47c.18-.75.52-1.46.99-2.12l-.88-.89c-.17.55-.27,1.12-.27,1.7,0,.45.06.88.16,1.31"/>
    <path class="cls-8" d="M7.9,33.39l-.37,1.91,3.67-1.58c-.23-.49-.28-1.12-.41-1.64l-2.89,1.31Z"/>
    <polygon class="cls-8" points="5.32 12.57 0 41.69 2.52 41.89 7.78 12.35 5.32 12.57"/>
    <path class="cls-5" d="M23.2,29.32v-2.35l-3.86-3.66-1.75-1.66-2.29-2.17-7.53-7.13-5.27,29.54,11.14-4.9c-1.11-.98-1.9-2.03-2.48-3.26l-3.63,1.56.36-1.9,2.35-12.25.2-1.03,1.94,1.95,2.5,2.51,1.07,1.08,4.41,3.8-4.28,1.96c1.11,1.11,2.43,2.09,4.2,2.64l5.34-2.4-2.43-2.33Z"/>
    <path class="cls-8" d="M35.37,28.47c.1-.42.16-.86.16-1.31,0-1.32-.48-2.56-1.31-3.64l-1.27,1.31c1.22,1.01,2.08,2.26,2.42,3.63"/>
    <path class="cls-8" d="M37.75,40.93l-3-2.89c-.48.33-.99.63-1.53.91l4.54,4.35,13.99-14.57-.02-2.36-13.97,14.55Z"/>
    <path class="cls-8" d="M27.56,31.15l-2.47-2.38-1.89-1.81v2.36s2.65,2.56,2.65,2.56l2.54,2.44c.65-.16,1.26-.36,1.85-.61l-2.68-2.57Z"/>
    <polygon class="cls-8" points="37.29 17.97 35.29 20.05 33.1 22.33 31.6 23.89 28.76 26.85 29.95 27.99 32.97 24.85 34.23 23.53 36.55 21.12 37.29 20.35 44.98 27.73 46.17 26.49 37.29 17.97"/>
    <path class="cls-7" d="M36.55,21.12l-2.31,2.41c.83,1.08,1.3,2.32,1.3,3.63,0,.45-.06.88-.16,1.31-.27,1.11-.88,2.13-1.74,3.02-.89.91-2.04,1.67-3.39,2.23-.58.24-1.2.45-1.85.61-1.1.27-2.28.42-3.51.42-1.51,0-2.95-.23-4.25-.63-1.78-.55-3.3-1.44-4.41-2.55-.41-.4-.76-.84-1.05-1.3-.36-.57-.62-1.17-.77-1.8-.1-.42-.16-.86-.16-1.31,0-.59.1-1.16.27-1.7l-2.66-2.69c-.97,1.44-1.52,3.07-1.52,4.79,0,.44.04.88.11,1.31.17,1.04.54,2.03,1.09,2.96.27.47.59.91.94,1.34.93,1.13,2.14,2.12,3.55,2.92,2.45,1.4,5.52,2.23,8.86,2.23,2.33,0,4.54-.41,6.49-1.13.59-.22,1.16-.47,1.71-.74,1.26-.64,2.38-1.42,3.31-2.31,1.57-1.49,2.61-3.3,2.93-5.27.07-.43.11-.86.11-1.31,0-2.41-1.07-4.64-2.89-6.44"/>
    <path class="cls-3" d="M27.55,31.17l2.67,2.56c1.34-.56,2.51-1.32,3.4-2.22l-3.66-3.51-1.19-1.14,2.82-2.94,1.5-1.56,2.2-2.29,1.99-2.07,8.86,8.51-1.19,1.24-7.26,7.56c-.76,1.05-1.76,1.98-2.93,2.78l2.98,2.88,13.99-14.57-14.57-13.99-5.46,5.68-2.18,2.27-2.01,2.09-4.32,4.52,4.35,4.2Z"/>
    <path class="cls-8" d="M15.24,30.34s.07.11.08.13c.21.34.51.65.79.96l4.35-2.01-10-9.31-.27,1.44,7.85,7.77-2.79,1.03Z"/>
    <path class="cls-8" d="M39.44,27.56c0,.44-.04.88-.11,1.31-.32,1.97-1.37,3.78-2.93,5.27-.93.89-2.05,1.67-3.31,2.31-.54.27-1.11.52-1.71.74-1.95.72-4.16,1.13-6.49,1.13-3.33,0-6.41-.83-8.86-2.23-1.41-.8-2.62-1.79-3.55-2.92-.36-.43-.67-.88-.94-1.34-.54-.93-.92-1.92-1.09-2.96-.07-.43-.11-.86-.11-1.31,0-.14.01-.28.02-.41,0,0,0-.02,0-.02-.07.43-.01,2.61-.01,3.05,0,.7.09,1.39.27,2.05.14.52.32,1.02.55,1.51.58,1.23,1.46,2.36,2.57,3.34,2.67,2.36,6.68,3.85,11.16,3.85,3.11,0,5.99-.72,8.35-1.95.54-.28,1.05-.58,1.53-.91,1.17-.8,2.17-1.74,2.93-2.79,1.11-1.52,1.74-3.25,1.74-5.1,0-.39.03-2.23,0-2.97,0-.1,0,.23,0,.35"/>
    <polygon class="cls-7" points="60.45 1.81 68.17 1.81 67.44 4.78 63.74 4.78 63.38 6.34 67.23 6.34 66.56 9.09 62.75 9.09 61.84 13 57.85 13 60.45 1.81"/>
    <polygon class="cls-7" points="69.21 1.81 73.2 1.81 70.6 13 66.62 13 69.21 1.81"/>
    <path class="cls-7" d="M77.19,7.14h0c1.28,0,2.18-.76,2.18-1.83,0-.57-.42-.86-1.24-.86-.24,0-.37.02-.62.07l-.6,2.58c.13.02.15.03.29.03M74.24,1.87l.26-.03c1.28-.15,2.87-.25,3.75-.25,1.46,0,2.6.17,3.46.52,1.1.45,1.75,1.44,1.75,2.64,0,1.02-.35,2-1.01,2.75-.57.65-1.08.97-2.14,1.29l-.26.08c.11.08.15.12.2.17.31.35,1.24,2.17,2.03,3.96h-4.39c-.57-1.59-.73-2.01-1.48-3.83l-.88,3.83h-3.88l2.58-11.13Z"/>
    <polygon class="cls-7" points="92.92 1.81 102.59 1.81 101.91 5.05 99.04 5.05 97.14 13 93.15 13 95.06 5.05 91.95 5.05 92.92 1.81"/>
    <path class="cls-7" d="M98.98,11.94h0c.09,0,.14-.04.14-.12s-.05-.12-.13-.12c-.02,0-.02,0-.04,0v.23s.02,0,.04,0M98.63,11.47h0v.99h.31v-.33c.09.16.12.2.19.33h.36c-.09-.15-.21-.32-.24-.35,0,0,0-.01-.02-.02h.01c.13-.05.19-.14.19-.28,0-.24-.16-.36-.48-.36-.04,0-.08,0-.18.01-.1,0-.1.01-.15.01ZM99,12.82h0c.47,0,.85-.38.85-.85s-.38-.85-.85-.85-.85.38-.85.85.38.85.85.85ZM99,11c.54,0,.97.43.97.97s-.43.97-.97.97-.97-.42-.97-.97.43-.97.97-.97Z"/>
    <path class="cls-7" d="M82.68,12.72c1.12.33,2.35.52,3.49.52,1.55,0,2.74-.35,3.77-1.09,1.13-.81,1.86-2.05,1.86-3.17,0-.76-.33-1.44-.91-1.93-.46-.37-.93-.65-1.9-1.11l-.79-.37c-.26-.13-.38-.27-.38-.42,0-.4.51-.71,1.21-.71.52,0,1.14.15,2.32.54l.82-3.03c-.88-.24-1.75-.36-2.61-.36-3.25,0-5.76,1.78-5.76,4.08,0,1.21.8,2.06,2.82,3,.95.44,1.11.55,1.11.86,0,.45-.49.74-1.3.74-.71,0-1.63-.22-2.87-.67h0s-.87,3.12-.87,3.12Z"/>
    <rect class="cls-1" x="161.13" width="1.75" height="49.33"/>
    <path class="cls-1" d="M202.11,44.72h-.52v1.01h-.52v-2.68h1.04c.55,0,.89.38.89.84s-.33.84-.89.84M202.08,43.51h-.49v.73h.49c.24,0,.39-.15.39-.37s-.15-.37-.39-.37Z"/>
    <path class="cls-1" d="M205.05,45.73l-.52-1.07h-.38v1.07h-.52v-2.68h1.05c.55,0,.87.37.87.82,0,.38-.23.61-.49.7l.6,1.16h-.61ZM204.64,43.51h-.49v.71h.49c.23,0,.38-.15.38-.35s-.15-.35-.38-.35Z"/>
    <polygon class="cls-1" points="206.27 45.73 206.27 43.04 208.04 43.04 208.04 43.51 206.8 43.51 206.8 44.14 207.86 44.14 207.86 44.61 206.8 44.61 206.8 45.26 208.04 45.26 208.04 45.73 206.27 45.73"/>
    <path class="cls-1" d="M209.48,45.75c-.41,0-.72-.09-.98-.35l.34-.34c.17.17.4.23.65.23.31,0,.47-.12.47-.33,0-.09-.03-.17-.08-.23-.05-.05-.11-.08-.24-.09l-.32-.05c-.23-.03-.4-.11-.52-.22-.13-.13-.19-.3-.19-.53,0-.48.35-.81.93-.81.37,0,.64.09.87.31l-.33.33c-.17-.16-.37-.18-.55-.18-.28,0-.41.15-.41.34,0,.07.02.14.08.19.05.05.14.09.25.11l.32.05c.24.03.4.1.51.21.14.14.21.33.21.57,0,.52-.43.81-.99.81"/>
    <polygon class="cls-1" points="211.16 45.73 211.16 43.04 212.93 43.04 212.93 43.51 211.68 43.51 211.68 44.14 212.74 44.14 212.74 44.61 211.68 44.61 211.68 45.26 212.93 45.26 212.93 45.73 211.16 45.73"/>
    <polygon class="cls-1" points="215.21 45.73 214.15 44.08 214.15 45.73 213.63 45.73 213.63 43.04 214.09 43.04 215.16 44.69 215.16 43.04 215.68 43.04 215.68 45.73 215.21 45.73"/>
    <polygon class="cls-1" points="217.52 43.51 217.52 45.73 217 45.73 217 43.51 216.3 43.51 216.3 43.04 218.22 43.04 218.22 43.51 217.52 43.51"/>
    <polygon class="cls-1" points="218.84 45.73 218.84 43.04 220.6 43.04 220.6 43.51 219.36 43.51 219.36 44.14 220.42 44.14 220.42 44.61 219.36 44.61 219.36 45.26 220.6 45.26 220.6 45.73 218.84 45.73"/>
    <path class="cls-1" d="M222.98,45.47c-.18.18-.43.26-.71.26h-.97v-2.68h.97c.28,0,.53.08.71.26.3.3.27.67.27,1.07s.03.79-.27,1.1M222.62,43.68c-.09-.11-.21-.17-.39-.17h-.4v1.75h.4c.18,0,.3-.06.39-.17.1-.12.11-.31.11-.72s-.02-.58-.11-.7Z"/>
    <path class="cls-1" d="M226.16,45.73h-1.12v-2.68h1.08c.52,0,.83.29.83.75,0,.3-.2.49-.33.55.16.08.37.24.37.6,0,.5-.34.77-.82.77M226.08,43.51h-.51v.62h.51c.22,0,.35-.12.35-.31s-.12-.31-.35-.31ZM226.11,44.6h-.55v.66h.55c.24,0,.35-.15.35-.33s-.11-.33-.35-.33Z"/>
    <polygon class="cls-1" points="228.73 44.63 228.73 45.73 228.21 45.73 228.21 44.63 227.41 43.04 227.98 43.04 228.48 44.12 228.97 43.04 229.54 43.04 228.73 44.63"/>
    <path class="cls-1" d="M241.8,37.55c.13-.03.27-.05.4-.07l.64,3.64c-.14.01-.27.04-.41.07l-.64-3.64ZM241.64,41.56c.13-.1.28-.18.43-.25l-1.83-3.2c-.15.08-.29.16-.43.25l1.83,3.19ZM240.6,43.58c0-.14.01-.27.03-.4h-3.65c0,.13-.01.26-.01.39,0,.12,0,.24.01.36h3.64c-.02-.11-.02-.23-.02-.34ZM245.54,43.58c0,1.37-1.11,2.47-2.47,2.47-1.22,0-2.24-.89-2.44-2.06l-3.43,1.26c.08.27.17.53.28.78l3.41-1.25-2.78,2.35c.18.25.37.48.58.7l2.6-2.2-1.7,2.97c.27.19.55.36.85.5l1.59-2.79-.56,3.18c.34.09.69.15,1.05.19l.52-2.97.52,2.97c.38-.03.75-.1,1.1-.2l-.48-2.76,1.39,2.43c.38-.17.74-.39,1.08-.63l-1.28-2.22,1.95,1.65c.31-.31.59-.65.83-1.02l-1.74-1.47,2.14.78c.2-.41.35-.85.45-1.3l-1.88-.69h1.99c.03-.23.04-.46.04-.7,0-.27-.02-.54-.05-.8h-3.72c.09.26.14.53.14.82ZM240.66,43.02c.05-.22.13-.43.23-.62l-3.44-1.26c-.09.2-.16.41-.23.62l3.43,1.26ZM247.67,39.52l-2.8,2.36c.07.07.13.15.19.23l2.8-2.36c-.06-.08-.13-.16-.19-.23ZM246.28,38.33c-.1-.06-.2-.12-.3-.18l-1.83,3.19c.11.05.21.11.3.17l1.83-3.19ZM241.39,41.76l-2.8-2.37c-.13.14-.25.29-.37.44l2.8,2.37c.11-.16.24-.31.38-.44ZM243.32,41.11c.12.01.25.03.37.06l.64-3.64c-.12-.03-.24-.05-.37-.06l-.64,3.64Z"/>
    <path class="cls-1" d="M252.01,46.73v-6.31h2.3c.78,0,1.38.19,1.82.57.43.38.65.91.65,1.58,0,.36-.09.68-.26.98-.17.29-.4.53-.67.72l1.55,2.47h-1.84l-1.1-2.03h-.85v2.03h-1.59ZM254.08,41.64h-.48v1.84h.47c.73,0,1.09-.31,1.09-.93s-.36-.91-1.07-.91Z"/>
    <polygon class="cls-1" points="258.87 46.73 258.87 41.77 256.93 41.77 256.93 40.42 262.49 40.42 262.49 41.77 260.56 41.77 260.56 46.73 258.87 46.73"/>
    <polygon class="cls-1" points="262.52 46.73 264.72 43.44 262.67 40.42 264.64 40.42 265.76 42.36 266.86 40.42 268.77 40.42 266.7 43.52 268.89 46.73 266.91 46.73 265.64 44.59 264.43 46.73 262.52 46.73"/>
    <path class="cls-1" d="M189.86,3.07l-2.66,5.54,3.16-.83c-1.09,2.06-10.29,22.11-11.07,24.12,3.4-.2,15.38-2.54,19.85-5.72,4.46-3.13,9.95-8.23,10.42-15.71.27-4.24-1.92-11.98-19.71-7.41M189.19,25c1.55-3.4,6.28-14.52,7.28-16.69,0,0,4.98-1.42,6.24,1.71,1.72,4.31-3.99,12.77-13.52,14.98Z"/>
    <path class="cls-1" d="M269.58,14.07c.17-5.92-7.15-6.41-9.56-6.57h-.06c-2.49-.17-5.44.4-7.63,1.43-.87-.73-2.09-1.1-3.63-1.1-2.71,0-5.4,1.19-7.98,3.54-2.3,2.06-4.02,4.48-5.12,7.19-.32.79-.56,1.57-.73,2.33l-3.8-.95-.11.22c-.24.49-.54.93-.89,1.33-.35.4-.76.77-1.2,1.11-.96.72-1.95,1.08-2.92,1.08-.55,0-1.17-.16-1.17-1.39,0-.92.27-2.01.81-3.26.6-1.41,1.38-2.67,2.31-3.73,1.13-1.27,2.33-1.98,3.54-2.09h.3c.98,0,1.61.39,1.92,1.2l.12.3,5.06-2.26-.03-.23c-.37-2.81-2.09-4.24-5.13-4.24-2.63,0-5.29,1.2-7.89,3.56-2.23,2.06-3.93,4.46-5.05,7.14-.65,1.52-1,3.1-1.05,4.69l-7.52.36,1.28-3.32,3.92-.22,1.73-4.03-3.96.22,1.37-3.56,6.38-.07,2.61-4.43h-13.79l-1.96,4.63,1.6-.03-6.78,16.12s3.81-.37,7.37-.59c3.15-.2,7.58-.25,7.58-.25l.68-1.99c.67,1.35,2.04,1.99,4.17,1.99,1.79,0,3.95-.22,6.29-1.82.98-.69,1.86-1.45,2.63-2.27.5-.53.95-1.1,1.37-1.7-.03.34-.05.68-.05,1.01,0,1.54.38,2.77,1.13,3.67.8.91,1.99,1.38,3.56,1.38,2.5,0,5.05-1.08,7.6-3.21,2.31-1.97,3.99-4.22,5-6.68.55-1.37.83-2.55.83-3.52,0-.49-.07-.98-.2-1.48,1.1-.44,2.83-1.03,4.29-1-.25.48-8.44,15.26-8.49,15.35l-.21.37.42.08c.08.01,1.65.3,4.25.3.55,0,1.15-.01,1.78-.04,5.66-.59,9.23-3.46,11.22-5.76,2.27-2.62,3.73-5.99,3.81-8.79M246.93,15.34l.1.24c.17.39.25.8.25,1.23,0,1.37-.69,2.84-2.04,4.36-1.37,1.58-2.73,2.38-4.04,2.38-.65,0-1.39-.19-1.39-1.71,0-1.68.68-3.52,2.03-5.46,1.41-2.06,2.92-3.16,4.44-3.28h.3c1.1,0,1.76.37,2.02,1.13l-1.67,1.11ZM264.71,15.57c-.39,3.98-5.52,8.02-9.24,8.38.78-1.43,5.39-10.4,5.81-11.15.54.05,2.15.27,2.96,1.2.38.43.53.94.47,1.58Z"/>
    <path class="cls-1" d="M272.89,3.96l-2.32,5.09,3.4-.03-8.68,19.93s4.91.15,9.57.52c3.94.32,7.74.89,7.74.89l1.95-5.12-11.1-.83,2.12-5.02,5.84.32,2.12-4.91-6.3-.3,2.34-5.46h9.32l1.78-5.04-17.77-.05Z"/>
    <polygon class="cls-1" points="285.13 29.01 283.88 29.05 283.88 29.31 284.35 29.3 284.38 30.57 284.7 30.56 284.67 29.29 285.13 29.28 285.13 29.01"/>
    <polygon class="cls-1" points="286.59 28.98 286.19 30.02 286.17 30.02 285.73 29 285.33 29.01 285.37 30.55 285.68 30.54 285.66 29.53 285.67 29.53 286.09 30.52 286.3 30.52 286.67 29.51 286.68 29.51 286.71 30.51 287.02 30.5 286.98 28.97 286.59 28.98"/>
    <path class="cls-1" d="M316.98,20.8c-1.33-.79-2.56-1.13-4.04-1.13-2.25,0-4.21,1.15-4.21,3.35,0,1.91,1.36,2.73,3.22,3.02l.67.11c1.47.23,2.24.5,2.24,1.24,0,.81-.91,1.27-2.07,1.27-1.36,0-2.6-.53-3.37-1.14l-1.1,1.7c1.13.92,2.86,1.39,4.45,1.39,2.27,0,4.33-1.11,4.33-3.44,0-1.84-1.48-2.65-3.37-2.96l-.59-.1c-1.27-.21-2.18-.45-2.18-1.22s.84-1.27,2.02-1.27,2.17.38,3,.9l1-1.72Z"/>
    <polygon class="cls-1" points="328.9 28.49 323.1 28.49 323.1 26.06 328.57 26.06 328.57 24.13 323.1 24.13 323.1 21.77 328.84 21.77 328.84 19.84 320.99 19.84 320.99 30.43 328.9 30.43 328.9 28.49"/>
    <path class="cls-1" d="M337.37,21.93l1.53,4.09h-3.06l1.53-4.09ZM338.68,19.84h-2.57l-4.12,10.59h2.2l.92-2.46h4.51l.92,2.46h2.25l-4.12-10.59Z"/>
    <path class="cls-1" d="M354.17,20.8c-1.33-.79-2.56-1.13-4.04-1.13-2.25,0-4.21,1.15-4.21,3.35,0,1.91,1.36,2.73,3.22,3.02l.67.11c1.47.23,2.24.5,2.24,1.24,0,.81-.91,1.27-2.08,1.27-1.36,0-2.6-.53-3.37-1.14l-1.1,1.7c1.13.92,2.86,1.39,4.45,1.39,2.27,0,4.33-1.11,4.33-3.44,0-1.84-1.48-2.65-3.37-2.96l-.59-.1c-1.27-.21-2.18-.45-2.18-1.22s.84-1.27,2.02-1.27,2.17.38,3,.9l1-1.72Z"/>
    <path class="cls-1" d="M363.19,21.68c1.95,0,3.35,1.41,3.35,3.46s-1.41,3.46-3.35,3.46-3.36-1.41-3.36-3.46,1.41-3.46,3.36-3.46M363.19,19.66c-3.26,0-5.56,2.33-5.56,5.48s2.3,5.48,5.56,5.48,5.56-2.33,5.56-5.48-2.3-5.48-5.56-5.48Z"/>
    <polygon class="cls-1" points="382.07 19.84 379.96 19.84 379.96 26.91 374.58 19.84 372.61 19.84 372.61 30.43 374.72 30.43 374.72 23.36 380.1 30.43 382.07 30.43 382.07 19.84"/>
    <path class="cls-1" d="M390.12,24.03h1.81l-.46,2.15h-1.81l.46-2.15ZM387.14,22.35l-.36,1.69h1.53l-.46,2.15h-1.53l-.36,1.69h1.53l-.54,2.56h1.81l.54-2.56h1.81l-.54,2.56h1.81l.54-2.56h1.53l.36-1.69h-1.53l.46-2.15h1.53l.36-1.69h-1.53l.54-2.51h-1.81l-.54,2.51h-1.81l.54-2.51h-1.81l-.54,2.51h-1.53Z"/>
    <polygon class="cls-1" points="403.29 19.69 398.72 21.53 398.72 23.58 401.25 22.56 401.25 30.43 403.29 30.43 403.29 19.69"/>
    <path class="cls-1" d="M411.83,21.62c1.36,0,2.43,1.21,2.43,3.52s-1.07,3.52-2.43,3.52-2.43-1.21-2.43-3.52,1.08-3.52,2.43-3.52M411.83,19.66c-2.53,0-4.56,2.06-4.56,5.47s2.03,5.47,4.56,5.47,4.56-2.06,4.56-5.47-2.04-5.47-4.56-5.47Z"/>
    <path class="cls-9" d="M316.25,13.94l4.86-1.32-.77,2.42-9.4,2.73,1.18-2.7c.72-1.83,2.33-3.64,4.82-5.43,2.48-1.78,3.81-2.87,3.98-3.27.16-.4.13-.73-.11-.99-.24-.27-.73-.33-1.49-.22-.76.12-1.74,1.06-2.93,2.83l-1.64-2.46c1.24-1.3,2.28-2.12,3.12-2.46.84-.34,1.69-.51,2.55-.51,1.36,0,2.35.4,2.97,1.18.62.79.69,1.73.23,2.83-.42,1.01-1.54,2.15-3.36,3.41-1.82,1.27-3.16,2.58-4.01,3.95"/>
    <path class="cls-9" d="M340.79,13.94l4.86-1.32-.77,2.42-9.4,2.73,1.18-2.7c.72-1.83,2.33-3.64,4.82-5.43,2.48-1.78,3.81-2.87,3.98-3.27.16-.4.13-.73-.11-.99-.24-.27-.73-.33-1.49-.22-.76.12-1.74,1.06-2.93,2.83l-1.64-2.46c1.24-1.3,2.28-2.12,3.12-2.46.84-.34,1.69-.51,2.55-.51,1.36,0,2.35.4,2.97,1.18.62.79.69,1.73.23,2.83-.42,1.01-1.54,2.15-3.36,3.41-1.82,1.27-3.16,2.58-4.01,3.95"/>
    <path class="cls-9" d="M334.73,6.97l1.39-.33c.26.98.1,2.34-.48,4.07-.59,1.73-1.74,3.21-3.45,4.43-1.71,1.22-3.34,1.69-4.9,1.4-1.56-.29-2.54-1.17-2.94-2.64-.4-1.47-.14-3.38.8-5.73.93-2.35,2.28-3.95,4.02-4.82,1.75-.86,3.25-1.15,4.5-.87,1.25.28,2.4,1.19,3.45,2.73l-2.38,1.76ZM333.9,7.18c-.37-1.27-.9-1.98-1.58-2.12-.68-.14-1.5.14-2.44.85-.95.7-1.67,1.7-2.17,2.97-.5,1.28-.69,2.41-.58,3.4.12.98.53,1.55,1.24,1.7.71.15,1.52-.13,2.42-.83.9-.7,1.58-1.63,2.04-2.77.45-1.14.67-2.17.66-3.1l.41-.1Z"/>
    <path class="cls-9" d="M352.33,5.79c-.09.02-.18.03-.27.05l-.54-2.53c1.41-.36,2.69-.58,3.84-.67,1.15-.1,2.99-.2,5.51-.32l-.91,2.61c-2.23.18-3.78.31-4.64.4-.24.6-.47,1.18-.69,1.76,1.96.1,3.25.58,3.87,1.45.62.88.72,2.02.29,3.44-.43,1.42-1.31,2.56-2.63,3.41-1.33.85-2.72,1.29-4.2,1.29-1.42-.05-2.44-.44-3.07-1.18-.63-.74-1.09-1.37-1.37-1.9l2.28-2.02c.19.67.48,1.26.87,1.76.39.51,1.09.76,2.07.76.82,0,1.54-.23,2.16-.68.62-.45,1.03-.97,1.23-1.57.2-.6.12-1.15-.23-1.68-.35-.53-1.28-.77-2.79-.73l-2.24.4c.43-1.34.92-2.69,1.45-4.04"/>
    <path class="cls-9" d="M371.54,46.02l4.86-1.32-.77,2.42-9.4,2.73,1.18-2.7c.72-1.83,2.33-3.64,4.82-5.43,2.48-1.78,3.81-2.87,3.98-3.27.16-.4.13-.73-.11-.99-.24-.27-.73-.33-1.49-.22-.76.12-1.74,1.06-2.93,2.83l-1.64-2.46c1.24-1.3,2.28-2.12,3.12-2.46.84-.34,1.69-.51,2.55-.51,1.36,0,2.35.4,2.97,1.18.62.79.69,1.73.23,2.83-.42,1.01-1.54,2.15-3.36,3.41-1.82,1.27-3.16,2.58-4.01,3.95"/>
    <path class="cls-9" d="M396.09,46.02l4.86-1.32-.77,2.42-9.4,2.73,1.18-2.7c.72-1.83,2.33-3.64,4.82-5.43,2.48-1.78,3.81-2.87,3.98-3.27.16-.4.13-.73-.11-.99-.24-.27-.73-.33-1.49-.22-.76.12-1.74,1.06-2.93,2.83l-1.64-2.46c1.24-1.3,2.28-2.12,3.12-2.46.84-.34,1.69-.51,2.55-.51,1.36,0,2.35.4,2.97,1.18.62.79.69,1.73.23,2.83-.42,1.01-1.54,2.15-3.36,3.41-1.82,1.27-3.16,2.58-4.01,3.95"/>
    <path class="cls-9" d="M390.02,39.05l1.39-.33c.26.98.1,2.34-.48,4.07-.59,1.73-1.74,3.21-3.45,4.43-1.71,1.22-3.34,1.69-4.9,1.4-1.56-.29-2.54-1.17-2.94-2.64-.4-1.47-.14-3.38.8-5.73.93-2.35,2.28-3.95,4.02-4.82,1.75-.86,3.25-1.15,4.5-.87,1.25.28,2.4,1.19,3.45,2.73l-2.38,1.76ZM389.2,39.26c-.37-1.27-.9-1.98-1.58-2.12-.68-.14-1.5.14-2.44.85-.95.7-1.67,1.7-2.17,2.97-.5,1.28-.69,2.41-.58,3.4.12.98.53,1.55,1.24,1.7.71.15,1.52-.13,2.42-.83.9-.7,1.58-1.63,2.04-2.77.45-1.14.67-2.17.66-3.1l.41-.1Z"/>
    <path class="cls-9" d="M407.82,40.2c.53-.24,1.08-.41,1.66-.52,1.49-.3,2.72-.08,3.68.67.96.74,1.37,1.73,1.24,2.95-.14,1.22-.77,2.37-1.92,3.44-1.15,1.07-2.47,1.76-3.95,2.06-1.48.29-2.71.1-3.66-.55-.95-.66-1.4-1.84-1.34-3.53.53-2.4,1.23-4.37,2.1-5.91.87-1.54,2.02-2.7,3.45-3.48,1.42-.78,2.74-1.03,3.95-.74,1.2.28,2.33,1.19,3.38,2.73l-2.68,2.05c-.57-1.41-1.15-2.23-1.76-2.46-.61-.23-1.33,0-2.18.69-.84.69-1.5,1.56-1.97,2.63M409.28,42.37c-.74.15-1.4.44-1.98.89-.57.44-.9.94-.97,1.51s.12.98.6,1.26c.47.27,1.1.33,1.89.18.79-.16,1.44-.47,1.97-.95.53-.48.83-1,.9-1.56.07-.56-.12-.96-.59-1.2-.47-.24-1.07-.28-1.81-.14Z"/>
    <path class="cls-11" d="M314.86,13.54l4.86-1.32-.77,2.42-9.4,2.73,1.18-2.7c.72-1.83,2.33-3.64,4.82-5.43,2.48-1.78,3.81-2.87,3.98-3.27.16-.4.13-.73-.11-.99-.24-.27-.73-.33-1.49-.22-.76.12-1.74,1.06-2.93,2.83l-1.64-2.46c1.24-1.3,2.28-2.12,3.12-2.46.84-.34,1.69-.51,2.55-.51,1.36,0,2.35.4,2.97,1.18.62.79.69,1.73.23,2.83-.42,1.01-1.54,2.15-3.36,3.41-1.82,1.27-3.16,2.58-4.01,3.95Z"/>
    <path class="cls-11" d="M339.41,13.54l4.86-1.32-.77,2.42-9.39,2.73,1.18-2.7c.72-1.83,2.33-3.64,4.82-5.43,2.48-1.78,3.81-2.87,3.98-3.27.16-.4.13-.73-.11-.99-.24-.27-.73-.33-1.49-.22-.76.12-1.74,1.06-2.93,2.83l-1.64-2.46c1.23-1.3,2.28-2.12,3.12-2.46.84-.34,1.69-.51,2.55-.51,1.36,0,2.35.4,2.97,1.18.62.79.69,1.73.23,2.83-.42,1.01-1.54,2.15-3.36,3.41-1.82,1.27-3.16,2.58-4.01,3.95Z"/>
    <path class="cls-11" d="M333.34,6.58l1.39-.33c.26.98.1,2.34-.48,4.07-.59,1.73-1.74,3.21-3.45,4.43-1.71,1.22-3.34,1.69-4.9,1.4-1.56-.29-2.54-1.17-2.94-2.64-.4-1.47-.14-3.38.8-5.73.93-2.35,2.28-3.95,4.02-4.82,1.75-.86,3.25-1.15,4.5-.87,1.25.28,2.4,1.19,3.45,2.73l-2.38,1.76ZM332.52,6.78c-.37-1.27-.9-1.98-1.58-2.12-.68-.14-1.5.14-2.44.85-.95.7-1.67,1.7-2.17,2.97-.5,1.28-.69,2.41-.58,3.4.12.98.53,1.55,1.24,1.7.71.15,1.52-.13,2.42-.83.9-.7,1.58-1.63,2.04-2.77.45-1.14.67-2.17.66-3.1l.41-.1Z"/>
    <path class="cls-11" d="M350.94,5.39c-.09.02-.18.03-.27.05l-.54-2.53c1.41-.36,2.69-.58,3.85-.67,1.15-.1,2.99-.2,5.51-.32l-.91,2.61c-2.23.18-3.78.31-4.64.4-.24.6-.47,1.18-.69,1.76,1.96.1,3.25.58,3.87,1.45.62.88.72,2.02.29,3.44-.43,1.42-1.31,2.56-2.63,3.41-1.33.85-2.72,1.29-4.2,1.29-1.42-.05-2.44-.44-3.07-1.18-.63-.74-1.09-1.37-1.37-1.9l2.28-2.02c.19.67.47,1.26.87,1.76.39.51,1.09.76,2.07.76.82,0,1.54-.23,2.16-.68.62-.45,1.03-.97,1.23-1.57.2-.6.12-1.15-.23-1.68-.35-.53-1.28-.77-2.79-.73l-2.24.4c.43-1.34.92-2.69,1.45-4.04Z"/>
    <path class="cls-11" d="M370.16,45.62l4.86-1.32-.77,2.42-9.4,2.73,1.18-2.7c.72-1.83,2.33-3.64,4.82-5.43,2.48-1.78,3.81-2.87,3.98-3.27.16-.4.13-.73-.11-.99-.24-.27-.73-.33-1.49-.22-.76.12-1.74,1.06-2.93,2.83l-1.64-2.46c1.24-1.3,2.28-2.12,3.12-2.46.84-.34,1.69-.51,2.55-.51,1.36,0,2.35.4,2.97,1.18.62.79.69,1.73.23,2.83-.42,1.01-1.54,2.15-3.36,3.41-1.82,1.27-3.16,2.58-4.01,3.95Z"/>
    <path class="cls-11" d="M394.7,45.62l4.86-1.32-.77,2.42-9.39,2.73,1.18-2.7c.72-1.83,2.33-3.64,4.82-5.43,2.48-1.78,3.81-2.87,3.98-3.27.16-.4.13-.73-.11-.99-.24-.27-.73-.33-1.49-.22-.76.12-1.74,1.06-2.93,2.83l-1.64-2.46c1.23-1.3,2.28-2.12,3.12-2.46.84-.34,1.69-.51,2.55-.51,1.36,0,2.35.4,2.97,1.18.62.79.69,1.73.23,2.83-.42,1.01-1.54,2.15-3.36,3.41-1.82,1.27-3.16,2.58-4.01,3.95Z"/>
    <path class="cls-11" d="M388.64,38.66l1.39-.33c.26.98.1,2.34-.48,4.07-.59,1.73-1.74,3.21-3.45,4.43-1.71,1.22-3.34,1.69-4.9,1.4-1.56-.29-2.54-1.17-2.94-2.64-.4-1.47-.14-3.38.8-5.73.93-2.35,2.28-3.95,4.02-4.82,1.75-.86,3.25-1.15,4.5-.87,1.25.28,2.4,1.19,3.45,2.73l-2.38,1.76ZM387.82,38.86c-.37-1.27-.9-1.98-1.58-2.12-.68-.14-1.5.14-2.44.85-.95.7-1.67,1.7-2.17,2.97-.5,1.28-.69,2.41-.58,3.4.12.98.53,1.55,1.24,1.7.71.15,1.52-.13,2.42-.83.9-.7,1.58-1.63,2.04-2.77.45-1.14.67-2.17.66-3.1l.41-.1Z"/>
    <path class="cls-11" d="M406.44,39.81c.53-.24,1.08-.41,1.66-.52,1.49-.3,2.72-.08,3.68.67.96.74,1.37,1.73,1.24,2.95-.14,1.22-.77,2.37-1.92,3.44-1.15,1.07-2.47,1.76-3.95,2.06-1.48.29-2.71.1-3.66-.55-.95-.66-1.4-1.84-1.34-3.53.53-2.4,1.23-4.37,2.1-5.91.87-1.54,2.02-2.7,3.45-3.48,1.42-.78,2.74-1.03,3.95-.74,1.2.28,2.33,1.19,3.38,2.73l-2.68,2.05c-.57-1.41-1.15-2.23-1.76-2.46-.61-.23-1.33,0-2.18.69-.84.69-1.5,1.56-1.97,2.63ZM407.9,41.98c-.74.15-1.4.44-1.98.89-.57.44-.9.94-.97,1.51-.08.57.12.98.6,1.26.47.27,1.1.33,1.89.18.79-.16,1.44-.47,1.97-.95.53-.48.83-1,.9-1.56.07-.56-.12-.96-.59-1.2-.47-.24-1.07-.28-1.81-.13Z"/>
    <path class="cls-10" d="M314.86,13.54l4.86-1.32-.77,2.42-9.4,2.73,1.18-2.7c.72-1.83,2.33-3.64,4.82-5.43,2.48-1.78,3.81-2.87,3.98-3.27.16-.4.13-.73-.11-.99-.24-.27-.73-.33-1.49-.22-.76.12-1.74,1.06-2.93,2.83l-1.64-2.46c1.24-1.3,2.28-2.12,3.12-2.46.84-.34,1.69-.51,2.55-.51,1.36,0,2.35.4,2.97,1.18.62.79.69,1.73.23,2.83-.42,1.01-1.54,2.15-3.36,3.41-1.82,1.27-3.16,2.58-4.01,3.95"/>
    <path class="cls-10" d="M339.41,13.54l4.86-1.32-.77,2.42-9.39,2.73,1.18-2.7c.72-1.83,2.33-3.64,4.82-5.43,2.48-1.78,3.81-2.87,3.98-3.27.16-.4.13-.73-.11-.99-.24-.27-.73-.33-1.49-.22-.76.12-1.74,1.06-2.93,2.83l-1.64-2.46c1.24-1.3,2.28-2.12,3.12-2.46.84-.34,1.69-.51,2.55-.51,1.36,0,2.35.4,2.97,1.18.62.79.69,1.73.23,2.83-.42,1.01-1.54,2.15-3.36,3.41-1.82,1.27-3.16,2.58-4.01,3.95"/>
    <path class="cls-10" d="M333.34,6.58l1.39-.33c.26.98.1,2.34-.48,4.07-.59,1.73-1.74,3.21-3.45,4.43-1.71,1.22-3.34,1.69-4.9,1.4-1.56-.29-2.54-1.17-2.94-2.64-.4-1.47-.14-3.38.8-5.73.93-2.35,2.28-3.95,4.02-4.82,1.75-.86,3.25-1.15,4.5-.87,1.25.28,2.4,1.19,3.45,2.73l-2.38,1.76ZM332.52,6.78c-.37-1.27-.9-1.98-1.58-2.12-.68-.14-1.5.14-2.44.85-.95.7-1.67,1.7-2.17,2.97-.5,1.28-.69,2.41-.58,3.4.12.98.53,1.55,1.24,1.7.71.15,1.52-.13,2.42-.83.9-.7,1.58-1.63,2.04-2.77.45-1.14.67-2.17.66-3.1l.41-.1Z"/>
    <path class="cls-10" d="M350.94,5.39c-.09.02-.18.03-.27.05l-.54-2.53c1.41-.36,2.69-.58,3.84-.67,1.15-.1,2.99-.2,5.51-.32l-.91,2.61c-2.23.18-3.78.31-4.64.4-.24.6-.47,1.18-.69,1.76,1.96.1,3.25.58,3.87,1.45.62.88.72,2.02.29,3.44-.43,1.42-1.31,2.56-2.63,3.41-1.33.85-2.72,1.29-4.2,1.29-1.42-.05-2.44-.44-3.07-1.18-.63-.74-1.09-1.37-1.37-1.9l2.28-2.02c.19.67.48,1.26.87,1.76.39.51,1.09.76,2.07.76.82,0,1.54-.23,2.16-.68.62-.45,1.03-.97,1.23-1.57.2-.6.12-1.15-.23-1.68-.35-.53-1.28-.77-2.79-.73l-2.24.4c.43-1.34.92-2.69,1.45-4.04"/>
    <path class="cls-10" d="M370.16,45.62l4.86-1.32-.77,2.42-9.4,2.73,1.18-2.7c.72-1.83,2.33-3.64,4.82-5.43,2.48-1.78,3.81-2.87,3.98-3.27.16-.4.13-.73-.11-.99-.24-.27-.73-.33-1.49-.22-.76.12-1.74,1.06-2.93,2.83l-1.64-2.46c1.24-1.3,2.28-2.12,3.12-2.46.84-.34,1.69-.51,2.55-.51,1.36,0,2.35.4,2.97,1.18.62.79.69,1.73.23,2.83-.42,1.01-1.54,2.15-3.36,3.41-1.82,1.27-3.16,2.58-4.01,3.95"/>
    <path class="cls-10" d="M394.7,45.62l4.86-1.32-.77,2.42-9.39,2.73,1.18-2.7c.72-1.83,2.33-3.64,4.82-5.43,2.48-1.78,3.81-2.87,3.98-3.27.16-.4.13-.73-.11-.99-.24-.27-.73-.33-1.49-.22-.76.12-1.74,1.06-2.93,2.83l-1.64-2.46c1.24-1.3,2.28-2.12,3.12-2.46.84-.34,1.69-.51,2.55-.51,1.36,0,2.35.4,2.97,1.18.62.79.69,1.73.23,2.83-.42,1.01-1.54,2.15-3.36,3.41-1.82,1.27-3.16,2.58-4.01,3.95"/>
    <path class="cls-10" d="M388.64,38.66l1.39-.33c.26.98.1,2.34-.48,4.07-.59,1.73-1.74,3.21-3.45,4.43-1.71,1.22-3.34,1.69-4.9,1.4-1.56-.29-2.54-1.17-2.94-2.64-.4-1.47-.14-3.38.8-5.73.93-2.35,2.28-3.95,4.02-4.82,1.75-.86,3.25-1.15,4.5-.87,1.25.28,2.4,1.19,3.45,2.73l-2.38,1.76ZM387.82,38.86c-.37-1.27-.9-1.98-1.58-2.12-.68-.14-1.5.14-2.44.85-.95.7-1.67,1.7-2.17,2.97-.5,1.28-.69,2.41-.58,3.4.12.98.53,1.55,1.24,1.7.71.15,1.52-.13,2.42-.83.9-.7,1.58-1.63,2.04-2.77.45-1.14.67-2.17.66-3.1l.41-.1Z"/>
    <path class="cls-10" d="M406.44,39.81c.53-.24,1.08-.41,1.66-.52,1.49-.3,2.72-.08,3.68.67.96.74,1.37,1.73,1.24,2.95-.14,1.22-.77,2.37-1.92,3.44-1.15,1.07-2.47,1.76-3.95,2.06-1.48.29-2.71.1-3.66-.55-.95-.66-1.4-1.84-1.34-3.53.53-2.4,1.23-4.37,2.1-5.91.87-1.54,2.02-2.7,3.45-3.48,1.42-.78,2.74-1.03,3.95-.74,1.2.28,2.33,1.19,3.38,2.73l-2.68,2.05c-.57-1.41-1.15-2.23-1.76-2.46-.61-.23-1.33,0-2.18.69-.84.69-1.5,1.56-1.97,2.63M407.89,41.98c-.74.15-1.4.44-1.98.89-.57.44-.9.94-.97,1.51-.08.57.12.98.6,1.26.47.27,1.1.33,1.89.18.79-.16,1.44-.47,1.97-.95.53-.48.83-1,.9-1.56.07-.56-.12-.96-.59-1.2-.47-.24-1.07-.28-1.81-.13Z"/>
  </g>
</svg>