<?xml version="1.0" encoding="UTF-8"?>
<svg id="Layer_2" data-name="Layer 2" xmlns="http://www.w3.org/2000/svg" viewBox="0 0 641.51 50.8">
  <defs>
    <style>
      .cls-1, .cls-2, .cls-3, .cls-4 {
        stroke-width: 0px;
      }

      .cls-1, .cls-3 {
        fill: #fefefe;
      }

      .cls-5 {
        fill: none;
        stroke: #fefefe;
        stroke-miterlimit: 2.61;
        stroke-width: .36px;
      }

      .cls-2 {
        fill: #fff;
      }

      .cls-3 {
        fill-rule: evenodd;
      }

      .cls-4 {
        fill: #ebecec;
      }
    </style>
  </defs>
  <g id="Layer_1-2" data-name="Layer 1">
    <rect class="cls-2" x="527.01" y=".3" width="1.8" height="49.3"/>
    <path class="cls-3" d="M438.41,26.5c.2.2.3.5.3.7v7.7c0,.2-.2.4-.4.4h-3.2c-.2,0-.4-.2-.4-.4v-11.7c0-.2.1-.3.3-.1l3.4,3.4h0Z"/>
    <path class="cls-3" d="M449.31,25.8c-.2-.2-.3-.5-.3-.7v-8.2c0-.2.2-.4.4-.4h3.2c.2,0,.4.2.4.4v12.2c0,.2-.1.3-.3.1l-3.4-3.4h0Z"/>
    <path class="cls-3" d="M440.31,18.6h0c-3.3,1.1-4.1,4.1-4.1,4.1l-1.6-1.6s-.7-.9-.1-1.7c.5-.8,1.3-1.9,2.8-2.6.5-.2,1.3.2,1.3.2l1.7,1.6h0ZM453.01,34.6h0l-1.2-4.5-11.1-11.1c-3.3,1.1-4.1,4.1-4.1,4.1l11.1,11.1,4.5,1.1c.6.1.9-.2.8-.7h0ZM451.01,34.2l-3.1-.7s.6-2.4,3.2-3.2l.7,3.1c.1-.1-.6.3-.8.8h0Z"/>
    <path class="cls-3" d="M471.91,33.8h0c.1.3.2.6.2.8s0,.4-.1.4c-.1.1-.3.2-.6.2h-2.2c-.3,0-.5,0-.6-.1-.1,0-.2-.1-.3-.2-.1-.1-.1-.2-.1-.3l-1.2-3.7h-7l-1.2,3.6c0,.1-.1.2-.2.3s-.2.2-.3.2c-.1.1-.3.1-.6.1h-2c-.2,0-.4-.1-.5-.2-.1-.1-.1-.3-.1-.5s.1-.5.2-.8l5.7-16.5c.1-.2.1-.3.2-.4s.2-.2.4-.2.4-.1.7-.1h2.5c.3,0,.6.1.8.1.2.1.3.1.4.2s.2.2.2.4l5.7,16.7h0ZM463.41,20.2h0l-2.7,7.9h5.3l-2.6-7.9h0Z"/>
    <path class="cls-3" d="M485.61,18.2h0v.7c0,.2-.1.4-.1.5s-.1.2-.2.3-.2.1-.2.1h-4.7v15c0,.1,0,.2-.1.3s-.2.1-.3.2-.3.1-.6.1h-1.8c-.2,0-.4-.1-.6-.1-.1-.1-.2-.1-.3-.2s-.1-.2-.1-.3v-15h-4.7c-.1,0-.2,0-.2-.1q-.1-.1-.2-.3c0-.1-.1-.3-.1-.5v-1.4c0-.2.1-.4.1-.5s.1-.2.2-.3c.1-.1.2-.1.2-.1h13.1c.1,0,.2,0,.2.1s.1.1.2.3.1.3.1.5c.1.2.1.4.1.7M476.71,37c0-.1.1-.2.2-.3.1-.1.2-.1.3-.2s.3-.1.6-.1h.9c.3,0,.7,0,.9.1.2,0,.4.1.5.2s.2.2.1.3c0,.1,0,.2-.1.4l-1.4,2.7c0,.1-.1.2-.2.2-.1.1-.2.1-.3.2-.1,0-.3.1-.5.1h-1.5c-.2,0-.3-.1-.4-.1s-.1-.1-.1-.2,0-.2.1-.4l.9-2.9h0Z"/>
    <path class="cls-3" d="M493.11,34.7c0,.1,0,.2-.1.3s-.2.1-.3.2c-.1.1-.3.1-.6.1h-1.8c-.2,0-.4-.1-.6-.1-.1-.1-.2-.1-.3-.2s-.1-.2-.1-.3v-17.6c0-.1,0-.2.1-.3s.2-.1.3-.2.3-.1.6-.1h1.8c.2,0,.4.1.6.1.1.1.2.1.3.2s.1.2.1.3v17.6h0Z"/>
    <path class="cls-3" d="M509.61,33.7v.7c0,.2-.1.3-.1.4s-.1.2-.2.2-.2.1-.2.1h-9.3c-.3,0-.6-.1-.8-.3s-.3-.5-.3-.9v-16.2c0-.4.1-.7.3-.9s.5-.3.8-.3h9.3c.1,0,.2,0,.2.1s.1.1.2.2.1.3.1.5v1.4c0,.2-.1.3-.1.4s-.1.2-.2.2q-.1.1-.2.1h-6.6v4.5h5.6c.1,0,.2,0,.2.1q.1.1.2.2c.1.1.1.3.1.4v1.4c0,.2-.1.3-.1.4s-.1.2-.2.2-.2.1-.2.1h-5.6v5.2h6.7c.1,0,.2,0,.2.1s.1.1.2.2c0,.1.1.3.1.4-.1.6-.1.9-.1,1.1"/>
    <path class="cls-3" d="M438.41,44.2h0c0,.3,0,.6-.2.9-.1.3-.2.5-.5.7-.2.2-.4.3-.7.4s-.6.1-1,.1h-.9v2.6c0,.1,0,0,0,0h-.6v-6.3c0-.1,0-.2.1-.2s.1-.1.2-.1h1.7c.1,0,.3,0,.4.1.2,0,.3.1.5.2s.3.2.5.4c.1.2.2.3.3.5.2.2.3.5.2.7M437.81,44.2c0-.3-.1-.5-.2-.7s-.2-.4-.4-.5-.3-.2-.5-.2h-1.4v2.9h.9c.3,0,.5,0,.7-.1s.4-.2.5-.3.2-.3.3-.5.1-.4.1-.6h0Z"/>
    <path class="cls-3" d="M445.11,48.8h0s0,.1,0,0q0,.1-.1.1h-.3q-.1,0-.1,0h-.1l-.1-.1c-.1-.1,0-.1,0-.1l-.6-1.6c-.1-.2-.2-.4-.2-.5-.1-.2-.2-.3-.3-.4s-.3-.2-.4-.3-.4-.1-.6-.1h-.7v3.1h-.6v-6.3c0-.1,0-.2.1-.3.1,0,.1-.1.2-.1h1.9c.2,0,.5.1.7.2s.3.2.5.4c.1.1.2.3.3.5s.1.4.1.6,0,.4-.1.6-.2.3-.3.5c-.1.1-.2.2-.4.3-.2.1-.3.2-.5.2.1,0,.2.1.3.2s.2.2.2.3c.1.1.2.2.2.4.1.1.1.3.2.5l.6,1.5c0,.1.1.2.1.2,0,.2.1.2,0,.2M444.01,44.1c0-.3-.1-.5-.2-.7s-.3-.3-.6-.4c-.1,0-.2,0-.3-.1h-1.3v2.4h1c.2,0,.5,0,.7-.1s.3-.1.5-.3c.1-.1.2-.2.3-.4-.1-.1,0-.3-.1-.4h0Z"/>
    <path class="cls-3" d="M448.21,48.8s0,.1,0,0q0,.1-.1.1h-.6v-6.6h.6v6.5h.1Z"/>
    <path class="cls-3" d="M456.01,48.6v.1s0,.1-.1.1-.1,0-.1.1h-.4q-.1,0-.2-.1t-.2-.2c-.1-.1-.1-.2-.2-.3l-2.3-4.1c-.1-.2-.2-.4-.3-.6s-.2-.4-.3-.6h0v6h-.6v-6.3c0-.1,0-.2.1-.2s.1-.1.2-.1h.5s.1,0,.2.1l.1.1c0,.1.1.1.1.2l1.8,3.2c.1.2.2.4.3.6s.2.4.3.5c.1.2.2.4.3.5.1.2.2.3.3.5h0v-5.8h.5v6.3h0Z"/>
    <path class="cls-3" d="M465.91,48.7v.2h-3.3q-.1,0-.2-.1c-.1,0-.1-.1-.1-.2v-6c0-.1,0-.2.1-.2s.1-.1.2-.1h3.1v.4h-2.8v2.3h2.4v.4h-2.4v2.6h2.9v.1c0,.1.1.5.1.6"/>
    <path class="cls-3" d="M473.41,45.5h0c0,.6-.1,1-.2,1.5-.1.4-.3.8-.6,1.1s-.6.5-1,.6-.9.2-1.4.2h-1.3q-.1,0-.2-.1c-.1,0-.1-.1-.1-.2v-6c0-.1,0-.2.1-.3.1,0,.1-.1.2-.1h1.4c.6,0,1,.1,1.4.2s.7.4,1,.6c.3.3.5.6.6,1s.1,1,.1,1.5M472.71,45.5c0-.4,0-.8-.2-1.1-.1-.3-.2-.6-.5-.9-.2-.2-.5-.4-.8-.6s-.7-.2-1.2-.2h-1v5.5h1c.5,0,.8-.1,1.1-.2s.6-.3.8-.5.4-.5.5-.9c.2-.2.3-.6.3-1.1h0Z"/>
    <path class="cls-3" d="M480.61,46.5c0,.4-.1.8-.2,1.1-.1.3-.3.6-.5.8-.2.2-.5.4-.8.5s-.6.2-1,.2c-.3,0-.7,0-.9-.2-.3-.1-.5-.3-.7-.5s-.4-.5-.5-.8-.2-.7-.2-1.1v-4.3h.6v4.2c0,.3,0,.6.1.9s.2.5.3.6c.2.2.3.3.5.4s.5.1.7.1.5,0,.7-.1.4-.2.5-.4c.2-.2.3-.4.3-.6s.1-.5.1-.9v-4.2h.6v.1l.4,4.2h0Z"/>
    <path class="cls-3" d="M487.91,48v.3l-.1.1s-.1.1-.2.2c-.1.1-.2.1-.4.2s-.4.1-.6.2-.5.1-.7.1c-.4,0-.8-.1-1.1-.2s-.6-.4-.9-.6c-.2-.3-.4-.6-.5-1s-.2-.9-.2-1.4.1-1,.2-1.5c.1-.4.3-.8.6-1.1.2-.3.5-.5.9-.7.3-.2.7-.2,1.2-.2.2,0,.4,0,.6.1.2,0,.4.1.5.1.2.1.3.1.4.2.1.1.2.1.3.2l.1.1v.6h-.1s-.1,0-.2-.1c-.1-.1-.2-.1-.3-.2s-.3-.2-.5-.2c-.2-.1-.5-.1-.7-.1-.3,0-.6.1-.8.2-.3.1-.5.3-.7.5s-.3.5-.4.9-.2.8-.2,1.2,0,.8.1,1.2c.1.3.2.6.4.9.2.2.4.4.7.5s.6.2.9.2.5,0,.7-.1.4-.1.5-.2c.2-.1.3-.2.4-.2.1-.1.2-.1.2-.1h0v.1q-.1-.3-.1-.2"/>
    <path class="cls-3" d="M494.91,48.7h0v.2h-.5q-.1,0-.1,0h0v-.1l-.6-1.8h-2.9l-.6,1.8v.1c0,.1,0,0-.1,0h-.5q-.1,0-.1,0v-.2l2.3-6.3v-.1h.8v.1l2.3,6.3h0ZM492.21,43h0l-1.2,3.6h2.5l-1.3-3.6Z"/>
    <path class="cls-3" d="M500.31,42.6h0v.2h-2.1v6.1h-.6v-6.1h-2.1v-.4h4.8v.2M497.61,49.6c0-.1.1-.1.1-.1h.3q.2,0,.2.1v.1l-.5,1c0,.1-.1.1-.1.1h-.4v-.1l.4-1.1h0Z"/>
    <path class="cls-3" d="M503.11,48.8s0,.1,0,0c0,.1-.1.1-.1.1h-.6v-6.6h.6v6.5h.1Z"/>
    <path class="cls-3" d="M509.61,48.7v.2h-3.2q-.1,0-.2-.1c-.1,0-.1-.1-.1-.2v-6c0-.1,0-.2.1-.2s.1-.1.2-.1h3.1v.4h-2.8v2.3h2.4v.4h-2.4v2.6h2.9v.7"/>
    <path class="cls-3" d="M474.51,38.8h-39.6c-.1,0-.2-.1-.2-.2s.1-.2.2-.2h39.6c.1,0,.2.1.2.2s-.1.2-.2.2"/>
    <path class="cls-3" d="M509.41,38.8h-27.9c-.1,0-.2-.1-.2-.2s.1-.2.2-.2h27.9c.1,0,.2.1.2.2s-.1.2-.2.2"/>
    <path class="cls-3" d="M436.41,2.4h0c.7,0,1.2.5,1.2,1.3s-.5,1.3-1.2,1.3-1.2-.5-1.2-1.3.4-1.3,1.2-1.3M436.41,1.7c-1.2,0-2,.8-2,2s.8,2,2,2,2-.8,2-2-.9-2-2-2Z"/>
    <path class="cls-3" d="M444.11,2.5h0c.4,0,.6.1.6.5s-.2.5-.6.5h-.8v-.9h.8v-.1ZM442.51,1.7v3.8h.8v-1.5h.2l1.1,1.5h.9l-1.2-1.5c.7-.1,1.2-.5,1.2-1.1,0-.7-.5-1.2-1.4-1.2h-1.6Z"/>
    <path class="cls-3" d="M451.61,1.7c-1.2,0-2,.8-2,2s.9,2,2,2,1.9-.8,1.9-2v-.2h-1.8v.6h1c-.1.5-.5.9-1.1.9-.7,0-1.2-.5-1.2-1.3s.5-1.3,1.2-1.3c.4,0,.7.1.9.4l.5-.5c-.3-.4-.8-.6-1.4-.6"/>
    <path class="cls-3" d="M459.01,2.5h0l.5,1.5h-1.1l.6-1.5ZM459.51,1.7h-.9l-1.5,3.9h.8l.3-.9h1.6l.3.9h.8l-1.4-3.9h0Z"/>
    <polygon class="cls-3" points="468.41 1.7 467.61 1.7 467.61 4.3 465.71 1.7 465.01 1.7 465.01 5.6 465.81 5.6 465.81 3 467.71 5.6 468.41 5.6 468.41 1.7"/>
    <rect class="cls-1" x="472.81" y="1.7" width=".8" height="3.9"/>
    <polygon class="cls-3" points="480.71 1.7 477.71 1.7 477.71 2.5 479.71 2.5 477.71 5 477.71 5.6 480.71 5.6 480.71 4.9 478.71 4.9 480.71 2.3 480.71 1.7"/>
    <path class="cls-3" d="M486.51,2.5h0l.5,1.5h-1.1l.6-1.5ZM487.01,1.7h-.9l-1.5,3.9h.8l.3-.9h1.6l.3.9h.8l-1.4-3.9h0Z"/>
    <polygon class="cls-3" points="494.91 1.7 491.81 1.7 491.81 2.5 492.91 2.5 492.91 5.6 493.71 5.6 493.71 2.5 494.91 2.5 494.91 1.7"/>
    <path class="cls-3" d="M500.61,2.4h0c.7,0,1.2.5,1.2,1.3s-.5,1.3-1.2,1.3-1.2-.5-1.2-1.3.5-1.3,1.2-1.3M500.61,1.7c-1.2,0-2,.8-2,2s.8,2,2,2,2-.8,2-2-.8-2-2-2Z"/>
    <path class="cls-3" d="M508.41,2.5h0c.4,0,.6.1.6.5s-.2.5-.6.5h-.8v-.9h.8v-.1ZM506.81,1.7v3.8h.8v-1.5h.2l1.1,1.5h.9l-1.2-1.5c.7-.1,1.2-.5,1.2-1.1,0-.7-.5-1.2-1.4-1.2h-1.6Z"/>
    <path class="cls-1" d="M548.31,2.5c.4,0,.6.2.6.5s-.2.5-.6.5h-.8v-1h.8ZM548.31,4.2c.9,0,1.4-.5,1.4-1.2s-.5-1.2-1.4-1.2h-1.6v3.8h.8v-1.4h.8Z"/>
    <path class="cls-1" d="M553.51,2.5l.5,1.5h-1.1l.6-1.5h0ZM554.01,1.7h-.9l-1.5,3.8h.8l.3-.9h1.6l.3.9h.8l-1.4-3.8h0Z"/>
    <path class="cls-1" d="M559.51,2.5c.4,0,.6.1.6.5s-.2.5-.6.5h-.8v-.9h.8v-.1ZM557.91,1.7v3.8h.8v-1.5h.2l1.1,1.5h.9l-1.2-1.5c.7-.1,1.2-.5,1.2-1.1,0-.7-.5-1.2-1.4-1.2h-1.6Z"/>
    <polygon class="cls-1" points="566.41 1.7 563.21 1.7 563.21 2.5 564.41 2.5 564.41 5.6 565.21 5.6 565.21 2.5 566.41 2.5 566.41 1.7"/>
    <polygon class="cls-1" points="571.71 4.9 569.61 4.9 569.61 4 571.51 4 571.51 3.3 569.61 3.3 569.61 2.4 571.61 2.4 571.61 1.7 568.81 1.7 568.81 5.6 571.71 5.6 571.71 4.9"/>
    <polygon class="cls-1" points="577.81 1.7 577.01 1.7 577.01 4.3 575.11 1.7 574.41 1.7 574.41 5.6 575.11 5.6 575.11 3 577.11 5.6 577.81 5.6 577.81 1.7"/>
    <polygon class="cls-1" points="583.41 4.9 581.41 4.9 581.41 4 583.31 4 583.31 3.3 581.41 3.3 581.41 2.4 583.41 2.4 583.41 1.7 580.61 1.7 580.61 5.6 583.41 5.6 583.41 4.9"/>
    <path class="cls-1" d="M587.81,2.5c.4,0,.6.1.6.5s-.2.5-.6.5h-.8v-.9h.8v-.1ZM586.21,1.7v3.8h.8v-1.5h.2l1.1,1.5h.9l-1.2-1.5c.7-.1,1.2-.5,1.2-1.1,0-.7-.5-1.2-1.4-1.2h-1.6Z"/>
    <polygon class="cls-1" points="599.91 3.3 598.01 3.3 598.01 2.5 600.01 2.5 600.01 1.7 597.21 1.7 597.21 5.6 598.01 5.6 598.01 4 599.91 4 599.91 3.3"/>
    <path class="cls-1" d="M604.51,2.4c.7,0,1.2.5,1.2,1.2s-.5,1.2-1.2,1.2-1.2-.5-1.2-1.2.5-1.2,1.2-1.2M604.51,1.7c-1.2,0-2,.8-2,2s.8,2,2,2,2-.8,2-2-.9-2-2-2Z"/>
    <polygon class="cls-1" points="612.51 1.7 611.81 1.7 611.81 4.3 609.81 1.7 609.11 1.7 609.11 5.6 609.81 5.6 609.81 3 611.81 5.6 612.51 5.6 612.51 1.7"/>
    <path class="cls-1" d="M616.91,2.5c.8,0,1.2.5,1.2,1.2s-.4,1.2-1.2,1.2h-.8v-2.4h.8ZM615.31,1.7v3.8h1.6c1.2,0,2-.8,2-1.9s-.8-1.9-2-1.9h-1.6Z"/>
    <path class="cls-1" d="M622.91,2.5l.5,1.5h-1.1l.6-1.5h0ZM623.41,1.7h-.9l-1.5,3.8h.8l.3-.9h1.6l.3.9h.8l-1.4-3.8h0Z"/>
    <polygon class="cls-1" points="629.71 1.7 626.61 1.7 626.61 2.5 627.81 2.5 627.81 5.6 628.51 5.6 628.51 2.5 629.71 2.5 629.71 1.7"/>
    <path class="cls-1" d="M633.91,2.4c.7,0,1.2.5,1.2,1.2s-.5,1.2-1.2,1.2-1.2-.5-1.2-1.2.5-1.2,1.2-1.2M633.91,1.7c-1.2,0-2,.8-2,2s.8,2,2,2,2-.8,2-2-.8-2-2-2Z"/>
    <path class="cls-1" d="M640.11,2.5c.4,0,.6.1.6.5s-.2.5-.6.5h-.8v-.9h.8v-.1ZM638.51,1.7v3.8h.8v-1.5h.2l1.1,1.5h.9l-1.2-1.5c.7-.1,1.2-.5,1.2-1.1,0-.7-.5-1.2-1.4-1.2h-1.6Z"/>
    <path class="cls-1" d="M551.51,47.2v.1c0,.6-.2,1.2-.6,1.6s-.9.6-1.5.6-1-.2-1.4-.5c-.5-.4-.7-1-.7-1.6s.2-1.2.7-1.6c.4-.4.9-.5,1.5-.5.7,0,1.3.3,1.8.9l-.6.4c-.3-.4-.7-.6-1.2-.6-.4,0-.8.1-1,.4-.3.3-.4.6-.4,1s.1.8.4,1c.3.3.6.4,1.1.4.7,0,1.1-.3,1.3-.9h-1.5v-.7h2.1Z"/>
    <path class="cls-1" d="M556.21,49.4h-.7l-.8-1.5h-1.6v1.5h-.6v-4h2.6c.3,0,.6.1.8.4.2.2.3.5.3.9,0,.7-.3,1.1-.8,1.2l.8,1.5ZM554.91,47.3c.4,0,.6-.2.6-.5,0-.4-.2-.6-.6-.6h-1.8v1.1h1.8Z"/>
    <path class="cls-1" d="M561.11,47.4c0,.7-.2,1.2-.7,1.6-.4.4-.9.5-1.4.5s-1.1-.2-1.5-.5c-.5-.4-.7-1-.7-1.6s.2-1.2.7-1.6c.4-.4.9-.5,1.4-.5s1,.2,1.4.5c.6.4.8,1,.8,1.6M560.51,47.4c0-.4-.1-.8-.4-1-.3-.3-.6-.4-1.1-.4s-.8.1-1.1.4-.4.6-.4,1,.1.8.4,1c.3.3.6.4,1.1.4s.8-.1,1.1-.4c.2-.2.4-.5.4-1h0Z"/>
    <path class="cls-1" d="M565.71,48.1c0,.4-.2.8-.5,1-.3.3-.8.4-1.4.4s-1-.1-1.4-.4c-.3-.3-.5-.6-.5-1v-2.7h.6v2.5c0,.6.4.9,1.2.9s1.2-.3,1.2-.9v-2.5h.6l.2,2.7h0Z"/>
    <path class="cls-1" d="M569.41,45.4c.3,0,.6.1.8.4.2.2.3.5.3.9s-.1.7-.3.9-.5.3-.9.3h-1.9v1.5h-.6v-4h2.6ZM569.31,47.3c.4,0,.6-.2.6-.5,0-.4-.2-.6-.6-.6h-1.8v1.1h1.8Z"/>
    <polygon class="cls-1" points="574.61 49.4 571.21 49.4 571.21 45.4 574.51 45.4 574.51 46.1 571.81 46.1 571.81 47 573.71 47 573.71 47.7 571.81 47.7 571.81 48.7 574.61 48.7 574.61 49.4"/>
    <path class="cls-1" d="M579.91,46.4c-.4-.3-.9-.4-1.4-.4-.7,0-1.1.2-1.1.5,0,.2.1.3.4.4.4,0,.7.1,1.1.1.5.1.9.2,1.1.4.2.2.4.5.4.9s-.2.8-.5,1-.8.4-1.3.4c-.8,0-1.5-.2-2-.7l.3-.6c.4.4,1,.6,1.6.6.4,0,.6-.1.8-.2s.3-.3.3-.5-.1-.4-.4-.5c-.1,0-.3-.1-.6-.1-.5,0-.7,0-.8-.1-.4,0-.7-.2-.9-.3s-.3-.4-.3-.7c0-.4.2-.7.5-.9s.7-.3,1.3-.3c.7,0,1.3.2,1.8.6l-.3.4h0Z"/>
    <path class="cls-1" d="M585.31,47.4c0,.7-.2,1.2-.7,1.6-.4.4-.9.5-1.4.5s-1.1-.2-1.5-.5c-.5-.4-.7-1-.7-1.6s.2-1.2.7-1.6c.4-.4.9-.5,1.4-.5s1,.2,1.4.5c.6.4.8,1,.8,1.6M584.71,47.4c0-.4-.1-.8-.4-1-.3-.3-.6-.4-1.1-.4s-.8.1-1.1.4-.4.6-.4,1,.1.8.4,1c.3.3.6.4,1.1.4s.8-.1,1.1-.4c.2-.2.4-.5.4-1h0Z"/>
    <path class="cls-1" d="M590.11,46.4l-.6.2c-.3-.4-.8-.6-1.3-.6s-.8.1-1.1.4-.4.6-.4,1,.1.8.4,1c.3.3.6.4,1.1.4s1-.2,1.3-.7l.5.4c-.5.7-1.1,1-1.9,1-.6,0-1.2-.2-1.6-.6s-.6-.9-.6-1.5.2-1.2.7-1.6c.4-.4.9-.5,1.4-.5.9,0,1.6.3,2.1,1.1"/>
    <rect class="cls-1" x="591.01" y="45.4" width=".6" height="4"/>
    <polygon class="cls-1" points="596.21 49.4 592.71 49.4 592.71 45.4 596.01 45.4 596.01 46.1 593.31 46.1 593.31 47 595.21 47 595.21 47.7 593.31 47.7 593.31 48.7 596.21 48.7 596.21 49.4"/>
    <polygon class="cls-1" points="600.31 46.1 598.71 46.1 598.71 49.4 598.11 49.4 598.11 46.1 596.61 46.1 596.61 45.4 600.31 45.4 600.31 46.1"/>
    <polygon class="cls-1" points="604.41 49.4 600.91 49.4 600.91 45.4 604.31 45.4 604.31 46.1 601.61 46.1 601.61 47 603.51 47 603.51 47.7 601.61 47.7 601.61 48.7 604.41 48.7 604.41 49.4"/>
    <path class="cls-1" d="M610.81,47.2v.1c0,.6-.2,1.2-.6,1.6s-.9.6-1.5.6-1-.2-1.4-.5c-.5-.4-.7-1-.7-1.6s.2-1.2.7-1.6c.4-.4.9-.5,1.5-.5.7,0,1.3.3,1.8.9l-.6.4c-.3-.4-.7-.6-1.2-.6-.4,0-.8.1-1.1.4s-.4.6-.4,1,.1.8.4,1c.3.3.6.4,1.1.4.7,0,1.1-.3,1.3-.9h-1.5v-.7h2.2Z"/>
    <polygon class="cls-1" points="615.21 49.4 611.71 49.4 611.71 45.4 615.11 45.4 615.11 46.1 612.41 46.1 612.41 47 614.21 47 614.21 47.7 612.41 47.7 612.41 48.7 615.21 48.7 615.21 49.4"/>
    <polygon class="cls-1" points="619.81 49.4 618.81 49.4 616.61 46.1 616.61 49.4 616.01 49.4 616.01 45.4 616.91 45.4 619.11 48.8 619.11 45.4 619.81 45.4 619.81 49.4"/>
    <polygon class="cls-1" points="624.31 49.4 620.91 49.4 620.91 45.4 624.21 45.4 624.21 46.1 621.51 46.1 621.51 47 623.41 47 623.41 47.7 621.51 47.7 621.51 48.7 624.31 48.7 624.31 49.4"/>
    <path class="cls-1" d="M628.91,49.4h-.7l-.8-1.5h-1.6v1.5h-.6v-4h2.6c.3,0,.6.1.8.4.2.2.3.5.3.9,0,.7-.3,1.1-.8,1.2l.8,1.5ZM627.61,47.3c.4,0,.6-.2.6-.5,0-.4-.2-.6-.6-.6h-1.8v1.1h1.8Z"/>
    <path class="cls-1" d="M633.61,49.4h-.7l-.4-.9h-2.2l-.4.9h-.7l1.8-4h.8l1.8,4h0ZM632.21,47.9l-.8-1.8-.8,1.8h1.6Z"/>
    <polygon class="cls-1" points="637.41 49.4 634.21 49.4 634.21 45.4 634.91 45.4 634.91 48.7 637.41 48.7 637.41 49.4"/>
    <polygon class="cls-1" points="641.51 49.4 638.01 49.4 638.01 45.4 641.41 45.4 641.41 46.1 638.71 46.1 638.71 47 640.61 47 640.61 47.7 638.71 47.7 638.71 48.7 641.51 48.7 641.51 49.4"/>
    <path class="cls-1" d="M589.71,28.5h0c0-1.2-.6-1.8-2-1.8h-7.1v3.7h6.8c1.6-.1,2.3-.7,2.3-1.9M587.51,24.3h0c1.2,0,1.7-.8,1.7-1.7,0-1-.6-1.8-1.9-1.8h-6.7v3.5h6.9ZM590.41,25.3c1.2.6,2,1.8,2,3.2,0,2.4-1.7,4.2-5,4.2h-9.4v-14.2h9.4c2.6,0,4.5,1.6,4.5,4,0,1.2-.5,2.1-1.5,2.8h0Z"/>
    <path class="cls-1" d="M604.61,25.1h0c1.7,0,2.6-.9,2.6-2.1,0-1.4-.8-2.2-2.3-2.2h-6.5v4.3h6.2ZM602.61,27.5h-4.2v5.2h-2.6v-14.2h9.1c3,0,4.9,1.9,4.9,4.5s-1.8,4.1-4.1,4.4l4.2,5.3h-3.3l-4-5.2h0Z"/>
    <path class="cls-1" d="M620.01,30.3h0c3.1,0,4.7-2,4.7-4.7s-1.6-4.7-4.7-4.7h-4.8v9.4h4.8ZM620.01,18.5c4.5,0,7.4,2.8,7.4,7.1,0,3.9-3.1,7.1-7,7.1h-7.8v-14.2h7.4Z"/>
    <path class="cls-1" d="M570.51,14h0v23.4h-23.4V14h23.4ZM551.31,26.5h0v-.5h-2.5v9.7h20.1v-9.7h-2.5v.5h-15.1ZM548.81,25.4h2.5v-.5h15.2v.5h2.5v-9.7h-20.1l-.1,9.7h0Z"/>
    <rect class="cls-1" x="161.51" width="1.8" height="49.3"/>
    <path class="cls-3" d="M109.31,46.7h0c.6,0,1.2-.2,1.2-.9,0-.5-.3-.9-.9-.9h-1.7v1.8h1.4ZM107.21,44.3h2.5c1,0,1.6.5,1.6,1.4,0,.6-.3,1.1-.9,1.3h0c.6.1.7.6.8,1.1,0,.5,0,1.1.3,1.4h-.9c-.2-.2-.1-.8-.2-1.3-.1-.5-.2-.9-.9-.9h-1.7v2.2h-.7l.1-5.2h0Z"/>
    <path class="cls-3" d="M115.41,49h0c1.3,0,1.8-1.1,1.8-2.1s-.5-2.1-1.8-2.1-1.8,1.1-1.8,2.1.5,2.1,1.8,2.1M115.41,44.1c1.7,0,2.5,1.3,2.5,2.7s-.8,2.7-2.5,2.7-2.5-1.3-2.5-2.7.8-2.7,2.5-2.7Z"/>
    <polygon class="cls-3" points="119.71 44.3 120.71 44.3 122.31 48.7 124.01 44.3 124.91 44.3 124.91 49.5 124.21 49.5 124.21 45.1 124.21 45.1 122.61 49.5 122.01 49.5 120.41 45.1 120.41 45.1 120.41 49.5 119.71 49.5 119.71 44.3"/>
    <path class="cls-3" d="M128.01,47.3h1.8l-.9-2.4h0l-.9,2.4h0ZM128.51,44.3h.8l2,5.2h-.8l-.6-1.6h-2.2l-.6,1.6h-.7l2.1-5.2h0Z"/>
    <polygon class="cls-3" points="132.81 44.3 133.51 44.3 136.31 48.5 136.31 48.5 136.31 44.3 136.91 44.3 136.91 49.5 136.21 49.5 133.51 45.3 133.41 45.3 133.41 49.5 132.81 49.5 132.81 44.3"/>
    <rect class="cls-1" x="139.11" y="44.3" width=".7" height="5.2"/>
    <path class="cls-3" d="M142.91,47.3h1.8l-.9-2.4h0l-.9,2.4h0ZM143.41,44.3h.8l2,5.2h-.8l-.6-1.6h-2.2l-.6,1.6h-.7l2.1-5.2h0Z"/>
    <polygon class="cls-3" points="67.81 18.6 64.51 18.6 64.51 27.1 61.71 27.1 61.71 18.6 58.41 18.6 58.41 16.2 67.81 16.2 67.81 18.6"/>
    <polygon class="cls-3" points="68.11 16.2 76.81 16.2 76.81 18.4 70.91 18.4 70.91 20.3 76.31 20.3 76.31 22.5 70.91 22.5 70.91 24.6 76.91 24.6 76.91 27.1 68.11 27.1 68.11 16.2"/>
    <path class="cls-3" d="M84.91,20.1c-.1-1.1-1-1.7-2.2-1.7-1.8,0-2.5,1.6-2.5,3.2s.7,3.2,2.5,3.2c1.3,0,2.1-.8,2.2-2h2.8c-.1,2.8-2.2,4.5-5,4.5-3.3,0-5.4-2.5-5.4-5.7s2.1-5.7,5.4-5.7c2.4,0,4.9,1.5,5,4.1l-2.8.1h0Z"/>
    <polygon class="cls-3" points="88.31 16.2 91.11 16.2 91.11 20.1 94.81 20.1 94.81 16.2 97.71 16.2 97.71 27.1 94.81 27.1 94.81 22.6 91.11 22.6 91.11 27.1 88.31 27.1 88.31 16.2"/>
    <path class="cls-3" d="M66.01,33.7c-.1-1.1-1-1.7-2.2-1.7-1.8,0-2.5,1.6-2.5,3.2s.7,3.2,2.5,3.2c1.3,0,2.1-.8,2.2-2h2.8c-.1,2.8-2.2,4.5-5,4.5-3.3,0-5.4-2.5-5.4-5.7s2.1-5.7,5.4-5.7c2.4,0,4.9,1.5,5,4.1l-2.8.1h0Z"/>
    <polygon class="cls-3" points="69.41 29.8 72.21 29.8 72.21 33.8 76.01 33.8 76.01 29.8 78.81 29.8 78.81 40.7 76.01 40.7 76.01 36.2 72.21 36.2 72.21 40.7 69.41 40.7 69.41 29.8"/>
    <path class="cls-3" d="M83.01,36.6h2.5l-1.2-3.8h0l-1.3,3.8h0ZM82.81,29.8h2.9l4.1,10.9h-3l-.7-1.9h-3.8l-.7,1.9h-2.9l4.1-10.9h0Z"/>
    <polygon class="cls-3" points="89.61 29.8 92.51 29.8 92.51 38.2 97.61 38.2 97.61 40.7 89.61 40.7 89.61 29.8"/>
    <polygon class="cls-3" points="98.01 29.8 100.91 29.8 100.91 38.2 106.01 38.2 106.01 40.7 98.01 40.7 98.01 29.8"/>
    <polygon class="cls-3" points="106.51 29.8 115.11 29.8 115.11 32.1 109.31 32.1 109.31 34 114.61 34 114.61 36.2 109.31 36.2 109.31 38.2 115.31 38.2 115.31 40.7 106.51 40.7 106.51 29.8"/>
    <polygon class="cls-3" points="116.01 29.8 118.91 29.8 122.71 36.5 122.71 36.5 122.71 29.8 125.41 29.8 125.41 40.7 122.41 40.7 118.71 33.9 118.61 33.9 118.61 40.7 116.01 40.7 116.01 29.8"/>
    <path class="cls-3" d="M136.41,40.7h-1.8l-.2-1.2c-.8,1-2,1.4-3,1.4-3.3,0-5.4-2.5-5.4-5.7s2.1-5.7,5.4-5.7c2.3,0,4.7,1.2,4.9,3.9h-2.8c-.1-.9-1-1.5-2.1-1.5-1.8,0-2.5,1.6-2.5,3.2s.7,3.2,2.5,3.2c1.4,0,2.4-.7,2.5-1.6h-2v-2.1h4.6l-.1,6.1h0Z"/>
    <polygon class="cls-3" points="137.31 29.8 146.01 29.8 146.01 32.1 140.21 32.1 140.21 34 145.51 34 145.51 36.2 140.21 36.2 140.21 38.2 146.21 38.2 146.21 40.7 137.31 40.7 137.31 29.8"/>
    <polygon class="cls-3" points="60.81 1.8 68.51 1.8 67.81 4.7 64.11 4.7 63.71 6.3 67.61 6.3 66.91 9 63.11 9 62.21 13 58.21 13 60.81 1.8"/>
    <polygon class="cls-3" points="69.51 1.8 73.51 1.8 70.91 13 67.01 13 69.51 1.8"/>
    <path class="cls-3" d="M77.51,7.1h0c1.3,0,2.2-.8,2.2-1.8,0-.6-.4-.9-1.2-.9-.2,0-.4,0-.6.1l-.6,2.6q.1,0,.2,0M74.61,1.8h.3c1.3-.1,2.9-.2,3.8-.2,1.5,0,2.6.2,3.5.5,1.1.4,1.8,1.4,1.8,2.6,0,1-.4,2-1,2.8-.6.6-1.1,1-2.1,1.3l-.3.1.2.2c.3.4,1.2,2.2,2,4h-4.4c-.6-1.6-.7-2-1.5-3.8l-.9,3.8h-3.9l2.5-11.3h0Z"/>
    <polygon class="cls-3" points="93.31 1.8 102.91 1.8 102.21 5 99.41 5 97.51 13 93.51 13 95.41 5 92.31 5 93.31 1.8"/>
    <path class="cls-3" d="M99.31,11.9h0q.1,0,.1-.1c0-.1-.1-.1-.1-.1h0v.2h0M99.01,11.4h0v1h.3v-.3q.1.2.2.3h.4c-.1-.1-.2-.3-.2-.4h0c.1-.1.2-.1.2-.3s-.2-.4-.5-.4h-.2l-.2.1h0ZM99.31,12.8h0c.5,0,.9-.4.9-.9s-.4-.9-.9-.9-.9.4-.9.9.5.9.9.9ZM99.31,11c.5,0,1,.4,1,1s-.4,1-1,1-1-.4-1-1,.5-1,1-1Z"/>
    <path class="cls-3" d="M83.01,12.7c1.1.3,2.4.5,3.5.5,1.6,0,2.7-.4,3.8-1.1,1.1-.8,1.9-2.1,1.9-3.2,0-.8-.3-1.4-.9-1.9-.5-.4-.9-.6-1.9-1.1l-.8-.4c-.3-.1-.4-.3-.4-.4,0-.4.5-.7,1.2-.7.5,0,1.1.1,2.3.5l.8-3c-.9-.2-1.8-.4-2.6-.4-3.2,0-5.8,1.8-5.8,4.1,0,1.2.8,2.1,2.8,3,.9.4,1.1.6,1.1.9,0,.4-.5.7-1.3.7-.7,0-1.6-.2-2.9-.7h0l-.8,3.2h0Z"/>
    <path class="cls-1" d="M25.01,22c.9,0,1.8.1,2.6.2l2-2.1c-1.4-.5-3-.8-4.7-.8-2.8,0-5.4.8-7.3,2.1l1.8,1.7c1.7-.7,3.6-1.1,5.6-1.1h0Z"/>
    <path class="cls-5" d="M25.01,22c.9,0,1.8.1,2.6.2l2-2.1c-1.4-.5-3-.8-4.7-.8-2.8,0-5.4.8-7.3,2.1l1.8,1.7c1.7-.7,3.6-1.1,5.6-1.1h0Z"/>
    <path class="cls-5" d="M25.01,19.4c1.7,0,3.2.3,4.7.8l2.2-2.3c-2-.8-4.4-1.3-6.8-1.3-3.7,0-7,1-9.6,2.7l2.3,2.2c1.8-1.3,4.4-2.1,7.2-2.1h0Z"/>
    <path class="cls-1" d="M14.61,28.3c.2-.8.5-1.5,1-2.1l-.9-.9c-.2.6-.3,1.1-.3,1.7,0,.4.1.8.2,1.3Z"/>
    <path class="cls-5" d="M14.61,28.3c.2-.8.5-1.5,1-2.1l-.9-.9c-.2.6-.3,1.1-.3,1.7,0,.4.1.8.2,1.3Z"/>
    <path class="cls-1" d="M8.11,33.2l-.4,1.9,3.7-1.6c-.2-.5-.3-1.1-.4-1.6-.1,0-2.9,1.3-2.9,1.3Z"/>
    <path class="cls-5" d="M8.11,33.2l-.4,1.9,3.7-1.6c-.2-.5-.3-1.1-.4-1.6-.1,0-2.9,1.3-2.9,1.3Z"/>
    <polygon class="cls-1" points="5.51 12.4 .21 41.5 2.71 41.7 7.91 12.1 5.51 12.4"/>
    <polygon class="cls-5" points="5.51 12.4 .21 41.5 2.71 41.7 7.91 12.1 5.51 12.4"/>
    <path class="cls-5" d="M23.41,29.1v-2.4l-3.9-3.7-1.8-1.7-2.3-2.2-7.5-7.1-5.3,29.5,11.2-4.9c-1.1-1-1.9-2-2.5-3.3l-3.6,1.6.4-1.9,2.3-12.2.2-1,2,2.1,2.5,2.5,1.1,1.1,4.4,3.8-4.3,2c1.1,1.1,2.4,2.1,4.2,2.6l5.3-2.4-2.4-2.4h0Z"/>
    <path class="cls-5" d="M36.71,20.9c1.8,1.8,2.9,4,2.9,6.4,0,.4,0,.9-.1,1.3.1.4.1.9.1,1.3,0,1.9-.6,3.6-1.7,5.1l7.3-7.6-7.7-7.4-.8.9h0Z"/>
    <path class="cls-5" d="M33.11,24.6l-3,3.1,3.7,3.5c.9-.9,1.5-1.9,1.7-3-.3-1.3-1.1-2.5-2.4-3.6h0Z"/>
    <path class="cls-1" d="M35.51,28.3c.1-.4.2-.9.2-1.3,0-1.3-.5-2.6-1.3-3.6l-1.3,1.3c1.2.9,2.1,2.2,2.4,3.6h0Z"/>
    <path class="cls-5" d="M35.51,28.3c.1-.4.2-.9.2-1.3,0-1.3-.5-2.6-1.3-3.6l-1.3,1.3c1.2.9,2.1,2.2,2.4,3.6h0Z"/>
    <path class="cls-1" d="M37.91,40.7l-3-2.9c-.5.3-1,.6-1.5.9l4.5,4.3,14-14.6v-2.4l-14,14.7h0Z"/>
    <path class="cls-5" d="M37.91,40.7l-3-2.9c-.5.3-1,.6-1.5.9l4.5,4.3,14-14.6v-2.4l-14,14.7h0Z"/>
    <path class="cls-1" d="M27.71,31l-2.5-2.4-1.9-1.8v2.4l2.7,2.6,2.5,2.4c.7-.2,1.3-.4,1.8-.6l-2.6-2.6h0Z"/>
    <path class="cls-5" d="M27.71,31l-2.5-2.4-1.9-1.8v2.4l2.7,2.6,2.5,2.4c.7-.2,1.3-.4,1.8-.6l-2.6-2.6h0Z"/>
    <polygon class="cls-1" points="37.41 17.8 35.41 19.8 33.31 22.1 31.81 23.7 28.91 26.7 30.11 27.8 33.11 24.6 34.41 23.3 36.71 20.9 37.41 20.1 45.11 27.5 46.31 26.3 37.41 17.8"/>
    <polygon class="cls-5" points="37.41 17.8 35.41 19.8 33.31 22.1 31.81 23.7 28.91 26.7 30.11 27.8 33.11 24.6 34.41 23.3 36.71 20.9 37.41 20.1 45.11 27.5 46.31 26.3 37.41 17.8"/>
    <path class="cls-5" d="M36.71,20.9l-2.3,2.4c.8,1.1,1.3,2.3,1.3,3.6,0,.4-.1.9-.2,1.3-.3,1.1-.9,2.1-1.7,3-.9.9-2,1.7-3.4,2.2-.6.2-1.2.4-1.8.6-1.1.3-2.3.4-3.5.4-1.5,0-2.9-.2-4.2-.6-1.8-.6-3.3-1.4-4.4-2.6-.4-.4-.8-.8-1.1-1.3-.4-.6-.6-1.2-.8-1.8-.1-.4-.2-.9-.2-1.3,0-.6.1-1.2.3-1.7l-2.7-2.7c-1,1.4-1.5,3.1-1.5,4.8,0,.4,0,.9.1,1.3.2,1,.5,2,1.1,3,.3.5.6.9.9,1.3.9,1.1,2.1,2.1,3.6,2.9,2.4,1.4,5.5,2.2,8.9,2.2,2.3,0,4.5-.4,6.5-1.1.6-.2,1.2-.5,1.7-.7,1.3-.6,2.4-1.4,3.3-2.3,1.6-1.5,2.6-3.3,2.9-5.3.1-.4.1-.9.1-1.3,0-2.3-1.1-4.5-2.9-6.3h0Z"/>
    <path class="cls-5" d="M27.71,31l2.7,2.6c1.3-.6,2.5-1.3,3.4-2.2l-3.7-3.5-1.2-1.1,2.8-2.9,1.5-1.6,2.2-2.3,2-2.1,8.9,8.5-1.2,1.2-7.3,7.6c-.8,1.1-1.8,2-2.9,2.8l3,2.9,14-14.6-14.6-14-5.5,5.7-2.2,2.3-2,2.1-4.3,4.5,4.4,4.1h0Z"/>
    <path class="cls-1" d="M15.41,30.1l.1.1c.2.3.5.6.8,1l4.3-2-10-9.3-.3,1.4,7.8,7.8-2.7,1h0Z"/>
    <path class="cls-5" d="M15.41,30.1l.1.1c.2.3.5.6.8,1l4.3-2-10-9.3-.3,1.4,7.8,7.8-2.7,1h0Z"/>
    <path class="cls-1" d="M39.61,27.4c0,.4,0,.9-.1,1.3-.3,2-1.4,3.8-2.9,5.3-.9.9-2.1,1.7-3.3,2.3-.5.3-1.1.5-1.7.7-1.9.7-4.2,1.1-6.5,1.1-3.3,0-6.4-.8-8.9-2.2-1.4-.8-2.6-1.8-3.6-2.9-.4-.4-.7-.9-.9-1.3-.5-.9-.9-1.9-1.1-3-.1-.4-.1-.9-.1-1.3v-.4h0c-.1.4,0,2.6,0,3.1,0,.7.1,1.4.3,2.1.1.5.3,1,.6,1.5.6,1.2,1.5,2.4,2.6,3.3,2.7,2.4,6.7,3.9,11.2,3.9,3.1,0,6-.7,8.4-1.9.5-.3,1.1-.6,1.5-.9,1.2-.8,2.2-1.8,2.9-2.8,1.1-1.5,1.7-3.2,1.7-5.1v-3c-.1-.3-.1,0-.1.2h0Z"/>
    <path class="cls-5" d="M39.61,27.4c0,.4,0,.9-.1,1.3-.3,2-1.4,3.8-2.9,5.3-.9.9-2.1,1.7-3.3,2.3-.5.3-1.1.5-1.7.7-1.9.7-4.2,1.1-6.5,1.1-3.3,0-6.4-.8-8.9-2.2-1.4-.8-2.6-1.8-3.6-2.9-.4-.4-.7-.9-.9-1.3-.5-.9-.9-1.9-1.1-3-.1-.4-.1-.9-.1-1.3v-.4h0c-.1.4,0,2.6,0,3.1,0,.7.1,1.4.3,2.1.1.5.3,1,.6,1.5.6,1.2,1.5,2.4,2.6,3.3,2.7,2.4,6.7,3.9,11.2,3.9,3.1,0,6-.7,8.4-1.9.5-.3,1.1-.6,1.5-.9,1.2-.8,2.2-1.8,2.9-2.8,1.1-1.5,1.7-3.2,1.7-5.1v-3c-.1-.3-.1,0-.1.2h0Z"/>
    <path class="cls-1" d="M179.71,2.3h2.1c.2,0,.4.2.4.4v10.6c0,.2-.2.4-.4.4h-2.1c-.2,0-.4-.2-.4-.4V2.7c-.1-.2.1-.4.4-.4Z"/>
    <path class="cls-1" d="M184.61,16.8c-.2,0-.4-.2-.4-.4V2.7c0-.2.2-.4.4-.4h2.6c.3,0,.5.1.5.4l3,8.8c0,.1.2.1.2,0v-4.7c0-.2.2-.4.4-.4h2.1c.2,0,.4.2.4.4v11.5c0,.2-.2.4-.4.4h-2.5c-.3,0-.5-.1-.6-.4l-2.9-9.6c0-.1-.2-.1-.2,0v7.6c0,.2-.2.4-.4.4h-2.2v.1Z"/>
    <path class="cls-1" d="M198.31,17.3c-.2,0-.4-.2-.4-.4V5.5c0-.1-.1-.2-.2-.2h-6.2c-.2,0-.4-.2-.4-.4v-2.1c0-.2.2-.4.4-.4h12.3c.2,0,.4.2.4.4v2.1c0,.2-.2.4-.4.4h-2.7c-.1,0-.2.1-.2.2v11.4c0,.2-.2.4-.4.4h-2.2Z"/>
    <path class="cls-1" d="M209.11,17.6c-1.1,0-2.1-.3-2.9-.8s-1.4-1.2-1.8-2.1c-.4-.9-.6-2.5-.6-4.9s.2-4,.6-4.9c.8-1.7,2.4-2.9,4.7-2.9s3.9,1.1,4.7,2.9c.4.9.6,2.5.6,4.9s-.2,4-.6,4.9-1,1.6-1.8,2.1c-.8.5-1.7.8-2.9.8M209.11,14.5c1,0,1.6-.3,1.9-1,.2-.4.3-1.7.3-3.7s-.1-3.2-.3-3.7c-.3-.7-1-1-1.9-1s-1.6.3-1.9,1c-.2.4-.3,1.7-.3,3.7s.1,3.2.3,3.7c.4.7,1,1,1.9,1Z"/>
    <path class="cls-1" d="M221.21,23.4c-.2,0-.4-.2-.4-.4V5.6c0-.1-.1-.2-.2-.2h-3.1c-.2,0-.4-.2-.4-.4v-2.1c0-.2.2-.4.4-.4h12.2c.2,0,.4.2.4.4v2.1c0,.2-.2.4-.4.4h-5.7c-.1,0-.2.1-.2.2v17.3c0,.2-.2.4-.4.4h-2.2v.1Z"/>
    <path class="cls-1" d="M227.81,17.3c-.2,0-.4-.2-.4-.4V7c0-.2.2-.4.4-.4h2.1c.2,0,.4.2.4.4v2.1c0,.1.1.2.2.2h3.2c.1,0,.2-.1.2-.2V2.8c0-.2.2-.4.4-.4h2.1c.2,0,.4.2.4.4v16c0,.2-.2.4-.4.4h-2.1c-.2,0-.4-.2-.4-.4v-6.3c0-.1-.1-.2-.2-.2h-3.1c-.1,0-.2.1-.2.2v4.4c0,.2-.3.4-.5.4h-2.1Z"/>
    <path class="cls-1" d="M239.41,17.3c-.2,0-.4-.2-.4-.4V2.7c0-.2.2-.4.4-.4h7.8c.2,0,.4.2.4.4v2.2c0,.2-.2.4-.4.4h-5c-.1,0-.2.1-.2.2v2.6c0,.1.1.2.2.2h3.6c.2,0,.4.2.4.4v2.1c0,.2-.2.4-.4.4h-3.6c-.1,0-.2.1-.2.2v2.6c0,.1.1.2.2.2h1.9c.2,0,.4.2.4.4v2.1c0,.2-.2.4-.4.4l-4.7.2h0Z"/>
    <path class="cls-1" d="M194.31,35.4c-.2,0-.4-.2-.4-.4v-14.2c0-.2.2-.4.4-.4h4.2c2.2,0,3.9,1.1,4.7,2.9.4.9.6,2.4.6,4.7s-.2,3.8-.6,4.7c-.8,1.7-2.4,2.9-4.7,2.9l-4.2-.2h0ZM198.51,32.4c1,0,1.6-.3,1.9-1,.2-.4.3-1.6.3-3.5s-.1-3-.3-3.5c-.3-.7-1-1-1.9-1h-1.4c-.1,0-.2.1-.2.2v8.6c0,.1.1.2.2.2h1.4Z"/>
    <path class="cls-1" d="M205.61,35.4c-.2,0-.4-.2-.4-.4v-14.2c0-.2.2-.4.4-.4h7.8c.2,0,.4.2.4.4v2.1c0,.2-.2.4-.4.4h-5c-.1,0-.2.1-.2.2v2.6c0,.1.1.2.2.2h4.8c.2,0,.4.2.4.4v2.1c0,.2-.2.4-.4.4h-4.8c-.1,0-.2.1-.2.2v2.6c0,.1.1.2.2.2h5.1c.2,0,.4.2.4.4v2.1c0,.2-.2.4-.4.4l-7.9.3h0Z"/>
    <path class="cls-1" d="M215.71,35.4c-.2,0-.4-.2-.4-.4v-14.2c0-.2.2-.4.4-.4h3.7c.2,0,.4.2.4.4v2.1c0,.2-.2.4-.4.4h-.9c-.1,0-.2.1-.2.2v2.6c0,.1.1.2.2.2h4.8c.2,0,.4.2.4.4v2.1c0,.2-.2.4-.4.4h-4.8c-.1,0-.2.1-.2.2v2.6c0,.1.1.2.2.2h5.1c.2,0,.4.2.4.4v2.1c0,.2-.2.4-.4.4l-7.9.3h0Z"/>
    <path class="cls-1" d="M225.71,35.4c-.2,0-.4-.2-.4-.4v-14.2c0-.2.2-.4.4-.4h4.7c1.4,0,2.4.4,3.3,1.2s1.2,1.9,1.2,3.3-.4,2.4-1.2,3.3c-.8.8-1.9,1.2-3.3,1.2h-1.9c-.1,0-.2.1-.2.2v5.4c0,.2-.2.4-.4.4h-2.2ZM230.31,26.4c.9,0,1.5-.6,1.5-1.5s-.6-1.5-1.5-1.5h-1.8c-.1,0-.2.1-.2.2v2.6c0,.1.1.2.2.2h1.8Z"/>
    <path class="cls-1" d="M229.51,35.4c-.1-.1-.2-.1-.3-.2-.1-.1-.1-.2-.1-.4h.5q0,.1.1.1c.1,0,.1.1.2.1s.1,0,.2-.1,0-.1,0-.1c0,0,0-.1-.1-.1s-.1-.1-.2-.1h-.1c-.2-.1-.4-.1-.5-.2-.1-.1-.2-.2-.2-.4,0-.1,0-.2.1-.3s.2-.2.3-.2c.1-.1.2-.1.4-.1s.3,0,.4.1.2.1.3.2c.1.1.1.2.1.4h-.5q0-.1-.1-.2t-.2-.1h-.1l-.1.1v.1l.1.1s.1.1.3.1c0,0,.1,0,.2.1.1,0,.2.1.3.2.1.1.1.2.1.4s0,.2-.1.4-.2.2-.3.2c-.1.1-.3.1-.4.1s-.2-.1-.3-.2"/>
    <path class="cls-1" d="M232.31,33.4h.5v2h-.5v-1.1h0l-.2.3h-.2l-.2-.3h0v1.1h-.5v-2h.5l.4.6h0l.2-.6c-.1,0,0,0,0,0"/>
    <path class="cls-1" d="M193.21,46.5h-.3v.6h-.3v-1.7h.6c.3,0,.5.2.5.5s-.2.6-.5.6M193.21,45.8h-.3v.5h.3c.1,0,.2-.1.2-.2s-.1-.3-.2-.3h0Z"/>
    <path class="cls-1" d="M195.01,47.2l-.3-.7h-.2v.7h-.3v-1.7h.6c.3,0,.5.2.5.5,0,.2-.1.4-.3.4l.4.7h-.4v.1ZM194.71,45.8h-.3v.4h.3c.1,0,.2-.1.2-.2s0-.2-.2-.2Z"/>
    <polygon class="cls-1" points="195.71 47.2 195.71 45.5 196.81 45.5 196.81 45.8 196.11 45.8 196.11 46.2 196.71 46.2 196.71 46.5 196.11 46.5 196.11 46.9 196.81 46.9 196.81 47.2 195.71 47.2"/>
    <path class="cls-1" d="M197.71,47.2c-.2,0-.4,0-.6-.2l.2-.2c.1.1.2.1.4.1s.3-.1.3-.2v-.1s-.1,0-.1-.1h-.2c-.1,0-.2-.1-.3-.1-.1-.1-.1-.2-.1-.3,0-.3.2-.5.6-.5.2,0,.4.1.5.2l-.2.2c-.1-.1-.2-.1-.3-.1-.2,0-.3.1-.3.2v.1l.1.1h.2c.1,0,.2.1.3.1.1.1.1.2.1.4.1.2-.2.4-.6.4"/>
    <polygon class="cls-1" points="198.81 47.2 198.81 45.5 199.91 45.5 199.91 45.8 199.11 45.8 199.11 46.2 199.71 46.2 199.71 46.5 199.11 46.5 199.11 46.9 199.91 46.9 199.91 47.2 198.81 47.2"/>
    <polygon class="cls-1" points="201.31 47.2 200.61 46.1 200.61 47.2 200.31 47.2 200.31 45.5 200.61 45.5 201.21 46.5 201.21 45.5 201.61 45.5 201.61 47.2 201.31 47.2"/>
    <polygon class="cls-1" points="202.71 45.8 202.71 47.2 202.41 47.2 202.41 45.8 202.01 45.8 202.01 45.5 203.11 45.5 203.11 45.8 202.71 45.8"/>
    <polygon class="cls-1" points="203.51 47.2 203.51 45.5 204.61 45.5 204.61 45.8 203.81 45.8 203.81 46.2 204.51 46.2 204.51 46.5 203.81 46.5 203.81 46.9 204.61 46.9 204.61 47.2 203.51 47.2"/>
    <path class="cls-1" d="M206.11,47c-.1.1-.3.2-.4.2h-.6v-1.7h.6c.2,0,.3,0,.4.2.2.2.2.4.2.7s0,.4-.2.6M205.81,45.9q-.1-.1-.2-.1h-.2v1.1h.2c.1,0,.2,0,.2-.1.1-.1.1-.2.1-.5s0-.3-.1-.4h0Z"/>
    <path class="cls-1" d="M208.01,47.2h-.7v-1.7h.7c.3,0,.5.2.5.5,0,.2-.1.3-.2.3.1,0,.2.1.2.4.1.3-.2.5-.5.5M208.01,45.8h-.3v.4h.3c.1,0,.2-.1.2-.2s-.1-.2-.2-.2ZM208.01,46.5h-.3v.4h.3c.1,0,.2-.1.2-.2s0-.2-.2-.2h0Z"/>
    <polygon class="cls-1" points="209.61 46.5 209.61 47.2 209.31 47.2 209.31 46.5 208.81 45.5 209.21 45.5 209.51 46.2 209.81 45.5 210.11 45.5 209.61 46.5"/>
    <path class="cls-1" d="M217.71,42.1h.2l.4,2.2h-.2l-.4-2.2ZM217.61,44.6c.1-.1.2-.1.3-.1l-1.1-2c-.1,0-.2.1-.3.1l1.1,2h0ZM217.01,45.8v-.2h-2.3v.4h2.2c.1,0,.1-.1.1-.2h0ZM217.01,45.5c0-.1.1-.3.1-.4l-2.1-.8c0,.1-.1.2-.1.4l2.1.8h0ZM221.31,43.3l-1.7,1.5.1.1,1.7-1.5c.1.1,0,0-.1-.1ZM220.51,42.6c-.1,0-.1-.1-.2-.1l-1.1,2c.1,0,.1.1.2.1l1.1-2h0ZM217.51,44.7l-1.7-1.5c-.1.1-.2.2-.2.3l1.7,1.5c0-.1.1-.2.2-.3ZM218.81,49.6h0c.2,0,.5-.1.7-.1l-.3-1.7.9,1.5c.2-.1.5-.2.7-.4l-.8-1.4,1.2,1c.2-.2.4-.4.5-.6l-1.1-.9,1.3.5c.1-.2.2-.5.3-.8l-1.2-.4h1.2v-.9h-2.3c.1.2.1.3.1.5,0,.8-.7,1.5-1.5,1.5s-1.4-.5-1.5-1.3l-2.1.8c0,.2.1.3.2.5l2.1-.8-1.7,1.5c.1.1.2.3.4.4l1.6-1.4-1,1.8c.2.1.3.2.5.3l1-1.7-.3,2c.2.1.4.1.6.1l.3-1.8.2,1.8h0ZM218.61,44.3h.2l.4-2.2h-.2l-.4,2.2Z"/>
    <path class="cls-1" d="M224.01,47.8v-3.9h1.4c.5,0,.9.1,1.1.4s.4.6.4,1c0,.2,0,.4-.2.6-.1.2-.2.3-.4.4l1,1.5h-1.1l-.7-1.2h-.5v1.2h-1ZM225.31,44.6h-.3v1.1h.3c.5,0,.7-.2.7-.6s-.2-.5-.7-.5h0Z"/>
    <polygon class="cls-1" points="228.31 47.8 228.31 44.7 227.11 44.7 227.11 43.9 230.51 43.9 230.51 44.7 229.31 44.7 229.31 47.8 228.31 47.8"/>
    <polygon class="cls-1" points="230.51 47.8 231.91 45.8 230.61 43.9 231.81 43.9 232.51 45.1 233.21 43.9 234.41 43.9 233.11 45.8 234.51 47.8 233.21 47.8 232.51 46.5 231.71 47.8 230.51 47.8"/>
    <path class="cls-1" d="M292.61,19.1c-1.1-.6-2.1-.9-3.3-.9-1.8,0-3.5.9-3.5,2.8,0,1.6,1.1,2.2,2.6,2.5l.5.1c1.2.2,1.8.4,1.8,1,0,.7-.7,1-1.7,1-1.1,0-2.1-.4-2.8-.9l-.9,1.4c.9.8,2.3,1.1,3.6,1.1,1.9,0,3.5-.9,3.5-2.8,0-1.5-1.2-2.2-2.8-2.4l-.5-.1c-1-.2-1.8-.4-1.8-1s.7-1,1.7-1,1.8.3,2.5.7l1.1-1.5h0Z"/>
    <polygon class="cls-1" points="305.11 25.5 300.41 25.5 300.41 23.5 304.91 23.5 304.91 21.9 300.41 21.9 300.41 20 305.11 20 305.11 18.4 298.71 18.4 298.71 27 305.11 27 305.11 25.5"/>
    <path class="cls-1" d="M314.81,20.1l1.2,3.4h-2.4l1.2-3.4ZM315.91,18.4h-2.1l-3.4,8.7h1.8l.8-2h3.7l.8,2h1.8l-3.4-8.7h0Z"/>
    <path class="cls-1" d="M331.31,19.1c-1.1-.6-2.1-.9-3.3-.9-1.8,0-3.5.9-3.5,2.8,0,1.6,1.1,2.2,2.6,2.5l.5.1c1.2.2,1.8.4,1.8,1,0,.7-.7,1-1.7,1-1.1,0-2.1-.4-2.8-.9l-.9,1.4c.9.8,2.3,1.1,3.6,1.1,1.9,0,3.5-.9,3.5-2.8,0-1.5-1.2-2.2-2.8-2.4l-.5-.1c-1-.2-1.8-.4-1.8-1s.7-1,1.7-1,1.8.3,2.5.7l1.1-1.5h0Z"/>
    <path class="cls-1" d="M341.51,19.9c1.6,0,2.8,1.1,2.8,2.8s-1.1,2.8-2.8,2.8-2.8-1.1-2.8-2.8,1.2-2.8,2.8-2.8M341.51,18.2c-2.7,0-4.5,1.9-4.5,4.5s1.9,4.5,4.5,4.5,4.6-1.9,4.6-4.5-2-4.5-4.6-4.5Z"/>
    <polygon class="cls-1" points="359.71 18.4 358.01 18.4 358.01 24.2 353.61 18.4 352.01 18.4 352.01 27 353.71 27 353.71 21.3 358.11 27 359.71 27 359.71 18.4"/>
    <path class="cls-1" d="M369.11,21.8h1.5l-.4,1.8h-1.5l.4-1.8ZM366.61,20.4l-.3,1.4h1.3l-.4,1.8h-1.2l-.4,1.3h1.2l-.4,2.1h1.5l.4-2.1h1.5l-.4,2.1h1.5l.4-2.1h1.3l.3-1.4h-1.2l.4-1.8h1.2l.3-1.4h-1.3l.4-2.1h-1.5l-.4,2.1h-1.5l.4-2.1h-1.5l-.4,2.1h-1.2v.1Z"/>
    <path class="cls-1" d="M382.21,22.6c-.9,0-1.5-.6-1.5-1.4s.6-1.4,1.5-1.4,1.5.6,1.5,1.4-.7,1.4-1.5,1.4M380.21,27h2l2.4-3.6c.5-.8.8-1.5.8-2.3,0-1.7-1.4-2.9-3.2-2.9s-3.2,1.3-3.2,3,1.2,2.9,3,2.9h.4l-2.2,2.9h0Z"/>
    <path class="cls-4" d="M287.41,6.5c.8-.8,1.6-1.5,2.7-1.5.9,0,1.5.5,1.5,1.4,0,.6-.3,1.2-.9,1.8l-4.6,4.3v2.8h9.4v-3.3h-4.4l1.9-1.8c1.7-1.6,2.2-2.7,2.2-4.2,0-2.7-1.9-4.4-4.8-4.4-2.6,0-4.2,1.3-5.2,2.4l2.2,2.5h0Z"/>
    <path class="cls-4" d="M302.71,5.1c1.3,0,2.4,1.2,2.4,3.6s-1,3.6-2.4,3.6-2.4-1.2-2.4-3.6,1-3.6,2.4-3.6M302.71,1.7c-3.4,0-6,2.6-6,7s2.7,7,6,7,6-2.6,6-7-2.6-7-6-7Z"/>
    <path class="cls-4" d="M311.21,6.5c.8-.8,1.6-1.5,2.7-1.5.9,0,1.5.5,1.5,1.4,0,.6-.3,1.2-.9,1.8l-4.6,4.3v2.8h9.4v-3.3h-4.4l1.9-1.8c1.7-1.6,2.2-2.7,2.2-4.2,0-2.7-1.9-4.4-4.8-4.4-2.6,0-4.2,1.3-5.2,2.4l2.2,2.5h0Z"/>
    <polygon class="cls-4" points="329.81 6.4 327.31 6.4 326.21 8.8 326.21 9.9 324.61 9.9 328.31 1.9 324.51 1.9 320.31 10.8 320.31 13.2 326.21 13.2 326.21 15.4 329.81 15.4 329.81 13.2 331.31 13.2 331.31 9.9 329.81 9.9 329.81 6.4"/>
    <path class="cls-4" d="M342.51,34.2c.8-.8,1.6-1.5,2.7-1.5.9,0,1.5.5,1.5,1.4,0,.6-.3,1.2-.9,1.8l-4.6,4.3v2.8h9.4v-3.3h-4.4l1.9-1.8c1.7-1.6,2.2-2.7,2.2-4.2,0-2.7-1.9-4.4-4.8-4.4-2.6,0-4.2,1.3-5.2,2.4l2.2,2.5h0Z"/>
    <path class="cls-4" d="M357.81,32.7c1.3,0,2.4,1.2,2.4,3.6s-1,3.6-2.4,3.6-2.4-1.2-2.4-3.6,1.1-3.6,2.4-3.6M357.81,29.3c-3.4,0-6,2.6-6,7s2.7,7,6,7,6-2.6,6-7-2.6-7-6-7Z"/>
    <path class="cls-4" d="M366.41,34.2c.8-.8,1.6-1.5,2.7-1.5.9,0,1.5.5,1.5,1.4,0,.6-.3,1.2-.9,1.8l-4.6,4.3v2.8h9.4v-3.3h-4.4l1.9-1.8c1.7-1.6,2.2-2.7,2.2-4.2,0-2.7-1.9-4.4-4.8-4.4-2.6,0-4.2,1.3-5.2,2.4l2.2,2.5h0Z"/>
    <path class="cls-4" d="M384.81,29.6h-8.1l-.2,7.9h3.4c1.5,0,2.1.5,2.1,1.2,0,.9-.6,1.3-1.6,1.3-1.3,0-2.7-.7-3.3-1.2l-1.6,2.7c1.1,1,2.8,1.8,4.9,1.8,3.1,0,5.3-1.9,5.3-4.8,0-2.5-1.8-4.1-4.9-4.1h-1.1v-1.6h5.1v-3.2h0Z"/>
  </g>
</svg>