<?xml version="1.0" encoding="UTF-8"?>
<svg id="Layer_2" data-name="Layer 2" xmlns="http://www.w3.org/2000/svg" viewBox="0 0 166.08 31.52">
  <defs>
    <style>
      .cls-1 {
        fill: #fff;
        stroke-width: 0px;
      }
    </style>
  </defs>
  <g id="Layer_1-2" data-name="Layer 1">
    <g>
      <path class="cls-1" d="M38.78,27.53V5.17h4.92v22.37h-4.92ZM42.44,27.53v-4.17h4.15c.89,0,1.52-.2,1.89-.59.37-.39.56-.98.56-1.76v-.61c0-.77-.19-1.35-.57-1.75-.38-.4-1.03-.6-1.95-.6h-4.2v-3.81h4.11c.86,0,1.47-.19,1.83-.58.36-.38.53-.96.53-1.73v-.38c0-.77-.18-1.34-.54-1.72-.36-.38-.96-.57-1.8-.57h-4.15v-4.1h4.51c2.46,0,4.24.46,5.34,1.37s1.64,2.23,1.64,3.97v.44c0,1.29-.31,2.31-.94,3.04s-1.65,1.15-3.06,1.25v.19c1.59.22,2.7.76,3.35,1.62s.97,2.05.97,3.58v.68c0,2.08-.55,3.63-1.64,4.67-1.1,1.04-2.87,1.56-5.32,1.56h-4.71Z"/>
      <path class="cls-1" d="M56.55,27.53V10.15h4.66l-.23,5.25.61.14v11.99h-5.04ZM61.52,17.54l-1.56-3.34h1.26c.21-1.32.66-2.36,1.36-3.12.69-.76,1.7-1.15,3.02-1.15.14,0,.28.01.41.04.13.02.27.05.41.07l.19,5.41c-.16-.05-.36-.08-.59-.1s-.47-.03-.72-.03c-.95,0-1.74.19-2.38.58s-1.11.93-1.4,1.65Z"/>
      <path class="cls-1" d="M70.95,8.68c-.92,0-1.59-.22-2.02-.67-.43-.45-.64-1.05-.64-1.79v-.17c0-.75.21-1.34.64-1.79.43-.44,1.1-.67,2.02-.67s1.58.22,2,.67c.43.44.64,1.04.64,1.79v.17c0,.76-.21,1.36-.64,1.8s-1.09.67-2,.67ZM68.43,27.53V10.15h5.04v17.38h-5.04Z"/>
      <path class="cls-1" d="M82.88,27.88c-2.33,0-4.06-.65-5.18-1.96-1.12-1.31-1.68-3.14-1.68-5.51v-3.17c0-2.36.56-4.19,1.68-5.5,1.12-1.31,2.84-1.96,5.16-1.96.58,0,1.12.04,1.62.12.5.08.96.2,1.38.36s.8.32,1.11.5l.37,4.18c-.44-.27-.92-.49-1.44-.67-.52-.18-1.11-.26-1.76-.26-1.1,0-1.88.29-2.35.86s-.71,1.39-.71,2.47v2.83c0,1.08.26,1.92.77,2.5.51.58,1.32.88,2.42.88.65,0,1.24-.08,1.77-.25.52-.17,1.01-.39,1.45-.66l-.37,4.22c-.49.3-1.1.55-1.84.74s-1.53.28-2.4.28Z"/>
      <path class="cls-1" d="M89.71,27.53V4.36h5.02v23.17h-5.02ZM99.07,27.53l-3.88-7.61h-1v-2.94h1l3.8-6.83h5.42l-4.99,8.66v-1.03l5.2,9.75h-5.55Z"/>
      <path class="cls-1" d="M106.42,27.53V5.17h5.04v22.37h-5.04ZM109.9,27.53v-4.36h3.78c1.07,0,1.87-.29,2.39-.88.52-.59.78-1.46.78-2.62v-6.7c0-1.16-.26-2.02-.78-2.61-.52-.58-1.32-.88-2.39-.88h-3.8v-4.32h4.01c2.74,0,4.77.67,6.1,2.02s1.99,3.28,1.99,5.8v6.7c0,2.53-.66,4.47-1.97,5.82s-3.35,2.02-6.12,2.02h-3.99Z"/>
      <path class="cls-1" d="M131.48,27.93c-2.4,0-4.22-.64-5.44-1.91-1.23-1.27-1.84-3.1-1.84-5.48v-3.38c0-2.4.62-4.25,1.85-5.53,1.23-1.28,3.04-1.93,5.43-1.93s4.21.64,5.42,1.93c1.21,1.28,1.82,3.13,1.82,5.53v3.38c0,2.38-.61,4.21-1.82,5.48-1.21,1.27-3.02,1.91-5.42,1.91ZM131.48,23.93c.76,0,1.32-.26,1.69-.77.37-.51.55-1.26.55-2.24v-4.09c0-1.03-.18-1.79-.55-2.3-.37-.51-.93-.76-1.69-.76s-1.32.25-1.69.76c-.37.51-.55,1.28-.55,2.3v4.09c0,.98.18,1.73.55,2.24.37.51.93.77,1.69.77Z"/>
      <path class="cls-1" d="M147.69,27.88c-2.33,0-4.06-.65-5.18-1.96-1.12-1.31-1.68-3.14-1.68-5.51v-3.17c0-2.36.56-4.19,1.68-5.5,1.12-1.31,2.84-1.96,5.16-1.96.58,0,1.12.04,1.62.12.5.08.96.2,1.38.36s.8.32,1.11.5l.37,4.18c-.44-.27-.92-.49-1.44-.67-.52-.18-1.11-.26-1.76-.26-1.1,0-1.88.29-2.35.86s-.71,1.39-.71,2.47v2.83c0,1.08.26,1.92.77,2.5.51.58,1.32.88,2.42.88.65,0,1.24-.08,1.77-.25.52-.17,1.01-.39,1.45-.66l-.37,4.22c-.49.3-1.1.55-1.84.74s-1.53.28-2.4.28Z"/>
      <path class="cls-1" d="M159.53,27.86c-1.13,0-2.15-.11-3.04-.33s-1.67-.47-2.31-.75l-.37-4.36c.74.34,1.53.64,2.37.9.85.26,1.77.39,2.77.39.8,0,1.37-.11,1.71-.33.33-.22.5-.54.5-.96v-.14c0-.32-.09-.58-.27-.8s-.49-.43-.94-.63-1.07-.46-1.87-.78c-1.07-.38-1.93-.81-2.56-1.28-.64-.47-1.09-1.01-1.37-1.64-.28-.62-.42-1.36-.42-2.2v-.19c0-1.63.53-2.87,1.6-3.71,1.07-.84,2.63-1.26,4.68-1.26,1.08,0,2.06.12,2.91.35.86.23,1.58.5,2.16.81l.37,4.04c-.65-.33-1.38-.6-2.17-.82s-1.64-.33-2.54-.33c-.54,0-.96.05-1.28.14-.32.09-.54.23-.67.4-.13.17-.19.39-.19.65v.09c0,.3.09.56.27.78s.48.42.9.62c.42.2.99.43,1.7.7,1.08.37,1.97.77,2.64,1.18s1.17.93,1.49,1.54c.31.61.47,1.4.47,2.35v.23c0,1.76-.53,3.09-1.6,3.99s-2.72,1.35-4.94,1.35Z"/>
    </g>
    <path class="cls-1" d="M13.65,3.46l10.65,6.15v12.3l-10.65,6.15-10.65-6.15v-12.3L13.65,3.46M13.65,0L0,7.88v15.76l13.65,7.88,13.65-7.88V7.88L13.65,0h0Z"/>
  </g>
</svg>