<svg width="22" height="27" viewBox="0 0 22 27" fill="none" xmlns="http://www.w3.org/2000/svg">
<path d="M11.002 1.70308C16.1034 1.70308 20.2386 5.69229 20.2386 10.6136C20.2386 12.8115 19.4115 14.8176 18.0437 16.3711L11.002 24.3725L3.96024 16.3711C2.59245 14.8176 1.76541 12.8076 1.76541 10.6136C1.76541 5.69229 5.9006 1.70308 11.002 1.70308ZM11.3598 18.4501C11.3837 18.4501 11.4076 18.4424 11.4354 18.427C11.4592 18.4155 11.6183 18.2928 11.8012 18.1547C12.2465 17.8172 12.8867 17.3339 12.9304 17.3032L12.9662 17.2802L13.1531 17.33C13.3161 17.376 13.3797 17.3876 13.4115 17.3876C13.4274 17.3876 13.4354 17.3876 13.4433 17.3799C13.4592 17.3722 13.7296 17.1191 14.0517 16.8122C14.3738 16.5053 14.6402 16.256 14.6481 16.2522C14.6481 16.2522 14.6481 16.2522 14.6521 16.2522C14.664 16.2522 14.6958 16.2637 14.7276 16.279C14.9742 16.4018 15.0338 16.4324 15.0736 16.4324C15.0775 16.4324 15.0815 16.4324 15.0855 16.4324C15.1252 16.4248 15.169 16.3979 15.1889 16.3557C15.1968 16.3404 15.3082 16.1486 15.4394 15.9261L15.6779 15.5272L15.825 15.393C16.3419 14.925 16.7833 14.3458 17.1133 13.7091C17.3638 13.2296 17.5666 12.6734 17.6581 12.1978C17.666 12.1517 17.6779 12.0904 17.6859 12.0597C17.6183 11.8717 17.6103 11.6646 17.6819 11.469C17.6978 11.3999 17.7097 11.3654 17.7177 11.3654C17.7177 11.3654 17.7177 11.3654 17.7177 11.3769C17.7177 11.3884 17.7177 11.4038 17.7177 11.4153C17.7177 11.3961 17.7177 11.3846 17.7177 11.3769C17.7217 11.304 17.7256 11.235 17.7217 11.1621C17.7217 11.0202 17.7058 10.8783 17.7018 10.7363C17.6859 10.4256 17.6859 10.1149 17.6859 9.80423L17.666 9.71218C17.6342 9.56642 17.5666 9.30558 17.5189 9.14448C17.1849 8.09732 16.6083 7.19591 15.8052 6.45177L15.6421 6.30217L15.5348 6.12956C15.3638 5.85339 15.2803 5.71146 15.1769 5.53886C15.1173 5.43529 15.0696 5.37008 15.0537 5.36241C15.0378 5.35474 15.0219 5.34707 15.006 5.34707C14.9662 5.34707 14.9105 5.37392 14.7753 5.44296C14.6759 5.49283 14.5885 5.53502 14.5765 5.53502C14.5686 5.53502 14.2942 5.28186 13.9642 4.975C13.4791 4.52238 13.3598 4.41881 13.336 4.41497C13.336 4.41497 13.332 4.41497 13.328 4.41497C13.2962 4.41497 13.2326 4.43032 13.1014 4.46484C12.994 4.49553 12.8946 4.51854 12.8827 4.51854C12.8628 4.51854 12.6521 4.36511 11.6541 3.63248C11.4831 3.50973 11.336 3.40233 11.328 3.39466C11.3121 3.38699 11.2922 3.38315 11.2763 3.38315C11.2286 3.38315 11.1849 3.41384 11.169 3.4637C11.1571 3.49822 11.1571 3.5059 11.2048 3.59412C11.3439 3.86646 11.8648 4.89445 11.9682 5.10541L12.0875 5.34707L12.0954 5.75749C12.0954 6.01066 12.1074 6.17176 12.1153 6.17559C12.1153 6.17559 12.1829 6.19094 12.2584 6.20628C13.1014 6.3482 13.9205 6.71644 14.5845 7.25345C15.6501 8.11649 16.3022 9.39764 16.3539 10.7287C16.3618 10.9626 16.3539 11.2733 16.33 11.4613C16.2664 12.006 16.1113 12.52 15.8648 13.0071C15.7535 13.2257 15.6779 13.36 15.5507 13.5441C14.8231 14.6181 13.6859 15.3623 12.3777 15.6193C12.2744 15.6384 12.1948 15.6538 12.1869 15.6576C12.1869 15.6576 12.1789 15.8379 12.1789 16.0527V16.444L11.9245 16.9618C11.336 18.1701 11.2644 18.3158 11.2644 18.3312C11.2644 18.3618 11.2922 18.4079 11.3161 18.427C11.332 18.4386 11.3479 18.4424 11.3678 18.4424M9.10934 4.53388C9.10934 4.53388 9.00199 4.50703 8.89066 4.48018C8.76342 4.44566 8.69583 4.43032 8.66402 4.43032H8.65606C8.62823 4.43032 8.50895 4.53772 8.02783 4.99034C7.69781 5.2972 7.42346 5.54653 7.41551 5.55036C7.40358 5.55036 7.3161 5.50817 7.2167 5.4583C7.08151 5.38926 7.02584 5.36241 6.98608 5.36241C6.9662 5.36241 6.95427 5.36625 6.93837 5.37775C6.91849 5.38926 6.87475 5.45063 6.81511 5.5542C6.71173 5.72681 6.62425 5.86873 6.45726 6.14491L6.3499 6.31752L6.18688 6.46711C5.37972 7.20742 4.80716 8.11266 4.47316 9.15982C4.42545 9.32093 4.35388 9.58176 4.32604 9.72752L4.30616 9.81958H4.29026C4.22266 10.1495 4.15507 10.4678 4.17893 10.8284C4.21869 11.35 4.3499 11.841 4.36978 12.3704C4.37773 12.4011 4.38569 12.4279 4.38966 12.4548C4.67594 13.5633 5.31213 14.6258 6.17097 15.4045L6.31809 15.5387L6.55666 15.9376C6.68787 16.1601 6.80318 16.3519 6.80716 16.3672C6.82704 16.4056 6.8668 16.4363 6.91054 16.444C6.91451 16.444 6.91849 16.444 6.92246 16.444C6.95825 16.444 7.02187 16.4133 7.26839 16.2905C7.3002 16.2752 7.33201 16.2637 7.34394 16.2637C7.34394 16.2637 7.34394 16.2637 7.34791 16.2637C7.35586 16.2637 7.62227 16.5207 7.94433 16.8237C8.2664 17.1267 8.53678 17.3837 8.55268 17.3914C8.56064 17.3991 8.57256 17.3991 8.58449 17.3991C8.6163 17.3991 8.67594 17.3837 8.84294 17.3377L9.02982 17.2878L9.06561 17.3108C9.10537 17.3415 9.74553 17.8248 10.1948 18.1624C10.3777 18.3005 10.5408 18.4194 10.5606 18.4347C10.5845 18.4501 10.6123 18.4577 10.6362 18.4577C10.6561 18.4577 10.672 18.4539 10.6879 18.4424C10.7157 18.4232 10.7396 18.3772 10.7396 18.3465C10.7396 18.3273 10.672 18.1816 10.0795 16.9771L9.833 16.467V16.0757C9.833 15.8609 9.833 15.6806 9.82505 15.6806C9.82505 15.6806 9.7336 15.6576 9.63419 15.6423C8.66402 15.4543 7.79722 15.0017 7.09742 14.3266C6.69583 13.9392 6.39761 13.5288 6.14314 13.0263C5.98807 12.7156 5.87674 12.4241 5.79324 12.0904C5.68191 11.6454 5.63817 11.2311 5.65408 10.744C5.70179 9.41298 6.35388 8.13184 7.42346 7.26879C8.09145 6.73178 8.90656 6.36355 9.7495 6.22162C9.82107 6.21011 9.88469 6.19477 9.89264 6.19094C9.9006 6.19094 9.90457 6.026 9.91252 5.77284L9.92048 5.36241L10.0398 5.12076C10.1471 4.91362 10.66 3.88564 10.8032 3.60946C10.8469 3.52124 10.8469 3.51357 10.839 3.47905C10.8231 3.42918 10.7753 3.39849 10.7316 3.39849C10.7157 3.39849 10.6958 3.40233 10.6799 3.41C10.668 3.41767 10.5209 3.52124 10.3539 3.64782C9.35586 4.38429 9.14513 4.53388 9.12525 4.53388M12.3618 10.675H13.8966V10.6826H15.4274L15.4195 10.5445C15.3638 9.49354 14.9026 8.49624 14.1312 7.74826C13.8807 7.50277 13.5507 7.25728 13.2843 7.10385L13.2366 7.077L13.2207 7.10001C13.1809 7.16522 11.7217 9.60861 11.7177 9.62012C11.7177 9.63162 11.7376 9.6508 11.7773 9.67382C11.8131 9.69683 11.8847 9.75437 11.9404 9.8004C12.1153 9.9615 12.2266 10.1303 12.2982 10.3336C12.334 10.4371 12.3658 10.5829 12.3658 10.6443V10.675M6.56859 10.6826H9.63022V10.6519C9.63022 10.5407 9.70576 10.2914 9.78131 10.1495C9.87674 9.97684 10.0517 9.78506 10.2107 9.68532C10.2505 9.65847 10.2823 9.63546 10.2823 9.63162C10.2823 9.62012 8.78728 7.11152 8.77137 7.09234C8.77137 7.09234 8.77137 7.09234 8.7674 7.09234C8.71968 7.09234 8.38171 7.31098 8.15109 7.49893C7.2167 8.25075 6.64413 9.36696 6.58052 10.5484L6.57256 10.6865M10.9583 11.6761C11.0537 11.6761 11.173 11.6646 11.2366 11.6531C11.6779 11.5457 11.9881 11.1352 11.9523 10.7056C11.9205 10.299 11.6262 9.96917 11.2167 9.86944C11.165 9.85793 11.1054 9.85026 10.9901 9.85026C10.8111 9.85026 10.7316 9.86944 10.5885 9.93465C10.4811 9.98452 10.4175 10.0229 10.334 10.1073C9.86083 10.5445 9.97614 11.2963 10.5646 11.584C10.6521 11.6262 10.7555 11.6607 10.8469 11.6761C10.8748 11.6799 10.9185 11.6838 10.9622 11.6838M10.9821 12.0635C10.8946 12.0635 10.8072 12.0597 10.7515 12.0482C10.6402 12.029 10.5129 11.9906 10.4056 11.9446C10.3618 11.9254 10.3221 11.9101 10.3141 11.9101C10.3141 11.9101 9.96024 12.4816 9.53877 13.1759C9.0338 13.9967 8.77137 14.4378 8.77535 14.4455C8.79523 14.4685 9.19682 14.6565 9.35189 14.714C9.74553 14.8636 10.163 14.9595 10.5408 14.994C10.6044 15.0017 10.6759 15.0055 10.7038 15.0094C10.7276 15.0094 10.7833 15.0094 10.8509 15.0094C11.0616 15.0094 11.4155 14.9979 11.507 14.9864C11.9125 14.9442 12.2704 14.8559 12.6481 14.714C12.7873 14.6642 13.2008 14.4685 13.2207 14.4455C13.2286 14.4378 13.0696 14.1693 12.7038 13.5748C12.4135 13.103 12.0676 12.5353 11.9284 12.309C11.7932 12.0865 11.674 11.9024 11.674 11.9024C11.674 11.9024 11.6382 11.9177 11.6064 11.9331C11.5189 11.9753 11.3519 12.029 11.2406 12.0443C11.1769 12.052 11.0775 12.0597 10.9821 12.0597M11.002 0C4.93439 0 0 4.76019 0 10.6136C0 13.1222 0.926441 15.5579 2.61233 17.4719L9.65408 25.4734L10.998 27L12.3419 25.4734L19.3837 17.4719C21.0696 15.5541 21.996 13.1183 21.996 10.6136C21.996 7.77895 20.8509 5.11308 18.7753 3.11081C16.7038 1.1047 13.9404 0 11.002 0Z" fill="white"/>
</svg>
