<?xml version="1.0" encoding="UTF-8"?>
<svg id="Layer_2" data-name="Layer 2" xmlns="http://www.w3.org/2000/svg" viewBox="0 0 430.44 70.39">
  <defs>
    <style>
      .cls-1 {
        fill: #fff;
        stroke-width: 0px;
      }
    </style>
  </defs>
  <g id="Layer_1-2" data-name="Layer 1">
    <path class="cls-1" d="M27.67,4.44c12.83,0,23.23,10.4,23.23,23.23,0,5.73-2.08,10.96-5.52,15.01l-17.71,20.86-17.71-20.86c-3.44-4.05-5.52-9.29-5.52-15.01C4.44,14.84,14.84,4.44,27.67,4.44M28.57,48.1c.06,0,.12-.02.19-.06.06-.03.46-.35.92-.71,1.12-.88,2.73-2.14,2.84-2.22l.09-.06.47.13c.41.12.57.15.65.15.04,0,.06,0,.08-.02.04-.02.72-.68,1.53-1.48.81-.8,1.48-1.45,1.5-1.46,0,0,0,0,.01,0,.03,0,.11.03.19.07.62.32.77.4.87.4.01,0,.02,0,.03,0,.1-.02.21-.09.26-.2.02-.04.3-.54.63-1.12l.6-1.04.37-.35c1.3-1.22,2.41-2.73,3.24-4.39.63-1.25,1.14-2.7,1.37-3.94.02-.12.05-.28.07-.36-.17-.49-.19-1.03-.01-1.54.04-.18.07-.27.09-.27,0,0,0,0,0,.03,0,.03,0,.07,0,.1,0,0,0,0,0,0,0,0,0,0,0,0,0-.05,0-.08,0-.1.01-.19.02-.37.01-.56,0-.37-.04-.74-.05-1.11-.04-.81-.04-1.62-.04-2.43h0l-.05-.24c-.08-.38-.25-1.06-.37-1.48-.84-2.73-2.29-5.08-4.31-7.02l-.41-.39-.27-.45c-.43-.72-.64-1.09-.9-1.54-.15-.27-.27-.44-.31-.46-.04-.02-.08-.04-.12-.04-.1,0-.24.07-.58.25-.25.13-.47.24-.5.24,0,0,0,0,0,0-.02,0-.71-.66-1.54-1.46-1.22-1.18-1.52-1.45-1.58-1.46,0,0-.01,0-.02,0-.08,0-.24.04-.57.13-.27.08-.52.14-.55.14-.05,0-.58-.4-3.09-2.31-.43-.32-.8-.6-.82-.62-.04-.02-.09-.03-.13-.03-.12,0-.23.08-.27.21-.03.09-.03.11.09.34.35.71,1.66,3.39,1.92,3.94l.3.63.02,1.07c0,.66.03,1.08.05,1.09,0,0,.17.04.36.08,2.12.37,4.18,1.33,5.85,2.73,2.68,2.25,4.32,5.59,4.45,9.06.02.61,0,1.42-.06,1.91-.16,1.42-.55,2.76-1.17,4.03-.28.57-.47.92-.79,1.4-1.83,2.8-4.69,4.74-7.98,5.41-.26.05-.46.09-.48.1,0,0-.02.47-.02,1.03v1.02l-.64,1.35c-1.48,3.15-1.66,3.53-1.66,3.57,0,.08.07.2.13.25.04.03.08.04.13.04M22.91,11.82s-.27-.07-.55-.14c-.32-.09-.49-.13-.57-.13,0,0-.02,0-.02,0-.07,0-.37.28-1.58,1.46-.83.8-1.52,1.45-1.54,1.46,0,0,0,0,0,0-.03,0-.25-.11-.5-.24-.34-.18-.48-.25-.58-.25-.05,0-.08.01-.12.04-.05.03-.16.19-.31.46-.26.45-.48.82-.9,1.54l-.27.45-.41.39c-2.03,1.93-3.47,4.29-4.31,7.02-.12.42-.3,1.1-.37,1.48l-.05.24h-.04c-.17.86-.34,1.69-.28,2.63.1,1.36.43,2.64.48,4.02.02.08.04.15.05.22.72,2.89,2.32,5.66,4.48,7.69l.37.35.6,1.04c.33.58.62,1.08.63,1.12.05.1.15.18.26.2.01,0,.02,0,.03,0,.09,0,.25-.08.87-.4.08-.04.16-.07.19-.07,0,0,0,0,.01,0,.02,0,.69.67,1.5,1.46.81.79,1.49,1.46,1.53,1.48.02.02.05.02.08.02.08,0,.23-.04.65-.16l.47-.13.09.06c.1.08,1.71,1.34,2.84,2.22.46.36.87.67.92.71.06.04.13.06.19.06.05,0,.09-.01.13-.04.07-.05.13-.17.13-.25,0-.05-.17-.43-1.66-3.57l-.62-1.33v-1.02c0-.56,0-1.03-.02-1.03,0,0-.23-.06-.48-.1-2.44-.49-4.62-1.67-6.38-3.43-1.01-1.01-1.76-2.08-2.4-3.39-.39-.81-.67-1.57-.88-2.44-.28-1.16-.39-2.24-.35-3.51.12-3.47,1.76-6.81,4.45-9.06,1.68-1.4,3.73-2.36,5.85-2.73.18-.03.34-.07.36-.08.02,0,.03-.43.05-1.09l.02-1.07.3-.63c.27-.54,1.56-3.22,1.92-3.94.11-.23.11-.25.09-.34-.04-.13-.16-.21-.27-.21-.04,0-.09.01-.13.03-.03.02-.4.29-.82.62-2.51,1.92-3.04,2.31-3.09,2.31M31.09,27.83h3.86v.02h3.85l-.02-.36c-.14-2.74-1.3-5.34-3.24-7.29-.63-.64-1.46-1.28-2.13-1.68l-.12-.07-.04.06c-.1.17-3.77,6.54-3.78,6.57,0,.03.05.08.15.14.09.06.27.21.41.33.44.42.72.86.9,1.39.09.27.17.65.17.81v.08M16.52,27.85h7.7v-.08c0-.29.19-.94.38-1.31.24-.45.68-.95,1.08-1.21.1-.07.18-.13.18-.14,0-.03-3.76-6.57-3.8-6.62,0,0,0,0-.01,0-.12,0-.97.57-1.55,1.06-2.35,1.96-3.79,4.87-3.95,7.95l-.02.36M27.56,30.44c.24,0,.54-.03.7-.06,1.11-.28,1.89-1.35,1.8-2.47-.08-1.06-.82-1.92-1.85-2.18-.13-.03-.28-.05-.57-.05-.45,0-.65.05-1.01.22-.27.13-.43.23-.64.45-1.19,1.14-.9,3.1.58,3.85.22.11.48.2.71.24.07.01.18.02.29.02M27.62,31.45c-.22,0-.44-.01-.58-.04-.28-.05-.6-.15-.87-.27-.11-.05-.21-.09-.23-.09,0,0,0,0,0,0,0,0-.89,1.49-1.95,3.3-1.27,2.14-1.93,3.29-1.92,3.31.05.06,1.06.55,1.45.7.99.39,2.04.64,2.99.73.16.02.34.03.41.04.06,0,.2,0,.37,0,.53,0,1.42-.03,1.65-.06,1.02-.11,1.92-.34,2.87-.71.35-.13,1.39-.64,1.44-.7.02-.02-.38-.72-1.3-2.27-.73-1.23-1.6-2.71-1.95-3.3-.34-.58-.64-1.06-.64-1.06,0,0-.09.04-.17.08-.22.11-.64.25-.92.29-.16.02-.41.04-.65.04M27.67,0C12.41,0,0,12.41,0,27.67c0,6.54,2.33,12.89,6.57,17.88l17.71,20.86,3.38,3.98,3.38-3.98,17.71-20.86c4.24-5,6.57-11.35,6.57-17.88,0-7.39-2.88-14.34-8.1-19.56C42.01,2.88,35.06,0,27.67,0h0Z"/>
    <g>
      <path class="cls-1" d="M90.99,60.24c-5.9,0-10.25-1.63-13.05-4.89-2.8-3.26-4.2-8.02-4.2-14.27v-11.74c0-6.15,1.42-10.84,4.27-14.06,2.85-3.22,7.14-4.84,12.86-4.84,1.52,0,2.91.11,4.14.32,1.24.21,2.36.51,3.36.88,1,.38,1.86.8,2.59,1.27l.83,10.95c-1.05-.55-2.19-1.03-3.43-1.44-1.24-.41-2.66-.62-4.26-.62-2.65,0-4.55.74-5.7,2.21-1.15,1.47-1.72,3.51-1.72,6.11v10.31c0,2.58.6,4.59,1.8,6.04,1.2,1.45,3.22,2.17,6.08,2.17,1.6,0,3.01-.21,4.22-.62,1.21-.41,2.32-.92,3.32-1.52l-.83,11.14c-.72.48-1.6.91-2.62,1.29-1.03.39-2.17.7-3.45.94-1.28.24-2.68.36-4.2.36Z"/>
      <path class="cls-1" d="M119.9,59.3h-12.79V11.38h12.79v47.92ZM114.95,29.49h19.58v10.8h-19.58v-10.8ZM142.97,59.3h-12.83V11.38h12.83v47.92Z"/>
      <path class="cls-1" d="M149.64,59.3V11.38h12.41v47.92h-12.41ZM155.57,22.1v-10.72h22.65v10.72h-22.65ZM155.57,59.3v-10.88h22.84v10.88h-22.84ZM157.48,40.21v-10.39h20.25v10.39h-20.25Z"/>
      <path class="cls-1" d="M200.04,60.24c-5.9,0-10.25-1.63-13.05-4.89-2.8-3.26-4.2-8.02-4.2-14.27v-11.74c0-6.15,1.42-10.84,4.27-14.06,2.85-3.22,7.14-4.84,12.86-4.84,1.52,0,2.91.11,4.14.32,1.24.21,2.36.51,3.36.88,1,.38,1.86.8,2.59,1.27l.83,10.95c-1.05-.55-2.19-1.03-3.43-1.44-1.24-.41-2.66-.62-4.26-.62-2.65,0-4.55.74-5.7,2.21-1.15,1.47-1.72,3.51-1.72,6.11v10.31c0,2.58.6,4.59,1.8,6.04,1.2,1.45,3.22,2.17,6.08,2.17,1.6,0,3.01-.21,4.22-.62,1.21-.41,2.32-.92,3.32-1.52l-.83,11.14c-.72.48-1.6.91-2.62,1.29-1.03.39-2.17.7-3.45.94-1.28.24-2.68.36-4.2.36Z"/>
      <path class="cls-1" d="M216.16,59.3V11.38h12.56v47.92h-12.56ZM238.96,59.3l-9.6-20.96h-1.57v-7.12h1.57l9.34-19.84h13.76l-12.19,23.85-.04-2.81,12.71,26.89h-13.99Z"/>
      <path class="cls-1" d="M256.1,59.3V11.38h12.38v27.6l.07,5.96v14.36h-12.45ZM264.31,46.47v-10.42h8.21c1.8,0,3.06-.42,3.79-1.26.72-.84,1.09-2.21,1.09-4.11v-3.53c0-1.92-.36-3.3-1.09-4.12-.73-.83-1.97-1.24-3.75-1.24h-8.25v-10.42h9.04c5.77,0,9.98,1.32,12.62,3.96s3.96,6.49,3.96,11.57v4.09c0,5.17-1.32,9.05-3.96,11.62-2.64,2.58-6.81,3.86-12.51,3.86h-9.15Z"/>
      <path class="cls-1" d="M312.39,60.31c-6.15,0-10.74-1.58-13.78-4.74-3.04-3.16-4.56-7.83-4.56-14.01v-12.15c0-6.17,1.52-10.88,4.58-14.12,3.05-3.24,7.64-4.86,13.76-4.86s10.75,1.62,13.8,4.86c3.05,3.24,4.57,7.94,4.57,14.12v12.15c0,6.17-1.52,10.84-4.56,14.01-3.04,3.16-7.64,4.74-13.82,4.74ZM312.39,49.77c1.92,0,3.31-.61,4.16-1.84.85-1.22,1.27-3.04,1.27-5.44v-14.06c0-2.5-.42-4.38-1.27-5.62-.85-1.25-2.24-1.88-4.16-1.88s-3.28.62-4.12,1.88-1.27,3.12-1.27,5.62v14.06c0,2.4.42,4.21,1.27,5.44s2.23,1.84,4.12,1.84Z"/>
      <path class="cls-1" d="M349.21,59.3h-12.79V11.38h12.79v47.92Z"/>
      <path class="cls-1" d="M372.91,11.3l8.33,33.71h.45l-.67-21.83v-11.89h11.74v48h-16.65l-8.66-34.42h-.45l.71,22.2v12.22h-11.77V11.3h16.99Z"/>
      <path class="cls-1" d="M397.55,22.36v-10.99h32.89v10.99h-32.89ZM407.6,59.3V12.69h12.79v46.61h-12.79Z"/>
    </g>
  </g>
</svg>