<?xml version="1.0" encoding="UTF-8"?>
<svg id="Layer_2" data-name="Layer 2" xmlns="http://www.w3.org/2000/svg" viewBox="0 0 174.4 45.8">
  <defs>
    <style>
      .cls-1 {
        fill: #fff;
        stroke-width: 0px;
      }
    </style>
  </defs>
  <g id="Layer_1-2" data-name="Layer 1">
    <g>
      <path class="cls-1" d="M3.83,3.83C1.28,6.38,0,9.47,0,13.09c0,4.36,2.73,8.18,8.18,11.45,5.45,3.27,8.18,6,8.18,8.18,0,1.81-.64,3.35-1.91,4.63-1.28,1.28-2.82,1.91-4.63,1.91H0v6.54h9.81c3.62,0,6.71-1.28,9.26-3.83,2.55-2.55,3.83-5.64,3.83-9.26,0-4.36-2.73-8.18-8.18-11.45-5.45-3.27-8.18-6-8.18-8.18,0-1.81.64-3.35,1.91-4.63,1.28-1.28,2.82-1.91,4.63-1.91h9.81V0h-9.81c-3.62,0-6.71,1.28-9.26,3.83Z"/>
      <path class="cls-1" d="M50.35,5.27c-3.51-3.51-7.75-5.27-12.73-5.27h-8.18v45.8h6.54v-9.81h1.64c4.97,0,9.21-1.75,12.73-5.27,3.51-3.51,5.27-7.75,5.27-12.73s-1.76-9.21-5.27-12.73ZM45.72,26.09c-2.24,2.24-4.93,3.35-8.1,3.35h-1.64V6.54h1.64c3.16,0,5.86,1.12,8.1,3.35s3.35,4.93,3.35,8.1-1.12,5.86-3.35,8.1Z"/>
      <path class="cls-1" d="M67.62,0l-13.09,45.8h6.54c2.18-6.54,4.91-9.81,8.18-9.81s6,3.27,8.18,9.81h6.54L70.89,0h-3.27ZM75.61,21.31c-4.27,1.36-5.19,2.47-6.32,7.61-1.13-5.14-2.05-6.25-6.32-7.61,4.27-1.36,5.19-2.47,6.32-7.61,1.13,5.14,2.05,6.25,6.32,7.61Z"/>
      <path class="cls-1" d="M113.85,17.99c0-4.97-1.76-9.21-5.27-12.73s-7.75-5.27-12.73-5.27h-8.18v45.8h6.54v-9.81h1.64c1.42,0,2.78-.14,4.09-.43l4.09,10.24h7.52l-5.23-13.12c.79-.59,1.54-1.24,2.26-1.96,3.51-3.51,5.27-7.75,5.27-12.73ZM103.95,26.09c-2.24,2.24-4.93,3.35-8.1,3.35h-1.64V6.54h1.64c3.16,0,5.86,1.12,8.1,3.35s3.35,4.93,3.35,8.1-1.12,5.86-3.35,8.1Z"/>
      <polygon class="cls-1" points="140.28 0 127.06 22.9 126.93 23.13 126.93 0 120.39 0 120.39 45.8 126.93 45.8 126.93 36.28 130.86 29.48 140.28 45.8 147.87 45.8 134.65 22.9 147.87 0 140.28 0"/>
      <path class="cls-1" d="M164.59,6.54h9.81V0h-9.81c-3.62,0-6.71,1.28-9.26,3.83-2.55,2.55-3.83,5.64-3.83,9.26,0,4.36,2.73,8.18,8.18,11.45,5.45,3.27,8.18,6,8.18,8.18,0,1.81-.64,3.35-1.91,4.63-1.28,1.28-2.82,1.91-4.63,1.91h-9.81v6.54h9.81c3.62,0,6.71-1.28,9.26-3.83,2.55-2.55,3.83-5.64,3.83-9.26,0-4.36-2.73-8.18-8.18-11.45-5.45-3.27-8.18-6-8.18-8.18,0-1.81.64-3.35,1.91-4.63,1.28-1.28,2.82-1.91,4.63-1.91Z"/>
    </g>
  </g>
</svg>